<svg width="20" height="20" viewBox="0 0 20 20" fill="none" xmlns="http://www.w3.org/2000/svg">
<path d="M13.3751 5.31836H13.3865" stroke="black" stroke-width="1.5" stroke-linecap="round" stroke-linejoin="round"/>
<path d="M15.625 1H4.375C2.51104 1 1 2.45044 1 4.23965V15.0385C1 16.8277 2.51104 18.2781 4.375 18.2781H15.625C17.489 18.2781 19 16.8277 19 15.0385V4.23965C19 2.45044 17.489 1 15.625 1Z" stroke="black" stroke-width="1.5" stroke-linecap="round" stroke-linejoin="round"/>
<path d="M1 12.8789L5.49999 8.55932C6.01306 8.08543 6.59505 7.83594 7.18749 7.83594C7.77993 7.83594 8.36192 8.08543 8.87499 8.55932L14.5 13.9588" stroke="black" stroke-width="1.5" stroke-linecap="round" stroke-linejoin="round"/>
<path d="M12.5147 11.8171L13.5735 10.8178C14.0564 10.3793 14.6042 10.1484 15.1617 10.1484C15.7193 10.1484 16.2671 10.3793 16.75 10.8178L18.8676 12.8164" stroke="black" stroke-width="1.5" stroke-linecap="round" stroke-linejoin="round"/>
</svg>
