<svg width="35" height="35" viewBox="0 0 35 35" fill="none" xmlns="http://www.w3.org/2000/svg">
<circle cx="17.5" cy="17.5" r="17.5" fill="#DA4443"/>
<path d="M7.84724 7C7.38041 7 7 7.38183 7 7.8504V21.4568C7 21.9254 7.38041 22.3072 7.84724 22.3072H21.4031C21.87 22.3072 22.2504 21.9254 22.2504 21.4568V7.8504C22.2504 7.38183 21.87 7 21.4031 7H7.84724ZM8.69449 8.7008H20.5559V18.9056H8.69449V8.7008ZM23.0976 9.47126V11.1984L24.6337 11.4646L23.0976 20.3938V21.4568C23.0976 22.3957 22.3377 23.1576 21.4031 23.1576H12.4274L23.1773 25.0183C23.3985 25.0568 23.6259 25.0056 23.8095 24.876C23.9931 24.7464 24.118 24.5489 24.1567 24.3269L26.4341 10.9067C26.4533 10.7967 26.4508 10.684 26.4265 10.575C26.4023 10.466 26.3569 10.3628 26.293 10.2714C26.229 10.18 26.1477 10.1022 26.0537 10.0424C25.9597 9.98257 25.8549 9.94194 25.7453 9.92283L23.0976 9.47211V9.47126ZM14.6252 10.348C13.65 10.348 12.8248 11.0215 12.8248 12.2886C12.8248 13.1169 13.1925 13.9486 13.6983 14.4674C13.8966 14.9861 13.5594 15.1834 13.4865 15.2115C12.4647 15.5822 11.2625 16.2702 11.2625 16.9386V18.0288H17.9879V16.9395C17.9879 16.2507 16.7831 15.5669 15.7105 15.2115C15.6614 15.1953 15.3572 15.0584 15.5521 14.4674C16.0562 13.9486 16.4519 13.1127 16.4519 12.2886C16.4519 11.0215 15.6004 10.348 14.6252 10.348ZM26.8306 13.7241L26.54 15.3977L27.1483 15.5304L24.8184 25.4699L24.4744 25.3899C24.2855 25.5768 24.0545 25.7154 23.8011 25.7939C23.5476 25.8725 23.279 25.8888 23.018 25.8415L11.2896 23.8218L11.0498 24.8329C10.9999 25.0547 11.0384 25.2872 11.1572 25.4808C11.276 25.6744 11.4655 25.8136 11.6853 25.8687L24.8709 28.9786C25.0918 29.0287 25.3235 28.99 25.5164 28.8708C25.7093 28.7516 25.848 28.5614 25.9029 28.3408L28.9758 15.1043C29.0834 14.6485 28.8233 14.1765 28.3675 14.0677L26.8314 13.7224L26.8306 13.7241Z" fill="white"/>
</svg>
