<svg width="18" height="18" viewBox="0 0 18 18" fill="none" xmlns="http://www.w3.org/2000/svg">
<path d="M17 9.23562V9.23573V16.1705C17 16.3702 16.9196 16.565 16.7712 16.7111C16.6223 16.8577 16.4171 16.9427 16.2 16.9427H1.8C1.58285 16.9427 1.37767 16.8577 1.2288 16.7111C1.08045 16.565 1 16.3702 1 16.1705V9.23573V9.23563C0.999963 8.89154 1.07125 8.55065 1.20996 8.23369C1.34869 7.91669 1.55217 7.62981 1.80879 7.3911L1.80891 7.39099L8.44461 1.21652L8.44474 1.21639C8.59239 1.07896 8.79086 1 9 1C9.20914 1 9.40761 1.07896 9.55526 1.21639L9.55539 1.21652L16.1911 7.39099L16.1912 7.3911C16.4478 7.62981 16.6513 7.9167 16.79 8.23369C16.9287 8.55065 17 8.89154 17 9.23562Z" stroke="black" stroke-width="2" stroke-linecap="round" stroke-linejoin="round"/>
</svg>
