<svg width="505" height="256" viewBox="0 0 505 256" fill="none" xmlns="http://www.w3.org/2000/svg">
<path d="M280.677 198.375V230.343H275.342V233.836H280.677V255.229H380.476V235.737H373.087V231.498H380.476V225.139H383.765V222.216H379.862V198.375H280.677Z" fill="#F5F5F5"/>
<path d="M353.982 198.47V254.849H380.476V235.386H373.087V231.498L380.476 231.629V225.271L383.823 225.278L383.765 221.989L379.862 221.894V198.375L353.982 198.47Z" fill="#E0E0E0"/>
<path d="M355.868 233.352C355.868 233.55 337.816 233.703 315.554 233.703C293.292 233.703 275.225 233.55 275.225 233.352C275.225 233.155 293.277 232.994 315.554 232.994C337.831 232.994 355.868 233.155 355.868 233.352Z" fill="#E0E0E0"/>
<path d="M355.868 230.106C355.868 230.296 337.816 230.457 315.554 230.457C293.292 230.457 275.225 230.296 275.225 230.106C275.225 229.916 293.277 229.748 315.554 229.748C337.831 229.748 355.868 229.909 355.868 230.106Z" fill="#E0E0E0"/>
<path d="M361.072 221.368C361.072 221.565 343.02 221.719 320.75 221.719C298.481 221.719 280.429 221.565 280.429 221.368C280.429 221.171 298.481 221.01 320.75 221.01C343.02 221.01 361.072 221.171 361.072 221.368Z" fill="#E0E0E0"/>
<path d="M361.547 245.177C361.547 245.374 343.495 245.535 321.225 245.535C298.956 245.535 280.904 245.374 280.904 245.177C280.904 244.98 298.949 244.797 321.225 244.797C343.502 244.797 361.547 244.987 361.547 245.177Z" fill="#E0E0E0"/>
<path d="M112.432 102.443L73.6589 97.5039L67.6527 144.651L106.426 149.59L112.432 102.443Z" fill="white"/>
<path d="M112.434 102.445L73.6609 97.5059L69.1916 132.589L107.965 137.528L112.434 102.445Z" fill="#EBEBEB"/>
<path d="M93.2046 139.672C93.2046 139.738 88.1689 139.161 81.9859 138.371C75.8028 137.582 70.7964 136.91 70.8037 136.815C70.811 136.719 75.832 137.326 82.0224 138.108C88.2128 138.89 93.2119 139.599 93.2046 139.672Z" fill="#E0E0E0"/>
<path d="M80.2318 140.469C80.2318 140.534 78.0392 140.315 75.3496 139.979C73.72 139.822 72.1001 139.579 70.4967 139.248C72.1318 139.323 73.7615 139.486 75.3788 139.738C77.0084 139.894 78.6284 140.138 80.2318 140.469Z" fill="#E0E0E0"/>
<path d="M106.433 149.589C106.428 149.514 106.428 149.438 106.433 149.363C106.433 149.202 106.477 148.983 106.506 148.697C106.579 148.113 106.681 147.236 106.82 146.139C107.098 143.903 107.507 140.636 108.019 136.492C109.057 128.211 110.54 116.437 112.294 102.427L112.397 102.558L73.6612 97.6323L73.8147 97.5154C71.6221 114.954 69.5099 131.135 67.7851 144.663L67.6901 144.539L95.799 148.193L103.656 149.224L105.731 149.501L106.462 149.604L105.731 149.523L103.678 149.275L95.8428 148.325L67.6462 144.787H67.5366V144.678C69.2468 131.186 71.3079 114.961 73.5224 97.53V97.3984H73.6539L112.389 102.354H112.506V102.471C110.694 116.51 109.174 128.306 108.121 136.594C107.588 140.724 107.157 143.976 106.871 146.213C106.725 147.316 106.608 148.164 106.535 148.741L106.44 149.392C106.448 149.516 106.433 149.589 106.433 149.589Z" fill="#E0E0E0"/>
<path d="M55.9563 79.925L17.1859 84.8848L23.2168 132.028L61.9872 127.069L55.9563 79.925Z" fill="#F5F5F5"/>
<path d="M55.9617 79.9192L17.1913 84.8789L21.679 119.959L60.4494 115L55.9617 79.9192Z" fill="#E0E0E0"/>
<path d="M46.6999 120.785C46.6999 120.851 41.7009 121.553 35.5178 122.349C29.3347 123.146 24.3137 123.724 24.3064 123.65C24.2991 123.577 29.2982 122.876 35.4886 122.086C41.6789 121.297 46.6926 120.712 46.6999 120.785Z" fill="#E0E0E0"/>
<path d="M34.3776 124.812C32.777 125.144 31.1593 125.388 29.532 125.543C27.9147 125.795 26.2849 125.958 24.6499 126.033C26.2515 125.706 27.8688 125.462 29.4955 125.302C31.1128 125.051 32.7426 124.887 34.3776 124.812Z" fill="#E0E0E0"/>
<path d="M61.9968 127.063C61.9968 127.063 61.9968 126.983 61.9602 126.836C61.9237 126.69 61.9091 126.464 61.8652 126.171C61.7921 125.587 61.6752 124.71 61.529 123.621C61.2367 121.384 60.7981 118.117 60.2646 113.981L55.8795 79.9299L56.011 80.0322L17.2755 85.0094L17.3924 84.8632C19.585 102.294 21.6825 118.483 23.4074 132.011L23.2831 131.916L51.3335 128.371L59.2268 127.392L61.3024 127.143L62.0333 127.063L61.3024 127.165L59.2487 127.436L51.4212 128.466L23.2466 132.121H23.1369V132.011C21.3975 118.519 19.3146 102.301 17.0781 84.8705V84.7389H17.2097L55.9452 79.791H56.0622V79.908C57.8382 93.9551 59.3291 105.751 60.3743 114.046C60.8859 118.176 61.2951 121.435 61.5729 123.672C61.7117 124.775 61.814 125.623 61.8871 126.208C61.8871 126.486 61.9456 126.698 61.9602 126.851L61.9968 127.063Z" fill="#E0E0E0"/>
<path d="M91.9707 74.1762L53.9264 65.2109L43.0249 111.472L81.0692 120.437L91.9707 74.1762Z" fill="white"/>
<path d="M91.9695 74.1723L53.9252 65.207L45.8132 99.6304L83.8575 108.596L91.9695 74.1723Z" fill="#EBEBEB"/>
<path d="M68.9546 109.185C68.9546 109.251 64.0067 108.155 57.9406 106.722C51.8744 105.29 46.9777 104.077 46.9777 104.003C46.9777 103.93 51.9329 105.034 57.999 106.466C64.0652 107.899 68.9765 109.112 68.9546 109.185Z" fill="#E0E0E0"/>
<path d="M55.9745 108.624C54.3629 108.371 52.7652 108.037 51.1874 107.623C49.5853 107.29 48.002 106.873 46.4441 106.373C48.0573 106.627 49.6554 106.968 51.2312 107.396C52.8334 107.719 54.4168 108.129 55.9745 108.624Z" fill="#E0E0E0"/>
<path d="M81.0795 120.435L81.1234 120.208C81.1234 120.055 81.2038 119.843 81.2695 119.558C81.4011 118.98 81.5984 118.14 81.8469 117.044C82.3585 114.851 83.104 111.643 84.0395 107.579C85.9397 99.4519 88.6366 87.897 91.8524 74.1422L91.9401 74.2884L53.9062 65.3354L54.0596 65.2404C50.0253 82.3425 46.2687 98.2533 43.1406 111.496L43.0602 111.365L70.6355 117.943L78.3388 119.784L80.3779 120.281L81.1088 120.457L80.4217 120.311L78.3753 119.821L70.6794 118.038L43.009 111.577H42.8994V111.467L53.7746 65.2038V65.0723H53.9062L91.9474 74.0472H92.057V74.1642C88.7901 87.9336 86.0421 99.5031 84.1126 107.645C83.1479 111.694 82.3805 114.88 81.8615 117.073C81.5984 118.155 81.4011 118.988 81.2622 119.558C81.1891 119.828 81.138 120.04 81.1014 120.186L81.0795 120.435Z" fill="#E0E0E0"/>
<path d="M465.796 99.9791L425.558 115.377L444.283 164.312L484.522 148.914L465.796 99.9791Z" fill="white"/>
<path d="M465.792 99.981L425.554 115.379L439.489 151.795L479.728 136.397L465.792 99.981Z" fill="#EBEBEB"/>
<path d="M466.506 146.132C466.506 146.213 461.39 148.259 454.936 150.722C448.483 153.185 443.286 155.107 443.242 155.034C443.199 154.961 448.358 152.907 454.812 150.444C461.265 147.981 466.477 146.074 466.506 146.132Z" fill="#E0E0E0"/>
<path d="M454.315 153.682C451.019 155.149 447.648 156.44 444.214 157.548C445.843 156.77 447.511 156.079 449.213 155.48C450.881 154.791 452.584 154.191 454.315 153.682Z" fill="#E0E0E0"/>
<path d="M484.521 148.894C484.521 148.894 484.521 148.814 484.426 148.66L484.156 147.981C483.922 147.374 483.578 146.519 483.125 145.328C482.234 143.011 480.933 139.627 479.266 135.337C446.531 115.165 451.567 106.782 465.672 100.007L465.841 100.08L425.643 115.494L425.731 115.311C432.645 133.407 439.084 150.239 444.434 164.279L444.28 164.213L473.515 153.104C477.03 151.766 479.793 150.721 481.686 150.012L483.842 149.201L484.572 148.923L483.842 149.216L481.664 150.012L473.544 153.155L444.309 164.41L444.192 164.454L444.149 164.337L425.424 115.435L425.373 115.297L425.504 115.245L465.745 99.8974L465.862 99.8535L465.906 99.9705C471.461 114.588 476.138 126.808 479.405 135.424C481.035 139.715 482.329 143.098 483.198 145.415L484.185 148.054L484.441 148.726L484.521 148.894Z" fill="#E0E0E0"/>
<path d="M494.424 255.618C494.424 255.72 388.574 255.808 258.035 255.808C127.496 255.808 21.6167 255.72 21.6167 255.618C21.6167 255.515 127.445 255.428 258.035 255.428C388.625 255.428 494.424 255.508 494.424 255.618Z" fill="#263238"/>
<path d="M260.454 147.038L277.929 127.627L291.691 126.545L293.781 141.433L282.65 146.41L270.496 159.207L263.122 160.888L260.454 147.038Z" fill="#EFBE9D"/>
<path d="M292.851 50.1555L265.458 179.477L416.422 211.455L443.815 82.1337L292.851 50.1555Z" fill="white"/>
<path d="M416.405 211.437L443.637 82.0745L443.761 82.2645L292.802 50.3259L293.029 50.1798C283.082 97.1009 273.712 141.325 265.621 179.498L265.49 179.301L416.412 211.459L265.417 179.659H265.256V179.491C273.339 141.318 282.694 97.0936 292.627 50.1724L292.663 49.9824H292.846L443.827 81.9648H443.988L443.951 82.1256C427.368 160.021 416.69 210.121 416.405 211.437Z" fill="#263238"/>
<path d="M298.39 57.7243L273.59 174.805L410.89 203.889L435.691 86.8083L298.39 57.7243Z" fill="#EBEBEB"/>
<path d="M287.73 115.915L303.225 119.134L318.711 122.396L349.683 128.923L380.635 135.541L396.111 138.852L411.578 142.206L396.082 138.99L380.596 135.728L349.624 129.201L318.672 122.582L303.196 119.272L287.73 115.915Z" fill="#EBEBEB"/>
<path d="M289.789 106.218L305.284 109.437L320.771 112.699L351.742 119.226L382.694 125.844L398.17 129.155L413.637 132.509L398.141 129.293L382.655 126.031L351.683 119.504L320.731 112.885L305.255 109.574L289.789 106.218Z" fill="#EBEBEB"/>
<path d="M291.847 96.5215L307.343 99.7376L322.829 102.999L353.801 109.526L384.753 116.145L400.229 119.456L415.695 122.813L400.2 119.593L384.714 116.332L353.742 109.805L322.79 103.186L307.314 99.8752L291.847 96.5215Z" fill="#EBEBEB"/>
<path d="M293.906 86.8223L309.402 90.0383L324.888 93.3003L355.86 99.8272L386.812 106.446L402.288 109.757L417.754 113.113L402.259 109.894L386.773 106.632L355.8 100.108L324.849 93.4868L309.373 90.1759L293.906 86.8223Z" fill="#EBEBEB"/>
<path d="M295.966 77.1231L311.461 80.3422L326.948 83.601L357.919 90.1279L388.871 96.7466L404.347 100.057L419.813 103.414L404.318 100.195L388.832 96.9331L357.859 90.4092L326.908 83.7876L311.432 80.4767L295.966 77.1231Z" fill="#EBEBEB"/>
<path d="M298.024 67.4258L313.52 70.6449L329.006 73.9068L359.978 80.4307L390.93 87.0493L406.405 90.3632L421.872 93.7168L406.377 90.4977L390.89 87.2389L359.918 80.712L328.967 74.0903L313.491 70.7795L298.024 67.4258Z" fill="#EBEBEB"/>
<path d="M285.669 125.623L301.165 128.842L316.651 132.104L347.623 138.628L378.575 145.25L394.05 148.56L409.517 151.914L394.022 148.695L378.535 145.436L347.563 138.909L316.612 132.288L301.136 128.977L285.669 125.623Z" fill="#EBEBEB"/>
<path d="M283.609 135.332L299.104 138.551L314.591 141.81L345.562 148.337L376.514 154.956L391.99 158.266L407.456 161.623L391.961 158.404L376.475 155.142L345.503 148.618L314.551 141.997L299.075 138.686L283.609 135.332Z" fill="#EBEBEB"/>
<path d="M281.548 145.038L297.044 148.257L312.53 151.519L343.501 158.046L374.454 164.665L389.929 167.975L405.396 171.329L389.9 168.113L374.414 164.851L343.442 158.324L312.49 151.706L297.014 148.395L281.548 145.038Z" fill="#EBEBEB"/>
<path d="M279.487 154.746L294.983 157.965L310.469 161.227L341.441 167.751L372.393 174.373L387.868 177.684L403.335 181.037L387.839 177.821L372.353 174.559L341.381 168.032L310.429 161.414L294.953 158.103L279.487 154.746Z" fill="#EBEBEB"/>
<path d="M409.544 151.773L285.699 125.482L283.638 135.191L407.483 161.481L409.544 151.773Z" fill="#DBDBDB"/>
<path d="M372.774 72.2024L370.464 83.4647L368.699 91.9127L357.359 145.573L353.726 162.444L351.906 170.88L350.039 179.303L351.757 170.848L353.521 162.4L357.053 145.508L368.494 91.8693L370.314 83.4329L372.774 72.2024Z" fill="#EBEBEB"/>
<path d="M362.201 69.9563L359.887 81.2179L358.123 89.666L346.786 143.327L343.15 160.197L341.333 168.634L339.465 177.057L341.18 168.602L342.948 160.154L346.48 143.262L357.921 89.6232L359.74 81.1868L362.201 69.9563Z" fill="#EBEBEB"/>
<path d="M351.627 67.7121L349.313 78.9738L347.549 87.4219L336.209 141.082L332.576 157.953L330.756 166.389L328.892 174.813L330.607 166.358L332.371 157.909L335.906 141.018L347.344 87.3784L349.164 78.942L351.627 67.7121Z" fill="#EBEBEB"/>
<path d="M341.051 65.468L338.737 76.7297L336.972 85.1777L325.635 138.839L322 155.709L320.183 164.146L318.315 172.569L320.033 164.114L321.798 155.666L325.33 138.774L336.771 85.1349L338.59 76.6985L341.051 65.468Z" fill="#EBEBEB"/>
<path d="M404.501 78.9368L402.187 90.1984L400.422 98.6465L389.085 152.307L385.45 169.178L383.63 177.614L381.765 186.038L383.48 177.582L385.245 169.134L388.78 152.242L400.221 98.6036L402.037 90.1666L404.501 78.9368Z" fill="#EBEBEB"/>
<path d="M393.925 76.6907L391.614 87.953L389.846 96.4004L378.509 150.061L374.873 166.931L373.057 175.369L371.189 183.791L372.907 175.337L374.671 166.889L378.203 149.996L389.644 96.3575L391.464 87.9212L393.925 76.6907Z" fill="#EBEBEB"/>
<path d="M383.351 74.4465L381.037 85.7082L379.272 94.1562L367.935 147.817L364.299 164.687L362.48 173.124L360.615 181.547L362.33 173.092L364.097 164.645L367.629 147.752L379.07 94.1134L380.89 85.677L383.351 74.4465Z" fill="#EBEBEB"/>
<path d="M415.074 81.1828L412.76 92.4445L410.996 100.893L399.659 154.553L396.023 171.424L394.206 179.861L392.338 188.284L394.056 179.829L395.821 171.381L399.353 154.488L410.794 100.85L412.613 92.4134L415.074 81.1828Z" fill="#EBEBEB"/>
<path d="M404.501 78.9368L402.187 90.1984L400.422 98.6465L389.085 152.307L385.45 169.178L383.63 177.614L381.765 186.038L383.48 177.582L385.245 169.134L388.78 152.242L400.221 98.6036L402.037 90.1666L404.501 78.9368Z" fill="#EBEBEB"/>
<path d="M330.478 63.2219L328.164 74.4836L326.399 82.9316L315.062 136.592L311.427 153.463L309.607 161.899L307.742 170.323L309.457 161.867L311.222 153.419L314.757 136.528L326.198 82.8888L328.014 74.4518L330.478 63.2219Z" fill="#EBEBEB"/>
<path d="M319.901 60.9778L317.59 72.2401L315.823 80.6875L304.486 134.348L300.853 151.219L299.033 159.656L297.165 168.079L298.884 159.624L300.648 151.176L304.18 134.283L315.621 80.6446L317.441 72.2083L319.901 60.9778Z" fill="#EBEBEB"/>
<path d="M309.328 58.7336L307.014 69.9953L305.249 78.4433L293.912 132.104L290.277 148.974L288.457 157.411L286.592 165.834L288.307 157.379L290.075 148.932L293.606 132.039L305.047 78.4005L306.864 69.9635L309.328 58.7336Z" fill="#EBEBEB"/>
<path d="M293.633 95.9982L343.375 106.558L352.894 69.5907L299.95 58.3516L293.633 95.9982Z" fill="#EBEBEB"/>
<path d="M318.174 97.6283L298.057 93.3579L303.172 62.8086L324.6 67.3575L318.174 97.6283ZM298.416 93.1145L317.933 97.2577L324.229 67.5983L303.437 63.1845L298.416 93.1145Z" fill="#DBDBDB"/>
<path d="M318.484 87.221L316.396 86.7777L318.716 75.8496L320.804 76.2929L318.484 87.221ZM316.767 86.5368L318.243 86.8504L320.434 76.5338L318.957 76.2203L316.767 86.5368Z" fill="#DBDBDB"/>
<path d="M340.403 102.344L320.286 98.0736L326.712 67.8027L348.141 72.3516L340.403 102.344ZM320.657 97.8327L340.174 101.976L347.755 72.5892L326.962 68.1754L320.657 97.8327Z" fill="#DBDBDB"/>
<path d="M326.318 88.8851L324.23 88.4418L326.55 77.5137L328.638 77.957L326.318 88.8851ZM324.6 88.2009L326.077 88.5144L328.267 78.1979L326.79 77.8843L324.6 88.2009Z" fill="#DBDBDB"/>
<path d="M336.849 189.378C370.569 196.537 398.29 200.526 398.765 198.288C399.24 196.051 372.289 188.434 338.569 181.276C304.849 174.117 277.129 170.128 276.654 172.366C276.179 174.603 303.129 182.22 336.849 189.378Z" fill="#EBEBEB"/>
<path d="M339.399 176.283L338.925 175.879L341.184 173.233L366.348 178.575L367.34 181.911L366.741 182.087L365.855 179.11L341.418 173.922L339.399 176.283Z" fill="#263238"/>
<path d="M343.843 177.188L343.314 176.852L345.082 174.061L362.45 177.748L362.932 181.017L362.315 181.11L361.895 178.269L345.378 174.763L343.843 177.188Z" fill="#263238"/>
<path d="M396.241 188.351L395.355 185.373L370.918 180.186L368.899 182.547L368.426 182.143L370.684 179.497L395.849 184.839L396.841 188.175L396.241 188.351Z" fill="#263238"/>
<path d="M391.815 187.373L391.395 184.533L374.878 181.027L373.344 183.452L372.814 183.116L374.583 180.325L391.95 184.012L392.432 187.281L391.815 187.373Z" fill="#263238"/>
<path d="M398.334 187.96L337.802 175.109L337.467 176.687L397.999 189.537L398.334 187.96Z" fill="#455A64"/>
<path d="M276.541 163.698L292.288 166.964L308.023 170.275L339.497 176.903L370.946 183.633L386.672 187L402.388 190.413L386.64 187.15L370.903 183.835L339.432 177.208L307.98 170.477L292.257 167.111L276.541 163.698Z" fill="#263238"/>
<path d="M411.447 101.673L362.524 91.2871L361.725 95.0511L410.648 105.437L411.447 101.673Z" fill="#FFC727"/>
<path d="M385.466 107.203L384.014 106.895L380.117 125.253L381.569 125.561L385.466 107.203Z" fill="#C7C7C7"/>
<path d="M384.934 125.438L377.082 123.771L374.349 134.66L383.018 136.5L384.934 125.438ZM377.298 133.94L376.481 133.767L378.205 125.649L379.021 125.822L377.298 133.94ZM379.353 134.376L378.539 134.204L380.263 126.086L381.076 126.258L379.353 134.376ZM381.407 134.813L380.594 134.64L382.317 126.522L383.131 126.694L381.407 134.813Z" fill="#C7C7C7"/>
<path d="M385.926 109.189L382.878 108.542L384.986 97.1055L388.646 97.8824L385.926 109.189Z" fill="#263238"/>
<path d="M386.398 99.4728C386.671 99.5309 386.94 99.3562 386.998 99.0826C387.056 98.809 386.882 98.5402 386.608 98.4821C386.335 98.424 386.066 98.5987 386.008 98.8723C385.95 99.1459 386.124 99.4147 386.398 99.4728Z" fill="#FFC727"/>
<path d="M400.837 110.467L399.385 110.158L396.248 124.933L397.701 125.241L400.837 110.467Z" fill="#C7C7C7"/>
<path d="M400.228 130.24C399.573 133.322 396.963 135.73 394.813 135.274C392.664 134.818 391.253 131.556 391.908 128.474C392.562 125.392 395.347 124.392 397.047 124.753C398.747 125.113 400.881 127.164 400.228 130.24Z" fill="#C7C7C7"/>
<path d="M401.297 112.453L398.249 111.805L400.357 100.369L404.017 101.146L401.297 112.453Z" fill="#263238"/>
<path d="M401.769 102.736C402.042 102.795 402.311 102.62 402.369 102.346C402.427 102.073 402.253 101.804 401.979 101.746C401.705 101.688 401.437 101.862 401.378 102.136C401.32 102.41 401.495 102.678 401.769 102.736Z" fill="#FFC727"/>
<path d="M358.915 108.154L355.085 126.195L366.117 128.537L371.294 104.149L369.007 103.663L367.66 110.011L358.915 108.154ZM359.942 110.993C359.969 110.862 360.034 110.743 360.129 110.65C360.224 110.557 360.344 110.494 360.475 110.469C360.606 110.444 360.741 110.459 360.863 110.511C360.986 110.563 361.09 110.65 361.163 110.762C361.235 110.873 361.273 111.004 361.272 111.137C361.27 111.27 361.229 111.399 361.154 111.509C361.079 111.619 360.973 111.704 360.849 111.753C360.726 111.803 360.59 111.814 360.46 111.787C360.286 111.75 360.134 111.645 360.037 111.497C359.94 111.348 359.906 111.167 359.942 110.993Z" fill="#C7C7C7"/>
<path d="M368.235 105.434L371.283 106.082L374.003 94.775L370.343 93.998L368.235 105.434Z" fill="#263238"/>
<path d="M371.755 96.3634C372.028 96.4215 372.297 96.2468 372.355 95.9732C372.413 95.6997 372.239 95.4308 371.965 95.3727C371.691 95.3147 371.423 95.4893 371.365 95.7629C371.306 96.0365 371.481 96.3053 371.755 96.3634Z" fill="#FFC727"/>
<path d="M381.491 79.4334L378.265 94.627L402.017 99.6691L405.242 84.4756L381.491 79.4334Z" fill="#FFC727"/>
<path opacity="0.2" d="M381.491 79.4334L378.265 94.627L402.017 99.6691L405.242 84.4756L381.491 79.4334Z" fill="black"/>
<path d="M410.356 91.3834C409.172 91.1322 407.863 91.9119 406.756 91.6769L403.845 91.059L403.414 93.0923L406.324 93.7102C407.431 93.9452 408.31 95.1958 409.493 95.447C410.894 95.7443 412.105 95.1835 412.371 93.9329C412.636 92.6823 411.756 91.6807 410.356 91.3834ZM410.084 94.2432C409.933 94.2116 409.794 94.1358 409.685 94.0252C409.577 93.9147 409.504 93.7744 409.475 93.6223C409.447 93.4701 409.464 93.3129 409.525 93.1705C409.586 93.0282 409.688 92.9072 409.818 92.8228C409.947 92.7385 410.099 92.6946 410.254 92.6967C410.409 92.6989 410.56 92.747 410.687 92.8349C410.815 92.9228 410.913 93.0466 410.97 93.1905C411.027 93.3345 411.04 93.4921 411.007 93.6434C410.963 93.8435 410.842 94.0184 410.671 94.1307C410.5 94.243 410.291 94.2838 410.09 94.2445L410.084 94.2432Z" fill="#FFC727"/>
<g opacity="0.2">
<path opacity="0.2" d="M410.356 91.3814C409.172 91.1302 407.863 91.9099 406.756 91.6749L403.845 91.057L403.413 93.0904L406.324 93.7083C407.431 93.9433 408.31 95.1938 409.493 95.445C410.893 95.7423 412.105 95.1816 412.371 93.931C412.636 92.6804 411.756 91.6787 410.356 91.3814ZM410.084 94.2412C409.932 94.2097 409.794 94.1338 409.685 94.0233C409.577 93.9127 409.504 93.7725 409.475 93.6203C409.447 93.4681 409.464 93.3109 409.525 93.1686C409.586 93.0263 409.688 92.9052 409.817 92.8209C409.947 92.7365 410.099 92.6926 410.254 92.6948C410.409 92.6969 410.559 92.745 410.687 92.8329C410.814 92.9208 410.913 93.0446 410.97 93.1886C411.027 93.3325 411.04 93.4902 411.007 93.6415C410.963 93.8415 410.842 94.0164 410.671 94.1287C410.5 94.241 410.291 94.2819 410.09 94.2425L410.084 94.2412Z" fill="black"/>
</g>
<path d="M386.236 88.6123C386.236 88.6123 381.867 93.7976 381.09 94.4634C380.312 95.1293 378.849 94.7515 377.935 94.5575L370.462 92.9711C369.545 92.7763 368.057 92.5307 367.617 91.6035C367.178 90.6763 365.292 84.166 365.292 84.166L386.236 88.6123Z" fill="#455A64"/>
<path d="M320.782 107.809C319.078 105.299 311.849 103.918 308.035 106.7C302.779 110.521 306.398 121.02 313.651 120.131C320.905 119.242 322.088 109.741 320.782 107.809Z" fill="#263238"/>
<path d="M306.525 116.007C305.693 114.012 305.212 111.852 305.423 109.804C305.497 108.808 305.876 107.859 306.509 107.086C307.142 106.314 307.998 105.755 308.96 105.487C309.947 105.174 310.972 104.995 312.006 104.954C313.046 104.882 314.09 104.928 315.119 105.091C317.23 105.414 319.198 106.359 320.77 107.805C319.508 106.016 317.465 104.787 315.287 104.283C314.193 104.027 313.07 103.916 311.947 103.954C310.815 103.975 309.691 104.156 308.609 104.492C307.476 104.85 306.474 105.536 305.73 106.463C305.022 107.411 304.628 108.555 304.6 109.738C304.532 112.03 305.341 114.193 306.525 116.007Z" fill="#263238"/>
<path d="M326.185 123.556C330.042 130.871 332.644 139.706 334.532 142.114C335.518 143.371 352.643 148.62 354.539 149.432C357.431 150.666 349.88 165.219 347.968 164.216C346.72 163.564 327.256 156.534 324.449 151.573C322.294 147.757 320.752 132.954 320.851 126.616C320.967 119.569 324.648 120.638 326.185 123.556Z" fill="#EB9481"/>
<path d="M355.288 166.537C351.835 165.765 348.49 164.571 345.328 162.982C343.605 162.07 347.58 147.86 349.578 147.722C355.742 147.282 363.473 150.17 365.687 152.867C367.901 155.564 358.753 167.27 355.288 166.537Z" fill="#EB9481"/>
<path d="M403.578 150.824C399.914 152.069 395.684 152.066 391.853 152.32C389.754 152.456 387.652 152.555 385.549 152.618C384.584 152.649 383.622 152.665 382.66 152.679C382.076 152.689 381.132 152.862 380.58 152.576C380.516 152.546 380.463 152.497 380.428 152.437C380.393 152.376 380.377 152.307 380.383 152.237C380.388 152.197 380.396 152.159 380.408 152.121C380.458 151.777 390.549 151.011 394.04 148.112C395.807 146.637 397.646 143.982 396.76 141.564C396.229 140.122 394.65 139.579 393.228 139.67C391.744 139.767 389.923 141.058 391.107 141.987C391.284 141.782 391.695 141.971 391.545 142.243C391.129 142.877 389.554 142.977 388.966 141.897C388.019 140.172 389.413 138.029 390.656 137.111C394.135 134.526 400.94 136.022 402.322 140.712C403.859 140.003 405.524 140.801 405.849 142.461C407.34 141.579 408.873 143.269 408.84 144.927C408.806 147.86 406.125 149.965 403.578 150.824Z" fill="#FFC727"/>
<path d="M389.026 136.857C388.796 136.431 385.882 136.49 386.269 137.936C386.655 139.383 389.376 137.478 389.026 136.857Z" fill="#FFC727"/>
<path d="M386.747 139.989C386.405 139.779 384.81 141.134 385.556 141.791C386.302 142.448 387.032 140.165 386.747 139.989Z" fill="#FFC727"/>
<path d="M402.887 139.733C403.279 139.65 403.501 137.565 402.508 137.604C401.516 137.643 402.558 139.794 402.887 139.733Z" fill="#FFC727"/>
<path d="M386.021 139.027C385.917 138.807 385.142 138.892 385.329 139.363C385.517 139.834 386.146 139.297 386.021 139.027Z" fill="#FFC727"/>
<path d="M403.112 136.957C403.354 136.948 403.591 136.205 403.073 136.191C402.555 136.177 402.832 136.968 403.112 136.957Z" fill="#FFC727"/>
<path d="M373.513 154.115L344.995 157.212L344.748 153.603L373.34 151.531L373.513 154.115Z" fill="#A6A6A6"/>
<path d="M406.917 149.245C406.917 149.245 406.101 156.552 403.455 156.735L389.325 157.697L375.194 158.66C372.549 158.84 370.748 151.712 370.748 151.712L406.917 149.245Z" fill="#455A64"/>
<path d="M351.239 147.708C351.239 147.708 366.73 144.96 365.115 151.059C364.634 152.874 360.498 159.742 359.103 158.938C357.301 157.9 358.492 154.712 359.557 152.826C359.557 152.826 354.856 154.47 352.734 151.537C351.926 150.404 351.412 149.088 351.239 147.708Z" fill="#EB9481"/>
<path d="M365.224 150.546C365.12 151.279 364.909 151.993 364.599 152.666C364.304 153.345 363.966 154.004 363.585 154.639C362.839 155.924 361.982 157.14 361.024 158.275C360.768 158.573 360.472 158.832 360.144 159.047C359.951 159.173 359.732 159.254 359.503 159.282C359.38 159.301 359.254 159.298 359.131 159.273C359.01 159.248 358.895 159.203 358.789 159.14C358.407 158.911 358.12 158.554 357.977 158.133C357.855 157.745 357.801 157.339 357.816 156.933C357.863 156.165 358.041 155.41 358.341 154.702C358.621 154.003 358.952 153.325 359.333 152.676L359.645 153.043C359.101 153.21 358.541 153.326 357.974 153.388C357.413 153.453 356.847 153.463 356.285 153.415C355.723 153.361 355.173 153.226 354.651 153.014C354.128 152.803 353.652 152.494 353.246 152.103C353.683 152.426 354.17 152.676 354.688 152.84C355.205 152.994 355.741 153.077 356.281 153.086C356.824 153.103 357.368 153.064 357.903 152.97C358.43 152.88 358.947 152.742 359.448 152.556L360.063 152.323L359.76 152.923C359.421 153.557 359.124 154.214 358.873 154.889C358.611 155.541 358.457 156.231 358.417 156.933C358.395 157.593 358.579 158.309 359.072 158.586C359.485 158.869 360.103 158.352 360.572 157.847C361.06 157.314 361.52 156.755 361.949 156.174C362.392 155.594 362.835 155.011 363.233 154.402C364.019 153.211 364.837 151.965 365.224 150.546Z" fill="#263238"/>
<path d="M361.445 149.413C359.736 150.009 361.417 151.682 361.417 151.682C361.417 151.682 358.417 149.857 356.892 151.153C355.425 152.407 357.528 154.359 357.678 154.499C357.516 154.404 354.715 152.8 353.318 154.261C351.865 155.78 354.313 157.374 354.473 157.478C354.292 157.439 351.918 156.913 351.11 158.266C349.719 160.588 355.756 162.09 356.808 164.016C356.808 164.016 355.113 166.414 355.039 166.494C355.039 166.494 359.389 167.795 361.903 166.235C362.275 166.016 362.56 165.676 362.71 165.271C362.86 164.866 362.866 164.422 362.726 164.013C362.726 164.013 364.514 164.713 365.649 163.598C366.23 163.025 365.831 161.582 365.831 161.582C365.831 161.582 367.286 162.086 368.235 161.032C368.996 160.19 368.476 158.875 368.476 158.875C368.476 158.875 370.108 158.713 370.594 157.599C371.599 155.362 365.096 148.137 361.445 149.413Z" fill="#EB9481"/>
<path d="M368.421 158.654C368.424 158.66 368.43 158.664 368.436 158.666C368.443 158.668 368.45 158.667 368.456 158.663C368.461 158.66 368.466 158.654 368.467 158.648C368.469 158.641 368.468 158.634 368.465 158.628C366.908 155.742 364.314 153.028 361.333 151.583C361.234 151.537 361.115 151.674 361.215 151.747C364.002 153.821 366.306 155.882 368.421 158.654Z" fill="#263238"/>
<path d="M365.876 161.595C365.902 161.626 365.951 161.588 365.93 161.552C364.325 158.578 361.302 155.61 357.674 154.351C357.552 154.309 357.397 154.394 357.538 154.453C359.881 155.484 363.983 159.103 365.876 161.595Z" fill="#263238"/>
<path d="M354.188 157.479C357.62 158.818 360.275 161.123 362.664 163.886C362.695 163.922 362.743 163.874 362.726 163.836C361.923 162.167 360.224 160.569 358.787 159.433C357.478 158.355 355.909 157.64 354.236 157.359C354.168 157.347 354.115 157.448 354.188 157.479Z" fill="#263238"/>
<path d="M361.413 151.701C360.806 151.404 360.172 151.163 359.521 150.98C358.897 150.778 358.229 150.746 357.588 150.889C357.298 150.969 357.048 151.154 356.887 151.408C356.727 151.668 356.635 151.964 356.621 152.269C356.634 152.572 356.71 152.869 356.845 153.141C356.98 153.413 357.171 153.654 357.404 153.847L358.506 154.845L357.124 154.293C356.513 154.041 355.865 153.892 355.205 153.85C354.902 153.815 354.594 153.844 354.302 153.935C354.01 154.026 353.741 154.178 353.511 154.379C353.301 154.57 353.162 154.828 353.117 155.109C353.072 155.39 353.125 155.678 353.266 155.925C353.596 156.471 354.06 156.923 354.614 157.24L356.108 158.164L354.399 157.782C353.924 157.674 353.437 157.627 352.949 157.644C352.487 157.642 352.034 157.776 351.647 158.029C351.478 158.151 351.347 158.318 351.268 158.51C351.188 158.703 351.164 158.914 351.198 159.119C351.348 159.56 351.62 159.95 351.982 160.244C352.754 160.91 353.578 161.512 354.447 162.045C354.875 162.331 355.306 162.618 355.721 162.923C356.158 163.206 356.53 163.581 356.811 164.02C356.488 163.621 356.091 163.289 355.641 163.043C355.206 162.772 354.758 162.521 354.31 162.269C353.387 161.784 352.512 161.213 351.697 160.564C351.248 160.221 350.909 159.753 350.723 159.219C350.654 158.918 350.674 158.603 350.781 158.313C350.888 158.023 351.077 157.771 351.325 157.587C351.796 157.258 352.354 157.077 352.928 157.067C353.471 157.041 354.014 157.084 354.546 157.197L354.332 157.739C353.677 157.374 353.128 156.845 352.741 156.203C352.534 155.84 352.459 155.417 352.528 155.005C352.613 154.604 352.816 154.237 353.11 153.952C353.4 153.695 353.741 153.501 354.111 153.386C354.481 153.27 354.871 153.234 355.256 153.28C355.981 153.336 356.692 153.512 357.36 153.8L357.081 154.242C356.801 153.991 356.579 153.682 356.432 153.336C356.285 152.99 356.215 152.616 356.228 152.24C356.261 151.864 356.391 151.504 356.606 151.195C356.828 150.88 357.157 150.657 357.532 150.567C358.231 150.451 358.949 150.532 359.604 150.803C360.239 151.033 360.846 151.334 361.413 151.701Z" fill="#263238"/>
<path d="M348.354 146.113L342.283 162.428C342.283 162.428 325.017 155.567 322.805 151.582C320.593 147.598 320.453 133.598 320.449 126.557C320.445 119.517 324.632 118.201 327.577 124.677C330.523 131.153 333.418 140.683 334.406 141.417C335.394 142.15 348.354 146.113 348.354 146.113Z" fill="#FFC727"/>
<path opacity="0.1" d="M337.773 160.524C332.495 158.199 324.284 154.251 322.803 151.594C320.587 147.609 320.453 133.61 320.445 126.572C320.447 122.984 321.535 120.882 323.002 120.548C325.086 126.01 333.606 148.375 337.773 160.524Z" fill="black"/>
<path d="M350.488 146.402C350.465 146.302 345.567 144.338 345.567 144.338C345.567 144.338 339.26 151.471 339.054 152.443C338.847 153.415 337.179 160.778 337.236 160.886C337.293 160.994 343.062 163.893 343.222 163.755C343.383 163.616 345.486 155.742 345.636 155.138C345.787 154.534 350.488 146.402 350.488 146.402Z" fill="#FFC727"/>
<path opacity="0.2" d="M350.488 146.402C350.465 146.302 345.567 144.338 345.567 144.338C345.567 144.338 339.26 151.471 339.054 152.443C338.847 153.415 337.179 160.778 337.236 160.886C337.293 160.994 343.062 163.893 343.222 163.755C343.383 163.616 345.486 155.742 345.636 155.138C345.787 154.534 350.488 146.402 350.488 146.402Z" fill="black"/>
<path d="M324.67 173.968L325.259 153.134C325.259 153.134 329.642 150.55 330.538 144.464C331.023 141.186 327.616 128.362 325.333 123.64C323.19 119.213 316.771 118.065 311.826 122C295.858 134.709 287.595 154.319 283.569 165.243L324.67 173.968Z" fill="#FFC727"/>
<path d="M316.066 122.562C316.843 123.982 317.874 125.248 319.108 126.295C320.319 127.354 321.753 128.126 323.303 128.553C324.078 128.753 324.872 128.864 325.671 128.884L326.27 128.88L326.331 128.893C326.358 128.9 326.382 128.914 326.402 128.933C326.415 128.946 326.426 128.96 326.435 128.975L326.448 129.004C326.461 129.031 326.472 129.059 326.481 129.087L326.529 129.238C326.559 129.34 326.583 129.438 326.606 129.539C326.697 129.938 326.772 130.338 326.841 130.736C327.106 132.336 327.285 133.95 327.377 135.57C327.477 137.189 327.482 138.813 327.393 140.433C327.305 142.057 327.07 143.669 326.69 145.25C326.326 146.845 325.703 148.37 324.847 149.763C323.983 151.168 322.732 152.294 321.244 153.006L321.325 152.895L320.357 162.845L319.345 172.791L320.181 162.83L321.059 152.87L321.075 152.794L321.146 152.761C322.588 152.068 323.8 150.972 324.634 149.606C325.47 148.238 326.076 146.742 326.427 145.178C327.165 142.05 327.283 138.796 327.112 135.584C327.024 133.975 326.85 132.372 326.591 130.782C326.526 130.385 326.441 129.986 326.363 129.599C326.339 129.501 326.318 129.404 326.291 129.309C326.278 129.265 326.265 129.217 326.249 129.172C326.233 129.127 326.233 129.131 326.229 129.117C326.245 129.132 326.265 129.143 326.286 129.148L325.673 129.149C324.854 129.121 324.042 128.996 323.253 128.776C321.674 128.32 320.221 127.507 319.005 126.401C317.798 125.313 316.802 124.012 316.066 122.562Z" fill="#263238"/>
<path d="M317.245 135.717C317.207 135.898 317.115 136.064 316.982 136.194C316.849 136.323 316.681 136.41 316.499 136.444C316.317 136.478 316.128 136.457 315.958 136.384C315.787 136.311 315.643 136.189 315.541 136.033C315.44 135.878 315.388 135.696 315.39 135.51C315.393 135.325 315.45 135.144 315.555 134.991C315.66 134.838 315.808 134.72 315.98 134.651C316.152 134.583 316.341 134.566 316.523 134.605C316.766 134.657 316.979 134.803 317.114 135.011C317.25 135.22 317.297 135.474 317.245 135.717Z" fill="#263238"/>
<path d="M325.794 138.029C325.756 138.211 325.664 138.377 325.532 138.506C325.399 138.636 325.231 138.723 325.048 138.757C324.866 138.791 324.678 138.77 324.507 138.696C324.337 138.623 324.192 138.501 324.091 138.346C323.99 138.19 323.937 138.008 323.939 137.823C323.942 137.637 323.999 137.457 324.104 137.304C324.209 137.151 324.357 137.033 324.529 136.964C324.702 136.895 324.89 136.879 325.072 136.917C325.315 136.969 325.528 137.115 325.663 137.324C325.799 137.532 325.846 137.786 325.794 138.029Z" fill="#263238"/>
<path d="M314.567 142.311C314.529 142.492 314.437 142.658 314.304 142.787C314.172 142.917 314.003 143.004 313.821 143.038C313.639 143.072 313.45 143.051 313.28 142.978C313.109 142.904 312.965 142.782 312.863 142.627C312.762 142.471 312.71 142.289 312.712 142.104C312.715 141.918 312.772 141.738 312.877 141.585C312.982 141.432 313.13 141.314 313.302 141.245C313.474 141.176 313.663 141.16 313.845 141.199C314.088 141.25 314.301 141.396 314.436 141.605C314.572 141.814 314.619 142.067 314.567 142.311Z" fill="#263238"/>
<path d="M309.952 149.885C309.914 150.066 309.822 150.232 309.689 150.362C309.557 150.491 309.388 150.578 309.206 150.612C309.024 150.646 308.835 150.625 308.665 150.552C308.494 150.479 308.35 150.357 308.249 150.201C308.147 150.046 308.095 149.864 308.097 149.678C308.1 149.493 308.157 149.312 308.262 149.159C308.367 149.006 308.515 148.888 308.687 148.819C308.859 148.75 309.048 148.734 309.23 148.773C309.473 148.824 309.686 148.971 309.821 149.179C309.957 149.388 310.004 149.642 309.952 149.885Z" fill="#263238"/>
<path d="M307.948 157.883C307.909 158.064 307.818 158.23 307.685 158.36C307.552 158.489 307.384 158.576 307.202 158.61C307.019 158.644 306.831 158.623 306.66 158.55C306.49 158.477 306.345 158.355 306.244 158.199C306.143 158.044 306.09 157.862 306.093 157.676C306.095 157.491 306.152 157.31 306.257 157.157C306.362 157.004 306.51 156.886 306.683 156.817C306.855 156.749 307.044 156.732 307.225 156.771C307.468 156.823 307.681 156.969 307.817 157.177C307.952 157.386 307.999 157.64 307.948 157.883Z" fill="#263238"/>
<path d="M323.759 144.984C323.72 145.166 323.629 145.332 323.496 145.461C323.363 145.591 323.195 145.678 323.012 145.712C322.83 145.746 322.642 145.725 322.471 145.651C322.301 145.578 322.156 145.456 322.055 145.301C321.954 145.145 321.901 144.963 321.904 144.778C321.906 144.592 321.963 144.412 322.068 144.259C322.173 144.106 322.321 143.988 322.494 143.919C322.666 143.85 322.855 143.834 323.036 143.872C323.279 143.924 323.492 144.07 323.628 144.279C323.763 144.487 323.81 144.741 323.759 144.984Z" fill="#263238"/>
<path d="M317.557 159.746C317.519 159.928 317.427 160.094 317.295 160.223C317.162 160.352 316.994 160.44 316.811 160.473C316.629 160.507 316.441 160.486 316.27 160.413C316.1 160.34 315.955 160.218 315.854 160.062C315.753 159.907 315.7 159.725 315.702 159.539C315.705 159.354 315.762 159.173 315.867 159.021C315.972 158.868 316.12 158.749 316.292 158.681C316.465 158.612 316.653 158.596 316.835 158.634C317.078 158.686 317.291 158.832 317.426 159.041C317.562 159.249 317.609 159.503 317.557 159.746Z" fill="#263238"/>
<path d="M305.637 166.704C306.139 166.811 306.632 166.491 306.738 165.989C306.845 165.487 306.524 164.995 306.023 164.888C305.521 164.782 305.028 165.102 304.922 165.603C304.815 166.105 305.136 166.598 305.637 166.704Z" fill="#263238"/>
<path d="M316.348 167.85C316.31 168.031 316.218 168.197 316.085 168.327C315.953 168.456 315.784 168.543 315.602 168.577C315.42 168.611 315.231 168.59 315.061 168.517C314.89 168.444 314.746 168.321 314.645 168.166C314.543 168.01 314.491 167.828 314.493 167.643C314.496 167.458 314.553 167.277 314.658 167.124C314.763 166.971 314.911 166.853 315.083 166.784C315.255 166.715 315.444 166.699 315.626 166.738C315.869 166.789 316.082 166.936 316.217 167.144C316.353 167.353 316.4 167.606 316.348 167.85Z" fill="#263238"/>
<path d="M319.381 152.209C319.342 152.391 319.251 152.556 319.118 152.686C318.985 152.815 318.817 152.903 318.635 152.936C318.452 152.97 318.264 152.949 318.094 152.876C317.923 152.803 317.778 152.681 317.677 152.525C317.576 152.37 317.523 152.188 317.526 152.002C317.528 151.817 317.586 151.636 317.691 151.483C317.796 151.331 317.944 151.212 318.116 151.143C318.288 151.075 318.477 151.059 318.658 151.097C318.902 151.149 319.114 151.295 319.25 151.503C319.385 151.712 319.432 151.966 319.381 152.209Z" fill="#263238"/>
<path d="M326.516 121.067C326.516 121.067 326.558 126.892 325.484 126.938C322.216 127.098 318.797 122.461 318.629 121.745C318.589 121.56 319.051 117.063 319.408 113.563C319.642 111.316 319.843 109.482 319.843 109.482L327.94 114.614L326.601 120.635L326.516 121.067Z" fill="#EB9481"/>
<path d="M327.952 114.614L326.614 120.635C324.985 120.027 323.503 119.084 322.263 117.865C321.024 116.647 320.055 115.181 319.42 113.563C319.654 111.316 319.855 109.482 319.855 109.482L320.878 110.083L327.952 114.614Z" fill="#263238"/>
<path d="M337.029 107.157C336.019 117.938 329.448 118.547 327.124 118.325C325.012 118.126 317.855 117.175 317.747 106.349C317.639 95.522 322.973 92.5833 327.825 92.7889C332.677 92.9944 338.058 96.38 337.029 107.157Z" fill="#EB9481"/>
<path d="M335.301 105.936C335.064 105.858 334.832 105.767 334.604 105.664C334.346 105.602 334.115 105.458 333.947 105.253C333.907 105.177 333.893 105.091 333.907 105.007C333.921 104.923 333.962 104.845 334.024 104.787C334.165 104.691 334.33 104.634 334.501 104.622C334.672 104.611 334.843 104.645 334.996 104.721C335.328 104.828 335.608 105.054 335.782 105.355C335.819 105.426 335.835 105.507 335.826 105.587C335.818 105.668 335.786 105.743 335.735 105.806C335.683 105.868 335.615 105.913 335.537 105.937C335.46 105.96 335.378 105.96 335.301 105.936Z" fill="#263238"/>
<path d="M327.982 104.87C328.231 104.86 328.479 104.837 328.726 104.801C328.992 104.813 329.255 104.738 329.474 104.586C329.533 104.525 329.57 104.445 329.579 104.361C329.589 104.276 329.57 104.191 329.526 104.118C329.417 103.987 329.276 103.888 329.116 103.83C328.957 103.772 328.785 103.757 328.618 103.788C328.269 103.798 327.937 103.936 327.685 104.178C327.631 104.236 327.595 104.309 327.582 104.388C327.568 104.466 327.578 104.547 327.609 104.62C327.641 104.694 327.692 104.756 327.759 104.8C327.825 104.845 327.903 104.869 327.982 104.87Z" fill="#263238"/>
<path d="M329.278 107.213C329.284 107.185 329.215 107.238 329.212 107.269C329.133 108 328.916 108.827 328.211 108.974C328.189 108.969 328.186 109.017 328.202 109.014C329.045 109.02 329.32 107.919 329.278 107.213Z" fill="#263238"/>
<path d="M328.735 106.354C327.57 106.107 327.147 108.443 328.222 108.677C329.297 108.912 329.705 106.57 328.735 106.354Z" fill="#263238"/>
<path d="M328.262 106.398C328.034 106.494 327.791 106.691 327.543 106.671C327.295 106.65 327.08 106.365 326.936 106.095C326.92 106.066 326.897 106.086 326.891 106.114C326.796 106.56 326.893 107.054 327.362 107.207C327.831 107.361 328.174 107.006 328.368 106.577C328.392 106.493 328.344 106.358 328.262 106.398Z" fill="#263238"/>
<path d="M333.348 107.761C333.354 107.734 333.399 107.807 333.392 107.838C333.239 108.559 333.168 109.407 333.777 109.773C333.799 109.777 333.79 109.82 333.769 109.813C332.986 109.557 333.081 108.417 333.348 107.761Z" fill="#263238"/>
<path d="M334.138 107.126C335.321 107.259 334.968 109.613 333.873 109.489C332.777 109.365 333.148 107.015 334.138 107.126Z" fill="#263238"/>
<path d="M334.609 107.345C334.775 107.495 334.925 107.751 335.151 107.799C335.378 107.847 335.635 107.627 335.835 107.407C335.856 107.386 335.872 107.415 335.867 107.439C335.812 107.891 335.596 108.34 335.15 108.361C334.705 108.381 334.512 107.95 334.47 107.485C334.454 107.411 334.536 107.294 334.609 107.345Z" fill="#263238"/>
<path d="M328.09 112.898C328.225 113.106 328.344 113.377 328.611 113.459C328.879 113.515 329.155 113.514 329.423 113.456C329.428 113.455 329.434 113.455 329.439 113.457C329.445 113.46 329.449 113.464 329.452 113.469C329.454 113.474 329.455 113.479 329.454 113.485C329.453 113.491 329.45 113.496 329.446 113.499C329.311 113.617 329.148 113.696 328.972 113.728C328.797 113.76 328.616 113.743 328.449 113.681C328.31 113.61 328.197 113.499 328.122 113.363C328.047 113.227 328.015 113.072 328.029 112.917C328.014 112.869 328.071 112.869 328.09 112.898Z" fill="#263238"/>
<path d="M331.575 110.785C331.575 110.785 331.54 111.896 331.454 112.408C331.444 112.454 331.319 112.456 331.144 112.438C331.144 112.438 331.144 112.438 331.122 112.434C330.67 112.439 330.224 112.319 329.835 112.088C329.445 111.858 329.127 111.524 328.914 111.124C328.91 111.113 328.909 111.101 328.913 111.089C328.916 111.077 328.923 111.067 328.933 111.06C328.944 111.054 328.956 111.05 328.968 111.051C328.98 111.052 328.991 111.057 329 111.066C329.579 111.623 330.321 111.978 331.118 112.078C331.175 111.943 331.11 110.175 331.202 110.178C331.594 110.282 331.97 110.437 332.321 110.64C332.458 108.326 332.224 106.011 332.395 103.712C332.398 103.696 332.406 103.682 332.418 103.671C332.43 103.66 332.446 103.654 332.462 103.653C332.478 103.652 332.494 103.656 332.507 103.665C332.52 103.674 332.53 103.688 332.535 103.703C332.95 106.111 332.851 108.774 332.772 111.167C332.755 111.47 331.78 110.899 331.575 110.785Z" fill="#263238"/>
<path d="M330.925 112.156C330.604 112.503 330.2 112.762 329.75 112.907C329.503 112.977 329.24 112.969 328.997 112.884C328.466 112.692 328.504 112.195 328.638 111.779C328.712 111.558 328.813 111.347 328.937 111.149C329.476 111.688 330.172 112.041 330.925 112.156Z" fill="#263238"/>
<path d="M329.756 112.911C329.509 112.981 329.246 112.974 329.003 112.889C328.472 112.696 328.511 112.2 328.644 111.784C329.211 111.895 329.753 112.339 329.756 112.911Z" fill="#FF9CBD"/>
<path d="M317.603 106.421C319.357 106.937 320.556 103.29 320.556 103.29C320.556 103.29 324.173 104.058 326.472 99.114C326.472 99.114 325.879 101.519 323.957 103.076C323.957 103.076 330.478 103.754 334.299 98.9862C334.299 98.9862 332.649 101.477 331.44 102.233C331.44 102.233 334.275 102.052 336.035 100.157C336.035 100.157 336.5 103.476 337.179 104.509C337.179 104.509 339.285 93.2926 328.692 92.2837C328.692 92.2837 322.125 91.337 318.713 95.9714C315.301 100.606 317.603 106.421 317.603 106.421Z" fill="#263238"/>
<path d="M319.384 107.337C319.384 107.337 317.664 103.591 316.004 104.143C314.343 104.695 315.214 109.836 316.865 110.819C317.068 110.959 317.298 111.057 317.54 111.106C317.782 111.155 318.031 111.155 318.273 111.106C318.515 111.056 318.744 110.958 318.947 110.818C319.15 110.677 319.322 110.497 319.454 110.289L319.384 107.337Z" fill="#EB9481"/>
<path d="M316.287 105.609C316.28 105.607 316.274 105.609 316.268 105.612C316.263 105.616 316.259 105.621 316.257 105.628C316.256 105.634 316.257 105.641 316.261 105.647C316.264 105.652 316.27 105.656 316.277 105.658C317.429 106.385 317.871 107.658 318.114 108.924C317.829 108.4 317.372 108.054 316.676 108.382C316.64 108.4 316.66 108.455 316.699 108.454C316.93 108.424 317.165 108.467 317.371 108.577C317.576 108.686 317.743 108.857 317.847 109.065C318.021 109.414 318.158 109.78 318.255 110.158C318.293 110.278 318.502 110.255 318.483 110.12L318.489 110.093C318.788 108.52 317.961 106.079 316.287 105.609Z" fill="#263238"/>
<path d="M317.951 110.519C317.942 110.568 317.923 110.615 317.895 110.656C317.867 110.698 317.832 110.733 317.79 110.761C317.749 110.788 317.702 110.807 317.653 110.816C317.604 110.825 317.554 110.825 317.505 110.815C317.457 110.804 317.41 110.784 317.37 110.756C317.329 110.728 317.294 110.692 317.267 110.651C317.239 110.609 317.221 110.562 317.212 110.514C317.203 110.465 317.203 110.415 317.214 110.366C317.224 110.317 317.244 110.271 317.272 110.23C317.3 110.19 317.336 110.155 317.378 110.127C317.419 110.1 317.466 110.082 317.515 110.073C317.563 110.064 317.614 110.064 317.662 110.075C317.76 110.095 317.845 110.154 317.899 110.237C317.953 110.321 317.972 110.422 317.951 110.519Z" fill="white"/>
<path d="M317.045 109.666C317.036 109.713 317.013 109.756 316.979 109.79C316.945 109.824 316.902 109.847 316.855 109.856C316.808 109.865 316.759 109.86 316.715 109.841C316.671 109.822 316.633 109.791 316.607 109.751C316.581 109.71 316.568 109.663 316.569 109.616C316.569 109.568 316.584 109.521 316.612 109.482C316.639 109.443 316.678 109.412 316.722 109.395C316.767 109.378 316.816 109.374 316.862 109.385C316.924 109.398 316.978 109.435 317.012 109.488C317.046 109.54 317.058 109.605 317.045 109.666Z" fill="white"/>
<path d="M317.142 102.079C317.034 101.97 308.943 83.8025 308.273 82.1424C307.972 81.4044 313.602 72.0896 319.974 70.5665C324.576 69.4504 331.819 72.7102 333.088 73.6251C334.597 74.7188 336.658 96.3805 336.658 96.3805L325.83 98.3766L317.142 102.079Z" fill="#FFC727"/>
<g opacity="0.1">
<path opacity="0.1" d="M318.488 99.2596C318.308 99.0256 318.169 98.7628 318.078 98.4823C317.961 98.202 317.842 97.921 317.715 97.6479C317.453 97.0988 317.151 96.57 316.811 96.066C316.577 95.6225 316.202 95.2688 315.746 95.0603C315.54 94.9925 315.318 94.9888 315.109 95.0497C314.973 95.078 314.843 95.1305 314.725 95.2046C314.639 95.2759 314.57 95.4051 314.492 95.4747C314.467 95.5013 314.513 95.5399 314.535 95.5126C314.611 95.3739 314.737 95.2693 314.888 95.22C315.008 95.1867 315.132 95.168 315.257 95.1643C315.524 95.1661 315.781 95.2672 315.977 95.448C316.335 95.8103 316.629 96.2304 316.848 96.6905C317.106 97.1448 317.37 97.6003 317.631 98.0553C317.893 98.5102 318.048 98.9969 318.435 99.2964C318.465 99.3347 318.519 99.2918 318.488 99.2596Z" fill="black"/>
<path opacity="0.1" d="M319.695 99.3848C319.196 98.2415 318.693 97.0993 318.185 95.9584C317.632 94.8264 317.211 93.6348 316.929 92.4068C316.936 92.3732 316.862 92.3925 316.874 92.4111C317.056 93.6624 317.38 94.8889 317.84 96.0671C318.347 97.2334 318.946 98.3575 319.631 99.4288C319.637 99.4372 319.646 99.443 319.656 99.4449C319.666 99.4467 319.677 99.4445 319.685 99.4386C319.693 99.4328 319.699 99.4238 319.701 99.4137C319.703 99.4036 319.701 99.3932 319.695 99.3848Z" fill="black"/>
<path opacity="0.1" d="M323.307 96.9565C322.847 95.9898 322.291 95.0698 321.745 94.1517C321.267 93.3427 320.686 92.5995 320.016 91.9409C319.989 91.916 319.952 91.956 319.975 91.9833C320.616 92.6947 321.017 93.5785 321.494 94.402C322.012 95.3013 322.533 96.2203 323.137 97.0612C323.152 97.0807 323.174 97.094 323.199 97.0984C323.223 97.1028 323.248 97.0981 323.269 97.0851C323.29 97.0721 323.306 97.0517 323.312 97.028C323.319 97.0042 323.317 96.9788 323.307 96.9565Z" fill="black"/>
<path opacity="0.1" d="M327.811 87.8846C327.68 87.7917 327.53 87.7289 327.372 87.7007C327.214 87.6725 327.051 87.6796 326.896 87.7214C326.741 87.7633 326.597 87.8389 326.474 87.9429C326.352 88.0468 326.254 88.1765 326.187 88.3228C325.837 89.0537 325.975 90.0001 326.082 90.7738C326.204 91.6144 326.426 92.4373 326.744 93.2246C327.109 94.1123 327.591 94.9473 328.176 95.7079C328.195 95.7375 328.24 95.7215 328.224 95.6796C327.461 94.3822 326.935 92.9591 326.671 91.4772C326.533 90.7504 326.463 90.0123 326.462 89.2726C326.462 88.6558 326.807 87.6459 327.621 87.921C328.391 88.193 328.597 89.1923 329.095 89.7518C329.095 89.7518 329.123 89.7576 329.1 89.7304C328.612 89.1538 328.477 88.3424 327.811 87.8846Z" fill="black"/>
<path opacity="0.1" d="M333.768 88.5743C333.15 89.6626 332.914 90.9266 333.099 92.1645C333.187 92.8514 333.345 93.5275 333.571 94.1821C333.769 94.8717 334.034 95.5402 334.362 96.1778C334.365 96.1831 334.371 96.1871 334.377 96.1892C334.382 96.1912 334.389 96.1912 334.395 96.1892C334.401 96.1871 334.406 96.1831 334.409 96.1778C334.413 96.1725 334.414 96.1663 334.414 96.16C334.287 95.4939 334.007 94.869 333.868 94.2132C333.715 93.5531 333.611 92.8827 333.556 92.2073C333.52 91.6103 333.526 91.0115 333.575 90.4155C333.625 89.8124 333.739 89.2164 333.915 88.6373C333.931 88.5578 333.814 88.4945 333.768 88.5743Z" fill="black"/>
<path opacity="0.1" d="M331.353 92.8158C331.146 91.7584 330.864 90.7172 330.509 89.7001C330.501 89.6808 330.486 89.6653 330.467 89.6565C330.448 89.6476 330.427 89.6461 330.407 89.6522C330.387 89.6583 330.37 89.6715 330.359 89.6894C330.348 89.7073 330.345 89.7286 330.349 89.7491C330.605 90.7845 330.797 91.8351 330.99 92.8826C331.183 93.9302 331.302 94.9811 331.559 96.0006C331.568 96.0344 331.614 96.0123 331.615 95.9903C331.666 94.9252 331.578 93.8581 331.353 92.8158Z" fill="black"/>
</g>
<path d="M336.944 94.0999C336.325 93.7223 328.121 92.3131 324.914 93.4634C322.07 94.4733 316.733 97.8779 315.243 99.45C314.994 99.7168 316.333 103.344 316.929 103.758C317.283 104.002 323.263 100.609 326.46 99.3707C329.186 98.3134 335.475 99.0478 337.056 99.2939C337.3 99.32 337.313 94.3188 336.944 94.0999Z" fill="#FFC727"/>
<path opacity="0.2" d="M336.944 94.0999C336.325 93.7223 328.121 92.3131 324.914 93.4634C322.07 94.4733 316.733 97.8779 315.243 99.45C314.994 99.7168 316.333 103.344 316.929 103.758C317.283 104.002 323.263 100.609 326.46 99.3707C329.186 98.3134 335.475 99.0478 337.056 99.2939C337.3 99.32 337.313 94.3188 336.944 94.0999Z" fill="black"/>
<path d="M323.303 127.788C323.303 127.788 323.495 124.806 323.299 124.509C323.103 124.212 319.971 121.808 318.876 118.838C318.6 118.089 316.471 120.081 316.471 120.081C316.471 120.081 316.984 123.683 319.433 126.072C321.882 128.461 325.345 128.81 326.167 128.46C326.433 128.351 326.661 123.347 326.533 123.547C326.203 124.079 325.758 124.531 325.23 124.868C325.077 124.97 324.977 127.91 324.977 127.91L323.303 127.788Z" fill="#FFC727"/>
<path d="M312.428 121.137C305.493 124.753 283.428 140.577 283.187 147.236C283.01 152.18 287.967 154.722 292.924 153.678C297.242 152.77 310.899 133.639 314.668 128.256C318.258 123.12 319.243 117.59 312.428 121.137Z" fill="#EB9481"/>
<path d="M312.428 121.137C305.493 124.753 283.428 140.577 283.187 147.236C283.01 152.18 287.967 154.722 292.924 153.678C297.242 152.77 310.899 133.639 314.668 128.256C318.258 123.12 319.243 117.59 312.428 121.137Z" fill="#FFC727"/>
<path d="M313.816 129.804C313.821 129.796 313.823 129.787 313.822 129.777C313.82 129.768 313.815 129.76 313.807 129.754C313.799 129.749 313.79 129.747 313.78 129.748C313.771 129.75 313.763 129.755 313.757 129.763C312.795 131.121 311.818 132.47 310.817 133.801C309.815 135.132 308.838 136.483 307.833 137.814C305.832 140.465 303.753 143.054 301.596 145.581C300.992 146.29 300.377 146.987 299.765 147.688C299.153 148.388 298.51 149.083 297.909 149.805C297.904 149.83 297.921 149.856 297.941 149.838C298.561 149.279 299.147 148.672 299.722 148.071C300.297 147.471 300.864 146.876 301.422 146.263C302.538 145.039 303.645 143.801 304.71 142.532C305.775 141.262 306.857 139.942 307.872 138.611C308.704 137.535 309.527 136.441 310.305 135.322C310.456 135.181 310.608 135.038 310.758 134.891C311.057 134.593 311.352 134.288 311.647 133.983C312.227 133.388 312.761 132.753 313.316 132.142C313.349 132.105 313.286 132.04 313.249 132.08C312.667 132.672 312.046 133.234 311.491 133.845L310.782 134.608C311.852 133.033 312.854 131.428 313.816 129.804Z" fill="#263238"/>
<path d="M284.01 150.269C281.013 145.239 287.078 141.839 291.098 142.562C300.543 144.263 313.643 149.677 320.604 153.9C322.991 155.346 320.479 170.263 317.578 169.554C312.427 168.32 290.091 160.473 284.01 150.269Z" fill="#EB9481"/>
<path d="M317.137 152.061C317.137 152.061 318.092 152.41 323.44 153.424C327.126 154.124 335.691 158.198 337.644 168.582C338.394 172.576 335.925 174.829 334.412 170.83C333.349 168.012 332.853 165.967 332.248 165.145C332.248 165.145 330.837 169.534 328.291 170.342C326.064 171.05 323.79 171.599 321.485 171.984C321.319 171.577 321.179 171.161 321.065 170.738C320.03 170.967 318.951 170.899 317.953 170.542C316.954 170.185 316.077 169.553 315.423 168.719L317.137 152.061Z" fill="#EB9481"/>
<path d="M326.86 154.659C328.08 156.196 330.616 159.544 331.723 162.984C332.965 166.81 334.327 174.513 331.494 175.397C329.419 176.05 328.641 173.152 328.641 173.152C328.641 173.152 328.531 176.456 326.528 176.634C324.698 176.795 324.231 174.52 324.231 174.52C324.231 174.52 323.81 176.508 322.029 176.328C319.878 176.108 321.088 171.974 319.101 169.862C318.654 169.393 326.86 154.659 326.86 154.659Z" fill="#EB9481"/>
<path d="M327.462 163.621C328.368 165.267 329.466 169.536 328.698 173.092C328.68 173.175 328.607 173.204 328.607 173.128C328.6 169.926 328.204 166.738 327.428 163.633C327.419 163.612 327.453 163.603 327.462 163.621Z" fill="#263238"/>
<path d="M323.637 164.986C324.277 166.487 325.208 170.938 324.305 174.516C324.288 174.596 324.212 174.621 324.216 174.542C324.373 171.347 324.167 168.144 323.6 164.995C323.595 164.974 323.629 164.966 323.637 164.986Z" fill="#263238"/>
<path d="M316.558 149.804L311.585 159.293L309.139 168.721C309.139 168.721 280.77 154.841 283.264 146.692C284.109 143.944 287.573 140.781 293.869 141.894C300.164 143.007 316.558 149.804 316.558 149.804Z" fill="#FFC727"/>
<path d="M316.59 150.066C315.98 149.744 315.389 149.399 314.771 149.091C314.152 148.784 313.564 148.497 312.953 148.214C311.728 147.634 310.465 147.123 309.206 146.629C306.713 145.648 304.173 144.794 301.594 144.07C300.702 143.561 299.758 143.134 298.841 142.665C298.814 142.659 298.8 142.694 298.831 142.71C299.578 143.105 300.311 143.539 301.063 143.925C300.459 143.759 299.854 143.595 299.266 143.448C298.539 143.262 297.795 143.136 297.061 142.98C297.037 142.975 297.024 143.02 297.052 143.026C297.696 143.198 298.333 143.416 298.968 143.615C299.604 143.814 300.278 144.008 300.928 144.213C302.222 144.622 303.509 145.046 304.784 145.495C307.328 146.396 309.861 147.349 312.338 148.418C313.031 148.719 313.732 149.002 314.425 149.303C315.119 149.603 315.844 149.888 316.541 150.205C316.62 150.225 316.665 150.104 316.59 150.066Z" fill="#263238"/>
<path d="M308.435 168.323C307.262 167.691 306.114 167.016 304.947 166.372C303.78 165.728 302.602 165.062 301.451 164.374C299.133 162.993 296.876 161.52 294.602 160.07C293.286 159.228 291.939 158.437 290.622 157.598C290.588 157.575 290.549 157.624 290.585 157.648C291.141 158.041 291.72 158.458 292.286 158.865C292.851 159.273 293.398 159.645 293.954 160.04C295.063 160.835 296.217 161.601 297.359 162.361C299.606 163.862 301.928 165.248 304.317 166.513C305.65 167.217 307.019 167.825 308.402 168.418C308.457 168.443 308.489 168.351 308.435 168.323Z" fill="#263238"/>
<path d="M318.085 150.169C318.058 150.054 312.837 148.154 312.837 148.154C312.837 148.154 306.57 156.601 306.4 157.706C306.229 158.811 304.823 167.226 304.888 167.342C304.953 167.458 311.129 170.364 311.294 170.191C311.458 170.018 313.287 161.012 313.419 160.318C313.55 159.623 318.085 150.169 318.085 150.169Z" fill="#FFC727"/>
<path opacity="0.2" d="M318.054 150.164C318.027 150.049 312.8 148.166 312.8 148.166C312.8 148.166 306.552 156.631 306.393 157.741C306.234 158.851 304.844 167.264 304.909 167.38C304.974 167.496 311.161 170.381 311.338 170.211C311.515 170.041 313.304 161.026 313.435 160.332C313.567 159.638 318.054 150.164 318.054 150.164Z" fill="black"/>
<path d="M401.457 183.182L398.683 196.248C398.489 197.165 397.975 197.871 397.55 197.78L392.523 196.713L387.49 195.645C387.065 195.555 386.883 194.727 387.081 193.794L389.856 180.719C390.054 179.787 390.557 179.104 390.982 179.195L391.447 179.293L391.706 178.07L396.275 179.04L400.837 180.008L400.577 181.231L401.042 181.33C401.467 181.42 401.655 182.25 401.457 183.182Z" fill="#FFC727"/>
<path d="M401.581 178.067L391.806 175.992L391.339 178.191L401.114 180.266L401.581 178.067Z" fill="#37474F"/>
<path d="M400.869 185.953L389.268 183.49L387.516 191.743L399.117 194.206L400.869 185.953Z" fill="#EBEBEB"/>
<path d="M385.921 192.908C385.558 194.621 384.79 195.075 384.463 195.005L381.586 194.394L378.886 193.821C378.559 193.752 378.038 193.028 378.399 191.312C378.83 189.281 380.541 188.373 380.777 187.26C380.93 186.538 380.707 184.142 381.007 184.206L386.404 185.351C386.709 185.416 385.536 187.513 385.382 188.237C385.148 189.354 386.352 190.865 385.921 192.908Z" fill="#C7C7C7"/>
<path d="M381.737 182.801L386.286 183.76C386.46 183.796 386.613 183.901 386.71 184.05C386.807 184.2 386.841 184.381 386.804 184.556L386.523 185.892C386.52 185.905 386.513 185.915 386.502 185.922C386.492 185.929 386.479 185.931 386.467 185.929L380.696 184.712C380.683 184.709 380.673 184.702 380.666 184.692C380.659 184.681 380.657 184.668 380.659 184.656L380.941 183.32C380.978 183.145 381.083 182.993 381.232 182.895C381.381 182.798 381.563 182.764 381.737 182.801Z" fill="#37474F"/>
<path d="M298.444 162.414L297.362 161.085C298.622 160.055 300.103 158.711 300.389 158.251C300.46 156.952 300.167 152.554 299.543 151.818L294.651 150.779L295.007 149.104L299.985 150.16C302.361 150.665 302.087 158.426 302.08 158.504C302.064 158.804 302.004 159.511 298.444 162.414Z" fill="#EBEBEB"/>
<path d="M287.595 171.709C279.134 169.913 278.257 163.975 279.909 160.299C281.562 156.624 288.172 154.567 288.51 153.322C288.848 152.077 289.978 146.405 289.754 145.955C289.53 145.505 287.753 144.348 287.243 144.24C286.732 144.131 286.854 143.48 287.38 143.591L297.134 145.662C297.66 145.774 297.523 146.422 296.997 146.31C296.471 146.199 296.004 146.774 295.767 147.436C295.598 147.902 294.319 153.459 294.237 154.538C294.141 155.821 299.24 160.37 299.261 164.408C299.283 168.445 296.052 173.504 287.595 171.709Z" fill="#EBEBEB"/>
<path d="M287.663 170.36C280.548 168.85 279.811 163.862 281.199 160.77C282.587 157.677 289.342 155.318 289.449 154.241C289.471 154.032 290.332 149.901 290.414 149.468L293.958 150.22C293.863 150.67 293.009 154.812 292.996 154.994C292.917 156.074 297.443 160.824 297.463 164.222C297.483 167.62 294.775 171.87 287.663 170.36Z" fill="#FFC727"/>
<path d="M320.229 178.226C320.116 178.697 319.906 179.138 319.613 179.523C319.32 179.908 318.951 180.228 318.527 180.463C316.69 181.591 313.852 181.835 311.084 181.1C309.209 180.6 306.934 179.261 304.742 177.952C302.549 176.643 300.407 175.386 298.847 175.071L280.398 171.333L280.637 170.205L281.068 170.296L280.92 170.993L298.938 174.643C300.571 174.973 302.706 176.238 304.968 177.578C307.14 178.863 309.382 180.193 311.199 180.677C313.855 181.385 316.574 181.16 318.296 180.091C318.669 179.888 318.995 179.61 319.254 179.275C319.512 178.939 319.698 178.553 319.8 178.141L320.229 178.226Z" fill="#A6A6A6"/>
<path d="M320.264 177.191C320.318 177.536 320.31 177.887 320.242 178.228L319.811 178.137C319.875 177.72 319.852 177.294 319.744 176.886C319.636 176.478 319.445 176.097 319.183 175.767C318.012 174.115 315.594 172.848 312.872 172.468C311.011 172.204 308.424 172.556 305.921 172.91C303.318 173.265 300.86 173.599 299.224 173.265L281.21 169.616L281.062 170.314L280.624 170.221L280.863 169.096L299.31 172.833C300.866 173.163 303.294 172.819 305.861 172.469C308.428 172.119 311.007 171.769 312.925 172.051C315.765 172.45 318.308 173.788 319.535 175.535C319.902 176.024 320.151 176.591 320.264 177.191Z" fill="#A6A6A6"/>
<path d="M320.229 178.227C320.173 178.459 320.069 178.676 319.924 178.866C319.779 179.055 319.595 179.212 319.386 179.326C317.872 180.283 314.655 180.402 311.389 179.606C309.518 179.148 307.19 178.101 304.941 177.087C302.693 176.073 300.482 175.077 298.911 174.759L280.461 171.021L280.633 170.211L281.064 170.302L280.984 170.682L299.001 174.331C300.622 174.659 302.81 175.644 305.125 176.688C307.356 177.696 309.663 178.735 311.498 179.182C314.606 179.941 317.748 179.847 319.154 178.957C319.313 178.872 319.452 178.755 319.563 178.614C319.675 178.473 319.756 178.31 319.801 178.136L320.229 178.227Z" fill="#A6A6A6"/>
<path d="M320.241 177.733C320.267 177.897 320.263 178.064 320.229 178.226L320.184 178.44L280.582 170.419L280.8 169.392L299.25 173.13C300.822 173.447 303.195 173.392 305.709 173.335C308.176 173.274 310.729 173.215 312.631 173.526C315.949 174.064 318.867 175.415 319.889 176.894C320.068 177.144 320.188 177.431 320.241 177.733ZM319.816 177.917C319.791 177.635 319.687 177.365 319.518 177.138C318.574 175.775 315.71 174.467 312.553 173.957C310.699 173.656 308.159 173.714 305.707 173.781C303.17 173.84 300.774 173.897 299.15 173.569L281.135 169.92L281.101 170.082L319.816 177.917Z" fill="#A6A6A6"/>
<path d="M279.411 171.888L293.976 174.839L294.725 171.129L280.077 168.163L279.411 171.888Z" fill="#37474F"/>
<path d="M410.872 203.872C410.872 203.872 411.019 203.141 411.311 201.716C411.603 200.291 412.042 198.193 412.619 195.46C413.767 189.979 415.455 181.954 417.604 171.722C421.916 151.258 428.077 122.023 435.51 86.7593L435.634 86.9493L298.342 57.9049L298.569 57.7588C289.564 100.222 281.079 140.251 273.756 174.835L273.624 174.631L372.897 195.745L400.918 201.723L408.329 203.309L410.237 203.726L410.887 203.872L410.251 203.748L408.358 203.361L400.969 201.811L372.97 195.928L273.573 174.959H273.412V174.791C280.721 140.207 289.206 100.178 298.188 57.7076L298.225 57.5176L298.415 57.5614L435.692 86.6643H435.846V86.8177C428.34 122.096 422.113 151.375 417.757 171.839C415.565 182.071 413.862 190.066 412.7 195.533C412.115 198.252 411.662 200.335 411.362 201.745C411.062 203.156 410.872 203.872 410.872 203.872Z" fill="#263238"/>
<path d="M210.113 146.482L220.016 178.216L252.999 148.982L265.424 159.587C265.424 159.587 237.432 204.081 223.853 212.457C208.79 221.754 190.869 209.534 188.603 200.566C186.338 191.598 174.41 151.394 174.41 151.394L210.113 146.482Z" fill="#EFBE9D"/>
<path d="M220.798 177.662C220.834 177.728 219.928 178.232 218.656 179.285C217.914 179.908 217.22 180.587 216.581 181.316C215.018 183.101 213.814 185.171 213.036 187.412C212.72 188.327 212.476 189.265 212.305 190.218C212.013 191.848 212.02 192.886 211.947 192.886C211.899 192.645 211.882 192.4 211.896 192.155C211.876 191.87 211.876 191.585 211.896 191.3C211.896 190.971 211.932 190.569 212.005 190.174C212.147 189.199 212.371 188.238 212.678 187.302C213.439 185 214.671 182.882 216.296 181.083C216.966 180.352 217.7 179.682 218.488 179.08C218.81 178.81 219.139 178.612 219.409 178.422C219.644 178.261 219.888 178.112 220.14 177.976C220.344 177.842 220.565 177.736 220.798 177.662Z" fill="#E7996E"/>
<path d="M185.322 177.976L220.016 168.614C220.016 168.614 212.576 146.608 206.787 130.704C201.671 116.679 193.098 110.839 188.64 107.667C186.84 106.375 184.749 105.547 182.552 105.255C174.344 104.159 151.892 101.207 140.754 100.278C126.977 99.1309 98.2035 106.717 98.2035 106.717C98.2035 106.717 72.9742 120.706 64.467 126.399C62.3808 127.779 60.7865 129.785 59.9137 132.129C58.3424 136.361 56.3398 143.633 53.9426 153.039C52.4151 159.018 47.3649 178.809 47.3649 178.809L76.9574 177.896C82.9212 196.006 88.4465 212.246 88.4465 212.246L86.0493 255.63H195.795C195.795 255.63 185.665 188.522 185.665 186.966C185.665 186.396 185.527 182.559 185.322 177.976Z" fill="#FF725E"/>
<g opacity="0.3">
<path opacity="0.3" d="M151.191 142.755C148.998 139.985 145.227 138.852 141.733 139.203C138.24 139.553 134.995 141.205 132.086 143.178C123.111 149.267 116.738 158.446 111.11 167.706C101.287 183.85 93.0348 200.899 86.4658 218.618L86.6924 223.149C94.0521 222.221 98.8466 216.016 102.04 209.329C105.234 202.641 106.608 195.216 109.422 188.36C114.909 175.19 125.377 164.722 138.547 159.235C142.932 159.689 147.639 158.278 150.504 154.931C153.369 151.583 153.917 146.212 151.191 142.755Z" fill="black"/>
</g>
<path d="M185.665 183.723C185.497 183.723 184.518 174.126 183.473 162.265C182.428 150.403 181.711 140.763 181.872 140.748C182.033 140.733 183.02 150.337 184.065 162.213C185.11 174.09 185.819 183.708 185.665 183.723Z" fill="#263238"/>
<path d="M69.0786 140.748C69.2766 141.218 69.4236 141.708 69.5171 142.21C69.7729 143.291 70.1018 144.673 70.4892 146.325C71.2858 149.803 72.3456 154.612 73.4784 159.94C74.6112 165.268 75.6125 170.092 76.3068 173.593C76.6211 175.259 76.8842 176.655 77.0961 177.744C77.2166 178.25 77.2852 178.767 77.3008 179.286C77.1119 178.813 76.9675 178.324 76.8696 177.825C76.6138 176.743 76.2849 175.362 75.8975 173.71C75.1009 170.231 74.0411 165.422 72.901 160.094C71.7609 154.766 70.7742 149.942 70.0799 146.441C69.7656 144.775 69.4952 143.379 69.2906 142.283C69.1707 141.779 69.0997 141.265 69.0786 140.748Z" fill="#263238"/>
<path d="M180.367 105.672C180.542 105.716 179.541 109.567 178.854 114.442C178.167 119.317 178.021 123.256 177.845 123.213C177.692 122.352 177.652 121.474 177.728 120.603C177.786 118.499 177.967 116.401 178.269 114.318C178.564 112.231 178.984 110.164 179.526 108.128C179.7 107.276 179.983 106.451 180.367 105.672Z" fill="#263238"/>
<path d="M133.044 125.81L143.027 105.675L139.928 96.9043C139.928 96.9043 154.904 89.1279 149.788 73.261C147.317 65.6016 140.944 50.2389 135.017 36.4037C131.942 29.2275 126.278 23.4721 119.151 20.2828C112.025 17.0935 103.959 16.704 96.5591 19.192L95.0389 19.6963C78.9234 26.1863 75.4299 43.4931 82.3585 59.4258L102.625 118.625L133.044 125.81Z" fill="#EFBE9D"/>
<path d="M139.928 96.8438C139.928 96.8438 130.215 101.017 117.359 97.9181C117.359 97.9181 126.056 107.653 141.339 100.929L139.928 96.8438Z" fill="#E7996E"/>
<path d="M135.857 52.0133C136.059 52.6001 136.025 53.2424 135.761 53.8044C135.498 54.3663 135.027 54.8038 134.447 55.0244C134.167 55.1435 133.867 55.2056 133.563 55.2071C133.26 55.2085 132.959 55.1493 132.678 55.0329C132.398 54.9165 132.143 54.7452 131.93 54.5291C131.717 54.3131 131.548 54.0566 131.436 53.7746C131.231 53.1888 131.264 52.5465 131.526 51.9842C131.788 51.4219 132.259 50.9839 132.839 50.7635C133.119 50.6432 133.42 50.5802 133.724 50.5782C134.029 50.5761 134.33 50.6351 134.612 50.7516C134.893 50.8681 135.148 51.0397 135.362 51.2564C135.576 51.4731 135.744 51.7305 135.857 52.0133Z" fill="#263238"/>
<path d="M134.154 44.3228C133.979 44.7102 131.838 44.0159 129.411 44.8417C126.985 45.6676 125.618 47.4728 125.253 47.2682C125.077 47.1805 125.187 46.5373 125.771 45.7261C126.579 44.6455 127.699 43.8392 128.98 43.4166C130.241 42.9913 131.605 42.9759 132.875 43.3727C133.818 43.6943 134.249 44.1401 134.154 44.3228Z" fill="#263238"/>
<path d="M114.772 58.3352C114.975 58.9209 114.942 59.563 114.678 60.1243C114.415 60.6856 113.942 61.1215 113.361 61.339C113.082 61.4592 112.782 61.5221 112.478 61.524C112.174 61.526 111.872 61.467 111.592 61.3505C111.311 61.2339 111.056 61.0623 110.843 60.8456C110.63 60.629 110.462 60.3718 110.35 60.0893C110.148 59.5024 110.183 58.8601 110.446 58.2982C110.709 57.7362 111.181 57.2987 111.761 57.0781C112.041 56.9592 112.341 56.8975 112.645 56.8965C112.949 56.8955 113.251 56.9554 113.531 57.0725C113.812 57.1896 114.066 57.3617 114.279 57.5785C114.492 57.7954 114.66 58.0526 114.772 58.3352Z" fill="#263238"/>
<path d="M110.57 51.5151C110.431 51.9171 108.231 51.4639 105.907 52.5456C103.583 53.6273 102.421 55.5787 102.041 55.4106C101.858 55.3375 101.887 54.6797 102.384 53.8246C103.065 52.6645 104.085 51.7411 105.307 51.1789C106.517 50.6194 107.873 50.4558 109.181 50.7111C110.16 50.9304 110.643 51.3251 110.57 51.5151Z" fill="#263238"/>
<path d="M125.348 68.7558C125.296 68.617 126.714 67.8495 129.053 66.7167C129.652 66.439 130.2 66.1247 130.164 65.6643C129.999 65.0044 129.637 64.4104 129.126 63.9614L125.735 59.8905C120.933 54.0436 117.228 49.1176 117.469 48.9276C117.71 48.7376 121.796 53.3127 126.597 59.2035C127.774 60.6652 128.892 62.0392 129.952 63.3621C130.427 63.9906 131.099 64.6557 131.092 65.6862C131.074 65.9366 130.999 66.1796 130.872 66.3963C130.746 66.613 130.571 66.7976 130.361 66.936C130.047 67.1446 129.708 67.3139 129.353 67.4403C126.926 68.3611 125.406 68.8874 125.348 68.7558Z" fill="#263238"/>
<path d="M107.273 43.0824C107.273 43.8133 104.723 44.3249 101.989 45.6258C99.2558 46.9267 97.2094 48.4762 96.6393 48.0084C96.3689 47.7818 96.5662 47.0291 97.2751 46.0789C98.252 44.8782 99.4896 43.9158 100.894 43.2649C102.298 42.614 103.833 42.2916 105.38 42.3223C106.564 42.3516 107.266 42.7024 107.273 43.0824Z" fill="#263238"/>
<path d="M131.26 37.7903C131.019 38.5211 129.155 38.4773 127.138 39.1277C125.121 39.7782 123.542 40.743 122.958 40.2971C122.695 40.0779 122.775 39.4347 123.345 38.66C124.135 37.7 125.192 36.996 126.383 36.6369C127.573 36.2779 128.843 36.2799 130.032 36.6428C130.939 36.9644 131.363 37.4541 131.26 37.7903Z" fill="#263238"/>
<path d="M87.5621 70.6641C87.2551 70.6641 75.6272 71.1026 79.603 81.7877C83.5789 92.4729 93.4894 86.2752 93.3943 85.961C93.2993 85.6467 87.5621 70.6641 87.5621 70.6641Z" fill="#EFBE9D"/>
<path d="M88.6218 83.1322C88.5634 83.1322 88.483 83.3296 88.2272 83.5927C87.8559 83.9478 87.3595 84.1421 86.8458 84.1335C85.5595 84.1335 83.9224 82.6718 83.1915 80.8008C82.8198 79.8937 82.6574 78.9144 82.7165 77.9358C82.6948 77.5647 82.7625 77.1938 82.9138 76.8543C83.0652 76.5147 83.2957 76.2164 83.5862 75.9844C83.7793 75.8498 84.0131 75.7865 84.2477 75.8051C84.4823 75.8238 84.7031 75.9233 84.8725 76.0868C85.1283 76.3352 85.1429 76.5764 85.2087 76.5691C85.2745 76.5618 85.3695 76.306 85.121 75.8967C84.9626 75.6537 84.7251 75.473 84.4486 75.3851C84.262 75.3267 84.0657 75.3063 83.8711 75.3252C83.6765 75.344 83.4877 75.4017 83.3158 75.4948C82.9087 75.7449 82.5727 76.0953 82.3398 76.5125C82.1069 76.9296 81.9849 77.3996 81.9856 77.8774C81.8798 78.9713 82.0403 80.0746 82.4534 81.0931C83.3231 83.2199 85.1722 84.8278 86.8824 84.6963C87.2009 84.6748 87.5103 84.5815 87.7876 84.4233C88.0648 84.265 88.3025 84.046 88.483 83.7827C88.7022 83.3953 88.6657 83.1322 88.6218 83.1322Z" fill="#E7996E"/>
<path d="M118.77 72.8365C119.157 72.683 120.049 75.3141 122.936 76.425C125.822 77.5359 128.527 76.3081 128.673 76.6662C128.761 76.8197 128.22 77.3971 127.043 77.821C125.505 78.3619 123.826 78.3438 122.3 77.7698C120.838 77.2156 119.648 76.115 118.982 74.7002C118.507 73.6331 118.587 72.8804 118.77 72.8365Z" fill="#263238"/>
<path d="M138.89 12.9923C138.403 12.0155 137.68 11.1753 136.787 10.5476C135.894 9.91982 134.858 9.52424 133.774 9.39648C133.565 8.79718 133.298 8.21955 132.978 7.67165C131.019 4.35355 126.605 2.55564 123.023 4.01736C122.261 2.73284 121.162 1.68083 119.845 0.97473C118.529 0.268627 117.045 -0.0647923 115.553 0.0104077C114.061 0.0856078 112.618 0.566578 111.379 1.40147C110.14 2.23637 109.153 3.39353 108.523 4.74822C106.775 4.04556 104.862 3.86143 103.013 4.21788C101.163 4.57433 99.4552 5.45625 98.0937 6.75808C97.7441 7.07059 97.4906 7.47618 97.3629 7.92745C97.3326 8.07915 97.3324 8.23534 97.3625 8.38709C97.3926 8.53884 97.4524 8.68316 97.5383 8.81179C96.77 8.18002 95.8601 7.74366 94.8865 7.54003C93.9128 7.33639 92.9043 7.37151 91.9472 7.64241C91.2986 7.8381 90.6898 8.14743 90.1493 8.55599C88.4877 9.27971 87.1759 10.6257 86.495 12.3053C84.0744 12.3387 81.7501 13.2588 79.9626 14.8914C78.1751 16.524 77.0486 18.7556 76.7965 21.1633C75.0691 21.8841 73.5957 23.1034 72.5646 24.6656C71.5336 26.2278 70.9917 28.0619 71.0081 29.9336C69.9 30.4099 68.9368 31.1694 68.2153 32.1359C67.4939 33.1024 67.0396 34.2418 66.8981 35.4396C66.7566 36.6374 66.9329 37.8513 67.4094 38.9593C67.8858 40.0673 68.6455 41.0303 69.6122 41.7516C69.6122 41.7516 62.6251 46.0126 66.8568 52.1079C69.0494 55.2214 73.4345 53.0653 73.4345 53.0653L86.59 72.9374C86.5316 73.0763 88.8484 75.13 89.9666 74.1506C91.0848 73.1713 91.3772 71.5707 91.7207 70.1236C92.1226 68.4646 92.6927 66.7982 92.5538 65.0953C92.415 63.3924 91.3333 61.6091 89.6304 61.346C91.2895 60.1035 91.823 57.794 91.5526 55.7403C91.2821 53.6866 90.2443 51.8229 89.2504 50.003L84.8652 41.9636C86.805 41.2298 88.5076 39.9802 89.7892 38.3495C91.0708 36.7189 91.8827 34.7692 92.1372 32.7109C95.66 33.9241 99.9647 31.2053 100.367 27.4926C101.707 29.1736 103.636 30.283 105.764 30.5964C107.891 30.9098 110.058 30.4038 111.827 29.1808C112.148 31.5634 116.862 32.2943 119.259 32.1408C121.657 31.9874 123.893 29.517 123.893 29.517C125.505 29.8503 127.165 29.885 128.79 29.6194L129.031 29.5536C132.181 28.8227 134.235 25.0588 134.812 21.8796C135.624 21.6933 136.388 21.3399 137.056 20.8417C138.189 19.9222 138.984 18.652 139.316 17.231C139.648 15.8099 139.499 14.3188 138.89 12.9923Z" fill="#263238"/>
<path d="M121.73 7.17578C121.888 7.27349 122.033 7.39143 122.161 7.5266C122.543 7.89965 122.865 8.32842 123.118 8.79829C123.529 9.53999 123.792 10.354 123.893 11.1955C124.031 12.3172 123.885 13.4555 123.469 14.5063C122.933 15.776 121.961 16.8127 120.729 17.4297C119.307 18.1416 117.684 18.3428 116.131 17.9998C115.292 17.8165 114.502 17.4551 113.815 16.9401C113.448 16.6804 113.129 16.3589 112.872 15.9899C112.591 15.6052 112.424 15.1494 112.389 14.6744C112.381 14.4248 112.427 14.1763 112.523 13.9457C112.618 13.715 112.762 13.5075 112.945 13.3369C113.314 13.0112 113.767 12.7959 114.253 12.7157C114.738 12.6209 115.237 12.6359 115.715 12.7595C116.193 12.8629 116.648 13.051 117.06 13.315C117.86 13.8271 118.507 14.5453 118.934 15.394C119.361 16.2428 119.552 17.1909 119.486 18.1387C119.394 19.0089 119.13 19.8522 118.708 20.6189C118.287 21.3857 117.716 22.0607 117.03 22.6042C115.8 23.5936 114.316 24.2167 112.748 24.4021C111.4 24.5649 110.035 24.5056 108.706 24.2267C106.804 23.7963 104.962 23.131 103.224 22.2461C102.603 21.9465 102.135 21.698 101.814 21.5153C101.648 21.4349 101.487 21.3446 101.332 21.2448C101.509 21.2947 101.68 21.3633 101.843 21.4495L103.305 22.0999C105.051 22.9219 106.885 23.5423 108.772 23.949C110.072 24.2021 111.405 24.244 112.718 24.0733C114.223 23.8869 115.645 23.2788 116.818 22.3192C117.463 21.802 118 21.1627 118.398 20.4378C118.795 19.7129 119.046 18.9167 119.135 18.0948C119.192 17.2148 119.012 16.3358 118.613 15.5491C118.215 14.7625 117.613 14.097 116.87 13.622C116.498 13.3795 116.084 13.2085 115.649 13.1177C115.226 13.0085 114.785 12.9935 114.355 13.0738C113.943 13.1397 113.557 13.3223 113.245 13.6C113.098 13.7323 112.982 13.895 112.905 14.0768C112.828 14.2587 112.792 14.4551 112.799 14.6525C112.857 15.0544 113 15.4393 113.219 15.781C113.439 16.1227 113.729 16.4133 114.07 16.6331C114.72 17.1237 115.468 17.4678 116.263 17.6417C117.74 17.9814 119.289 17.8007 120.648 17.1301C121.828 16.5477 122.761 15.5627 123.279 14.3528C123.642 13.4671 123.808 12.5135 123.768 11.5573C123.728 10.6011 123.481 9.66499 123.045 8.81291C122.695 8.20221 122.251 7.64987 121.73 7.17578Z" fill="#455A64"/>
<path d="M50.9533 178.663C50.9533 178.663 44.0247 203.746 42.4972 209.871C40.9697 215.995 40.9551 230.225 44.4267 234.435C47.8983 238.645 59.3582 241.327 59.3582 241.327C59.3582 241.327 81.8467 230.364 89.5061 216.945C97.1655 203.527 118.097 167.101 118.097 167.101L111.468 148.902L76.5992 182.193L76.9646 177.859L50.9533 178.663Z" fill="#EFBE9D"/>
<path d="M123.776 91.5085C124.063 91.3615 124.377 91.2728 124.698 91.2477C125.02 91.2225 125.343 91.2613 125.65 91.3619C125.956 91.4625 126.24 91.6228 126.484 91.8337C126.728 92.0445 126.928 92.3016 127.072 92.5902L147.142 132.554L142.026 134.841L122.68 94.7535C122.402 94.1767 122.361 93.514 122.566 92.9074C122.771 92.3008 123.205 91.7986 123.776 91.5085Z" fill="#455A64"/>
<path d="M110.387 150.049L129.148 130.703H147.127L158.624 145.905C158.624 145.905 153.164 146.921 151.213 143.99L148.669 140.372C148.669 140.372 151.213 145.942 149.846 148.682C149.846 148.682 147.149 155.033 146.718 155.713C145.899 156.992 145.256 157.811 142.932 157.423C140.608 157.036 136.946 155.128 137.334 153.769C137.456 153.372 137.684 153.016 137.995 152.74C138.306 152.464 138.686 152.279 139.095 152.205L133.621 151.423C133.621 151.423 128.11 161.407 124.792 163.753C122.739 165.187 120.489 166.317 118.112 167.107L110.387 150.049Z" fill="#EFBE9D"/>
<path d="M77.3007 181.609C77.3445 181.704 75.7878 182.428 73.3979 183.802C70.2971 185.62 67.3817 187.738 64.6933 190.124C62.006 192.527 59.5583 195.185 57.3847 198.061C55.7257 200.254 54.834 201.715 54.7463 201.715C54.8793 201.334 55.0584 200.971 55.2799 200.634C55.8196 199.675 56.41 198.745 57.0485 197.849C61.2177 191.87 66.7229 186.946 73.1275 183.466C74.3553 182.815 75.3785 182.326 76.0947 182.004C76.4779 181.821 76.8833 181.688 77.3007 181.609Z" fill="#E7996E"/>
<path d="M133.234 136.323C134.093 136.076 134.978 135.926 135.872 135.877C137.502 135.673 139.767 135.439 142.267 135.22C142.898 135.143 143.536 135.143 144.167 135.22C144.772 135.315 145.347 135.547 145.848 135.899C146.668 136.491 147.324 137.281 147.756 138.194C148.186 138.99 148.471 139.856 148.596 140.752C148.501 140.789 148.158 139.809 147.383 138.392C146.938 137.578 146.31 136.88 145.549 136.352C145.108 136.062 144.609 135.872 144.087 135.797C143.501 135.732 142.911 135.732 142.325 135.797C139.826 136.016 137.56 136.184 135.916 136.279C135.026 136.394 134.126 136.409 133.234 136.323Z" fill="#E7996E"/>
<path d="M147.558 154.743C147.456 154.743 147.631 153.377 147.514 151.199C147.443 149.927 147.269 148.664 146.995 147.42C146.689 146.053 146.265 144.416 144.876 143.62C144.187 143.254 143.448 142.991 142.683 142.838L140.491 142.333C139.242 142.048 137.974 141.852 136.698 141.749C135.523 141.712 134.347 141.741 133.175 141.836C133.461 141.681 133.773 141.582 134.096 141.544C134.96 141.375 135.84 141.304 136.72 141.332C138.019 141.378 139.312 141.532 140.586 141.793C141.317 141.931 142.048 142.092 142.822 142.268C143.656 142.42 144.46 142.704 145.205 143.108C145.956 143.566 146.544 144.249 146.886 145.059C147.192 145.78 147.415 146.533 147.551 147.303C147.805 148.579 147.94 149.876 147.953 151.177C147.963 152.052 147.909 152.926 147.792 153.793C147.769 154.121 147.69 154.442 147.558 154.743Z" fill="#E7996E"/>
<path d="M141.083 148.244C141.236 148.244 141.353 149.808 141.368 151.847V152.198L141.003 152.132C140.805 152.094 140.604 152.074 140.403 152.074C139.465 152.106 138.575 152.499 137.918 153.17C137.414 153.696 137.253 154.157 137.187 154.128C137.122 154.098 137.144 153.579 137.626 152.9C137.956 152.466 138.38 152.113 138.866 151.868C139.352 151.622 139.888 151.49 140.432 151.482C140.678 151.482 140.923 151.509 141.163 151.562L140.805 151.847C140.776 149.786 140.9 148.244 141.083 148.244Z" fill="#E7996E"/>
<path d="M141.083 148.844C141.083 149.012 139.431 148.771 137.429 148.669C135.426 148.567 133.774 148.625 133.774 148.457C133.774 148.289 135.39 147.967 137.429 148.077C139.468 148.187 141.083 148.691 141.083 148.844Z" fill="#E7996E"/>
<path d="M134.074 147.909C134.227 147.909 134.074 149.685 133.263 151.673C132.451 153.66 131.267 154.983 131.143 154.888C131.019 154.793 131.918 153.354 132.715 151.439C133.511 149.524 133.899 147.879 134.074 147.909Z" fill="#E7996E"/>
<path d="M251.845 150.037C251.845 150.037 264.211 133.958 265.563 133.227C266.915 132.497 284.134 130.012 284.134 130.012C284.134 130.012 283.403 135.449 278.426 137.05C274.903 138.183 270.774 139.067 270.774 139.067C270.774 139.067 272.148 149.606 269.612 153.83C267.519 157.058 265.147 160.096 262.522 162.908L251.845 150.037Z" fill="#EFBE9D"/>
<path d="M267.288 156.276C268.392 154.973 269.265 153.49 269.868 151.891C270.459 150.128 270.799 148.29 270.876 146.431C270.935 145.333 270.935 144.233 270.876 143.135C270.83 142.56 270.747 141.989 270.628 141.425C270.479 140.81 270.459 140.17 270.569 139.547C270.637 139.383 270.736 139.234 270.862 139.108C270.987 138.983 271.136 138.883 271.3 138.816C271.579 138.68 271.87 138.57 272.17 138.487C272.74 138.327 273.318 138.198 273.902 138.1C274.984 137.929 276.054 137.685 277.103 137.369C278.893 136.88 280.521 135.927 281.824 134.606C282.663 133.68 283.3 132.59 283.695 131.405C283.988 130.564 284.083 130.075 284.119 130.082C284.124 130.203 284.11 130.324 284.075 130.44C284.018 130.782 283.938 131.119 283.834 131.449C283.485 132.683 282.866 133.823 282.022 134.789C280.709 136.18 279.045 137.19 277.205 137.712C276.146 138.051 275.064 138.315 273.968 138.502C273.399 138.602 272.835 138.731 272.279 138.889C271.999 138.964 271.728 139.067 271.468 139.196C271.229 139.286 271.033 139.463 270.92 139.693C270.836 140.258 270.861 140.833 270.993 141.389C271.116 141.969 271.199 142.558 271.242 143.15C271.304 144.26 271.304 145.373 271.242 146.483C271.148 148.372 270.774 150.236 270.131 152.015C269.677 153.19 269.044 154.288 268.252 155.268C268.039 155.539 267.807 155.795 267.558 156.035C267.478 156.126 267.387 156.207 267.288 156.276Z" fill="#E7996E"/>
<path d="M172.919 255.808H256.515C257.471 255.807 258.396 255.471 259.13 254.858C259.863 254.245 260.358 253.394 260.528 252.453L270.884 195.307C270.991 194.719 270.967 194.115 270.815 193.537C270.663 192.96 270.386 192.422 270.003 191.964C269.62 191.505 269.141 191.136 268.6 190.883C268.059 190.629 267.469 190.498 266.871 190.498H183.276C182.319 190.498 181.392 190.834 180.658 191.447C179.923 192.06 179.427 192.911 179.256 193.853L168.907 250.999C168.8 251.586 168.823 252.191 168.975 252.768C169.128 253.346 169.405 253.883 169.788 254.342C170.171 254.801 170.649 255.17 171.191 255.423C171.732 255.676 172.322 255.808 172.919 255.808Z" fill="#263238"/>
<path d="M177.166 255.801H123.477V255.245C123.477 253.945 123.993 252.697 124.913 251.778C125.833 250.858 127.08 250.341 128.381 250.341H177.166V255.801Z" fill="#263238"/>
<path d="M184.152 190.498C184.072 190.498 181.105 205.115 177.524 223.116C173.942 241.117 171.099 255.764 171.172 255.764C171.245 255.764 174.22 241.183 177.809 223.146C181.397 205.108 184.204 190.513 184.152 190.498Z" fill="#455A64"/>
<path d="M222.669 224.082C222.822 223.517 223.141 223.01 223.586 222.628C224.03 222.246 224.579 222.007 225.161 221.941H224.92C225.528 221.826 226.156 221.91 226.712 222.182C227.268 222.454 227.721 222.898 228.003 223.448C228.285 223.999 228.382 224.625 228.278 225.235C228.175 225.845 227.877 226.405 227.428 226.831C226.98 227.258 226.406 227.528 225.792 227.601C225.178 227.674 224.556 227.546 224.021 227.236C223.485 226.927 223.064 226.453 222.82 225.884C222.577 225.316 222.524 224.683 222.669 224.082Z" fill="#455A64"/>
</svg>
