<svg width="321" height="208" viewBox="0 0 321 208" fill="none" xmlns="http://www.w3.org/2000/svg">
<path d="M160.385 207.373C248.835 207.373 320.538 199.297 320.538 189.333C320.538 179.37 248.835 171.293 160.385 171.293C71.9356 171.293 0.233032 179.37 0.233032 189.333C0.233032 199.297 71.9356 207.373 160.385 207.373Z" fill="#F1F2F2"/>
<path d="M308.308 37.379L307.028 36.7783C308.631 31.6055 306.229 25.9135 301.186 23.5475C296.144 21.1812 290.229 22.971 287.273 27.5088L285.993 26.908C284.942 26.415 283.691 26.8668 283.198 27.9168C282.705 28.9669 283.157 30.2179 284.207 30.7108L285.529 31.331L273.405 61.897L271.804 61.1455C270.754 60.6526 269.503 61.1046 269.01 62.1544C268.517 63.2044 268.969 64.4554 270.019 64.9481L271.854 65.809L252.456 114.714C249.868 120.227 259.583 124.786 262.171 119.273L287.409 73.1081L289.243 73.9691C290.294 74.462 291.545 74.01 292.038 72.9602C292.531 71.9102 292.079 70.6592 291.029 70.1665L289.428 69.4151L305.202 40.5618L306.523 41.1819C307.573 41.6748 308.825 41.2231 309.318 40.173C309.81 39.123 309.359 37.872 308.308 37.379Z" fill="#CF9D74"/>
<path d="M262.514 158.316H231.977V176.87H262.514V158.316Z" fill="#EF7418"/>
<path d="M202.465 131.971C202.465 149.806 216.928 164.265 234.769 164.265H259.723C277.563 164.265 292.026 149.806 292.026 131.971V86.0234H202.465V131.971Z" fill="#FB923B"/>
<path d="M293.743 75.2871H200.748C198.076 75.2871 195.909 77.4527 195.909 80.1242V81.1867C195.909 83.8583 198.076 86.0239 200.748 86.0239H293.743C296.416 86.0239 298.582 83.8583 298.582 81.1867V80.1242C298.582 77.4527 296.415 75.2871 293.743 75.2871Z" fill="#FFAB6C"/>
<path d="M288.613 182.157C280.346 178.395 264.916 175.865 247.245 175.865C229.575 175.865 214.145 178.395 205.878 182.157C201.736 184.041 203.762 188.468 208.738 188.468H285.753C290.729 188.468 292.754 184.041 288.613 182.157Z" fill="#FB923B"/>
<path d="M64.7374 80.1484H36.4712V89.374H64.7374V80.1484Z" fill="#9DAAAA"/>
<path d="M66.3245 74.9453H34.884C33.886 74.9453 33.0765 75.8469 33.0765 76.9591V78.6025C33.0765 79.7147 33.8857 80.6166 34.884 80.6166H66.3245C67.3225 80.6166 68.1317 79.7147 68.1317 78.6025V76.9591C68.1317 75.8469 67.3225 74.9453 66.3245 74.9453Z" fill="#C6D7D6"/>
<path d="M61.6183 51.2793H39.0152C36.5014 51.2793 34.5965 53.8071 35.031 56.566L37.0464 74.9449H63.587L65.6022 56.566C66.0369 53.8071 64.1321 51.2793 61.6183 51.2793Z" fill="#545372"/>
<path d="M58.2018 88.1895H42.4324C28.7932 88.1895 17.7363 100.51 17.7363 115.708V180.27C17.7363 184.466 20.7886 187.867 24.5537 187.867H76.0802C79.8453 187.867 82.8976 184.466 82.8976 180.27V115.708C82.8976 100.535 71.8197 88.1895 58.2018 88.1895Z" fill="#CAE0DE"/>
<path d="M67.4957 111.953H33.1391C29.8292 111.953 27.1461 114.943 27.1461 118.631V165.39C27.1461 168.577 29.4641 171.16 32.3236 171.16H68.3104C71.1699 171.16 73.4879 168.577 73.4879 165.39V118.63C73.4879 114.943 70.8051 111.953 67.4957 111.953Z" fill="#F5FCFC"/>
<path d="M39.4609 128.959C35.824 127.271 31.4087 126.121 31.4087 126.121C32.6487 127.6 34.5331 148.596 41.3403 154.768C48.1474 160.94 56.6064 158.2 56.6064 158.2C56.6064 158.2 60.1921 138.577 39.4609 128.959Z" fill="#99A84B"/>
<path d="M46.5072 146.526C43.5731 140.344 37.053 129.791 31.4087 126.121C32.6487 127.6 34.5331 148.596 41.3403 154.768C48.1474 160.94 56.6064 158.2 56.6064 158.2C56.6064 158.2 49.4411 152.707 46.5072 146.526Z" fill="#899743"/>
<path d="M61.813 126.295C61.813 126.295 57.9242 128.893 54.924 131.738C37.8221 147.956 46.6177 165.42 46.6177 165.42C46.6177 165.42 55.4231 165.148 60.2123 156.953C65.0016 148.759 61.0376 128.125 61.813 126.295Z" fill="#A5B650"/>
<path d="M61.813 126.295C57.4452 131.712 54.1308 143.98 53.0324 150.865C51.9337 157.75 46.6179 165.419 46.6179 165.419C46.6179 165.419 55.4234 165.148 60.2126 156.953C65.0015 148.759 61.0375 128.125 61.813 126.295Z" fill="#94A349"/>
<path d="M202.472 135.171C202.472 135.171 219.678 131.444 219.678 148.359C219.678 165.274 196.737 170.148 187.273 169.574L192.435 160.974C192.435 160.974 210.788 157.82 211.649 148.933C212.509 140.045 201.038 142.338 201.038 142.338L202.472 135.171Z" fill="#FFAD41"/>
<path d="M104.804 124.379H203.576C203.576 124.379 203.576 192.432 155.591 192.432C107.606 192.432 104.804 124.379 104.804 124.379Z" fill="#FFD049"/>
<path d="M190.693 124.379C188.101 144.009 178.589 180.017 143.682 180.017C133.894 180.017 125.987 177.184 119.599 172.676C127.141 183.794 138.498 192.433 155.591 192.433C203.576 192.433 203.576 124.379 203.576 124.379H190.693Z" fill="#FFAD41"/>
<path d="M170.371 96.5983C181.252 96.5983 190.073 87.7798 190.073 76.9017C190.073 66.0235 181.252 57.2051 170.371 57.2051C159.49 57.2051 150.669 66.0235 150.669 76.9017C150.669 87.7798 159.49 96.5983 170.371 96.5983Z" fill="#FFAD41"/>
<path d="M170.371 94.4975C180.091 94.4975 187.971 86.6197 187.971 76.9021C187.971 67.1844 180.091 59.3066 170.371 59.3066C160.65 59.3066 152.771 67.1844 152.771 76.9021C152.771 86.6197 160.65 94.4975 170.371 94.4975Z" fill="#FFF7B8"/>
<path d="M167.2 75.5884L158.713 67.1035C156.748 69.4383 155.477 72.3697 155.201 75.5884H167.2Z" fill="#FFD049"/>
<path d="M169.057 73.7324V61.7363C165.838 62.0117 162.905 63.2829 160.57 65.2472L169.057 73.7324Z" fill="#FFD049"/>
<path d="M171.684 61.7363V73.7324L180.171 65.2475C177.836 63.2829 174.904 62.012 171.684 61.7363Z" fill="#FFD049"/>
<path d="M167.2 78.2148H155.201C155.476 81.4335 156.748 84.3649 158.713 86.6997L167.2 78.2148Z" fill="#FFD049"/>
<path d="M173.542 75.5884H185.54C185.265 72.3697 183.993 69.4383 182.028 67.1035L173.542 75.5884Z" fill="#FFD049"/>
<path d="M173.542 78.2148L182.028 86.6997C183.993 84.3649 185.265 81.4335 185.54 78.2148H173.542Z" fill="#FFD049"/>
<path d="M171.684 80.0723V92.068C174.904 91.7927 177.836 90.5215 180.171 88.5571L171.684 80.0723Z" fill="#FFD049"/>
<path d="M169.057 80.0723L160.57 88.5571C162.905 90.5217 165.838 91.7927 169.057 92.068V80.0723Z" fill="#FFD049"/>
<path d="M128.892 116.229C137.712 116.229 144.861 109.081 144.861 100.265C144.861 91.4481 137.712 84.3008 128.892 84.3008C120.073 84.3008 112.924 91.4481 112.924 100.265C112.924 109.081 120.073 116.229 128.892 116.229Z" fill="#FFAD41"/>
<path d="M128.893 114.526C136.771 114.526 143.157 108.141 143.157 100.265C143.157 92.3887 136.771 86.0039 128.893 86.0039C121.014 86.0039 114.628 92.3887 114.628 100.265C114.628 108.141 121.014 114.526 128.893 114.526Z" fill="#FFF7B8"/>
<path d="M126.323 99.1992L119.444 92.3223C117.851 94.2147 116.821 96.5904 116.598 99.1992H126.323Z" fill="#FFD049"/>
<path d="M127.828 97.6953V87.9727C125.219 88.1958 122.842 89.2262 120.95 90.8184L127.828 97.6953Z" fill="#FFD049"/>
<path d="M129.957 87.9727V97.6953L136.836 90.8184C134.943 89.2262 132.567 88.196 129.957 87.9727Z" fill="#FFD049"/>
<path d="M126.323 101.328H116.598C116.821 103.937 117.851 106.313 119.444 108.205L126.323 101.328Z" fill="#FFD049"/>
<path d="M131.463 99.1992H141.188C140.965 96.5904 139.934 94.2147 138.342 92.3223L131.463 99.1992Z" fill="#FFD049"/>
<path d="M131.463 101.328L138.341 108.205C139.934 106.313 140.964 103.937 141.187 101.328H131.463Z" fill="#FFD049"/>
<path d="M129.957 102.834V112.557C132.567 112.333 134.943 111.303 136.836 109.711L129.957 102.834Z" fill="#FFD049"/>
<path d="M127.828 102.834L120.95 109.711C122.842 111.303 125.219 112.333 127.828 112.557V102.834Z" fill="#FFD049"/>
<path d="M196.658 95.4902C196.658 95.4902 198.497 120.965 183.524 115.449L192.981 101.005L180.372 113.611C180.372 113.611 171.178 101.268 196.658 95.4902Z" fill="#A2CC56"/>
<path d="M202.39 10.9746C202.39 10.9746 204.229 36.4489 189.255 30.9338L198.713 16.4896L186.103 29.0953C186.103 29.0953 176.909 16.752 202.39 10.9746Z" fill="#A2CC56"/>
<path d="M148.606 105.17C148.606 105.17 165.112 109.963 158.132 118.119L151.227 108.778L156.236 119.678C156.235 119.678 146.297 122.593 148.606 105.17Z" fill="#A2CC56"/>
<path d="M199.711 52.6465C199.711 52.6465 216.218 57.4399 209.238 65.5955L202.332 56.255L207.341 67.1543C207.341 67.1543 197.403 70.0691 199.711 52.6465Z" fill="#A2CC56"/>
<path d="M130.638 53.3203C130.638 53.3203 155.035 67.1712 140.868 77.483L133.436 60.041L137.266 79.2411C137.266 79.2411 120.383 80.1123 130.638 53.3203Z" fill="#A2CC56"/>
<path d="M112.671 16.14C112.671 16.14 133.564 15.39 128.61 27.469L117.074 19.31L127.013 29.992C127.013 29.9917 116.644 37.144 112.671 16.14Z" fill="#A2CC56"/>
<path d="M135.868 45.0027C135.532 41.9372 137.112 42.363 135.706 39.7025C134.3 37.042 132.515 30.7103 134.978 28.4877C137.442 26.2652 140.492 27.3083 140.47 30.1612C140.447 33.0141 140.837 35.2591 142.06 35.2687C143.283 35.2784 145.545 32.8504 143.343 27.7382C141.14 22.626 135.887 16.6744 136.935 13.0142C137.983 9.35404 141.471 6.52824 143.289 8.58048C145.108 10.6327 142.452 11.427 145.108 10.6327C147.765 9.83842 148.398 6.99022 150.638 7.41543C152.877 7.84064 157.544 10.5268 157.514 14.3988C157.483 18.2708 151.753 21.0789 151.33 23.1137C150.906 25.1485 151.917 26.1753 154.368 25.5831C156.819 24.9909 162.172 18.3075 160.777 14.2208C159.382 10.1337 153.907 6.42235 155.57 2.35934C157.233 -1.70368 161.701 0.369578 163.727 2.01568C165.753 3.66207 167.372 5.10137 166.947 7.33968C166.947 7.33968 170.846 4.1094 175.698 9.24263C180.55 14.3759 176.024 19.639 172.537 22.2611C169.051 24.8831 168.632 26.3064 168.632 26.3064C168.632 26.3064 171.683 27.1455 171.857 31.0191C172.03 34.8927 165.896 37.29 165.896 37.29C165.896 37.29 167.521 37.9143 172.03 34.8925C176.539 31.8709 177.367 30.2469 180.609 32.718C183.851 35.1891 184.254 35.8037 178.287 42.8899C172.319 49.9761 169.852 52.6062 164.78 49.5092C159.708 46.4124 158.512 42.9383 156.258 44.551C154.002 46.1636 150.497 51.231 144.788 51.39C139.079 51.5495 136.249 48.4702 135.868 45.0027Z" fill="#FDAC68"/>
<path d="M137.253 32.0967C138.087 32.6046 139.446 32.5963 140.56 32.39C140.508 31.8775 140.478 31.3182 140.471 30.7226C139.313 30.6665 137.97 30.8437 137.174 31.4868C136.974 31.6488 137.057 31.9773 137.253 32.0967Z" fill="#FB9A5B"/>
<path d="M141.069 36.4367C141.485 36.1107 141.888 35.7043 142.203 35.2545C142.155 35.2608 142.106 35.2708 142.06 35.2705C141.579 35.2666 141.229 34.913 140.98 34.3164C140.532 34.7167 140.026 35.0579 139.771 35.2213C138.904 35.777 137.717 35.8666 136.995 36.6299C136.866 36.7657 136.848 37.0012 136.995 37.1342C138.162 38.1892 140.035 37.2462 141.069 36.4367Z" fill="#FB9A5B"/>
<path d="M160.966 5.66973C161.066 5.42284 160.767 5.14443 160.527 5.23097C158.995 5.78584 157.554 6.47951 155.988 6.55443C156.218 7.0095 156.488 7.46319 156.786 7.91688C158.514 8.04876 160.253 7.42891 160.966 5.66973Z" fill="#FB9A5B"/>
<path d="M174.329 17.3429C174.897 17.8414 175.57 18.2807 176.253 18.4806C176.578 18.0064 176.867 17.5113 177.106 16.999C175.94 16.5483 174.846 15.182 174.123 14.4709C173.027 13.3943 172.11 11.9943 170.591 11.519C170.211 11.3999 169.964 11.7673 170.011 12.0985C170.313 14.2475 172.8 16.0004 174.329 17.3429Z" fill="#FB9A5B"/>
<path d="M156.837 40.0452C155.844 38.2 153.761 35.6402 151.458 35.9081C151.134 35.9454 150.973 36.2211 151.106 36.521C151.801 38.0933 153.445 38.9534 154.556 40.2291C155.567 41.3897 156.428 42.743 157.004 44.1956C157.425 44.0925 157.827 44.1691 158.248 44.3858C158.025 42.8865 157.591 41.4466 156.837 40.0452Z" fill="#FB9A5B"/>
<path d="M145.558 37.9239C145.222 37.8506 144.879 38.0776 144.88 38.4398C144.889 40.56 147.022 41.6742 148.382 43.0331C149.942 44.5929 150.507 46.847 151.198 48.988C151.854 48.508 152.461 47.9965 153.023 47.4898C152.086 43.2808 149.341 38.7475 145.558 37.9239Z" fill="#FB9A5B"/>
<path d="M180.38 38.3264C179.546 37.7417 178.65 37.0873 177.603 37.0259C177.358 37.0115 177.102 37.3062 177.204 37.5498C177.593 38.4729 178.403 39.0707 179.195 39.649C179.558 39.9145 179.925 40.1813 180.298 40.4373C180.708 39.9175 181.055 39.4533 181.364 39.0215C181.036 38.7834 180.703 38.5531 180.38 38.3264Z" fill="#FB9A5B"/>
<path d="M173.035 39.333C172.678 39.13 172.248 39.4615 172.352 39.858C172.72 41.2663 173.698 42.5149 174.43 43.7584C174.866 44.4991 175.19 45.3031 175.529 46.0955C176.053 45.5091 176.6 44.8809 177.187 44.1917C176.217 42.1486 174.52 40.177 173.035 39.333Z" fill="#FB9A5B"/>
<path d="M169.767 22.3836C170.116 22.6482 170.612 23.0353 171.157 23.3728C171.555 23.03 172.007 22.6623 172.537 22.2631C172.564 22.2429 172.592 22.2208 172.619 22.2001C171.557 21.4716 169.97 20.1334 169.757 19.9562C168.685 19.0674 167.757 17.8056 166.422 17.3267C166.033 17.1874 165.75 17.5985 165.811 17.9377C166.151 19.8348 168.33 21.2941 169.767 22.3836Z" fill="#FB9A5B"/>
<path d="M149.51 12.5796C149.919 14.6346 151.877 16.0886 153.528 17.1834C154.019 17.5091 154.805 17.9979 155.636 18.3424C156.005 17.9277 156.343 17.4953 156.631 17.046C155.648 16.5727 154.656 15.8376 153.986 15.377C152.59 14.4168 151.615 12.9581 150.183 12.0621C149.819 11.8337 149.435 12.2067 149.51 12.5796Z" fill="#FB9A5B"/>
<path d="M161.124 38.9879C161.519 39.1905 161.913 38.7877 161.716 38.3951C161.089 37.1424 160.054 36.096 159.191 35.0031C158.165 33.7048 157.213 32.25 156.031 31.0919C155.804 30.8693 155.437 31.0938 155.509 31.3954C156.166 34.117 158.596 37.6921 161.124 38.9879Z" fill="#FB9A5B"/>
<path d="M170.2 34.5505C168.585 33.8734 166.986 33.4631 165.475 32.4811C163.929 31.4764 162.84 29.7805 161.09 29.1311C160.763 29.0097 160.425 29.3793 160.526 29.6951C161.128 31.5825 163.009 32.9378 164.538 34.0827C165.652 34.9162 167.163 35.6785 168.642 35.8109C169.176 35.4504 169.715 35.0293 170.2 34.5505Z" fill="#FB9A5B"/>
<path d="M170.234 50.4685C170.943 47.6217 170.688 44.3173 168.93 43.5103C168.62 43.3679 168.162 43.3936 167.997 43.7547C167.362 45.144 168.137 46.7367 168.138 48.2321C168.138 48.7826 168.038 49.7436 167.819 50.7226C168.656 50.8487 169.448 50.7627 170.234 50.4685Z" fill="#FB9A5B"/>
<path d="M151.023 24.7013C151.16 24.7621 151.298 24.8246 151.437 24.8862C151.23 24.4688 151.191 23.9092 151.314 23.2324C150.963 23.0397 150.639 22.8558 150.407 22.7682C149.422 22.3955 148.456 21.9653 147.392 21.9164C147.091 21.9026 146.954 22.291 147.153 22.4928C148.191 23.5437 149.695 24.1102 151.023 24.7013Z" fill="#FB9A5B"/>
<path d="M163.155 8.40231C162.041 8.72633 161.083 9.42525 159.973 9.78107C159.448 9.94944 158.829 9.9276 158.236 9.96105C158.652 10.5262 159.063 11.0946 159.441 11.6672C159.676 11.6461 159.902 11.6177 160.095 11.5823C161.577 11.3091 163.316 10.5533 163.696 8.94281C163.771 8.62431 163.488 8.30582 163.155 8.40231Z" fill="#FB9A5B"/>
<path d="M161.112 24.0443C162.356 26.1134 165.472 26.8759 167.715 27.0951C168.137 27.1361 169.163 27.2397 170.128 27.1695C169.362 26.5121 168.632 26.308 168.632 26.308C168.632 26.308 168.73 25.9882 169.193 25.3799C167.821 25.18 166.23 24.8704 166.003 24.8112C164.473 24.4117 163.062 23.5458 161.486 23.3924C161.152 23.36 160.954 23.7822 161.112 24.0443Z" fill="#FB9A5B"/>
<path d="M147.15 15.9401C146.838 15.7211 146.439 16.0803 146.532 16.4145C147.21 18.8406 149.492 20.7543 151.976 21.986C152.318 21.5776 152.762 21.1425 153.255 20.6813C152.622 20.3589 152 20.0122 151.393 19.6116C149.815 18.5691 148.688 17.0208 147.15 15.9401Z" fill="#FB9A5B"/>
<path d="M119.093 79.2796C117.426 82.6907 90.9202 31.7115 92.0393 30.2865C93.1588 28.8613 119.927 77.5741 119.093 79.2796Z" fill="#87C457"/>
<path d="M111.325 65.484C111.325 65.484 109.796 53.0467 112.344 53.0235C114.891 53.0002 116.461 69.965 111.325 65.484Z" fill="#87C457"/>
<path d="M112.344 53.0232C110.4 53.4058 110.122 57.7127 111.26 58.4097C112.399 59.1067 113.529 58.8136 114.23 58.0997C114.931 57.3859 114.604 52.5781 112.344 53.0232Z" fill="#C0A1BF"/>
<path d="M105.688 55.6624C105.688 55.6624 104.225 43.7565 106.663 43.7344C109.102 43.712 110.604 59.9519 105.688 55.6624Z" fill="#87C457"/>
<path d="M106.663 43.7348C104.802 44.1011 104.536 48.2239 105.626 48.8913C106.716 49.5587 107.797 49.2778 108.469 48.5946C109.14 47.9112 108.827 43.3088 106.663 43.7348Z" fill="#C0A1BF"/>
<path d="M100.894 45.9833C100.894 45.9833 99.5127 34.7417 101.815 34.7207C104.118 34.6997 105.536 50.0333 100.894 45.9833Z" fill="#87C457"/>
<path d="M101.815 34.7216C100.058 35.0674 99.807 38.9601 100.836 39.5902C101.865 40.2203 102.886 39.9551 103.52 39.3101C104.154 38.6649 103.859 34.3193 101.815 34.7216Z" fill="#C0A1BF"/>
<path d="M95.9121 37.2219C95.9121 37.2219 94.7423 27.7033 96.692 27.6856C98.6416 27.6679 99.843 40.6512 95.9121 37.2219Z" fill="#87C457"/>
<path d="M96.692 27.6863C95.2042 27.9791 94.9915 31.2752 95.8629 31.8087C96.7343 32.3423 97.5988 32.1178 98.1353 31.5715C98.6721 31.025 98.4221 27.3457 96.692 27.6863Z" fill="#C0A1BF"/>
<path d="M94.2465 33.8621C94.2465 33.8621 87.9128 29.9218 87.2623 31.2909C86.6116 32.66 95.3798 37.7565 94.2465 33.8621Z" fill="#87C457"/>
<path d="M87.262 31.2911C87.9556 30.3379 90.3511 31.2665 90.4423 32.0556C90.5336 32.8446 90.0922 33.381 89.5311 33.5806C88.97 33.7802 86.4556 32.3995 87.262 31.2911Z" fill="#C0A1BF"/>
<path d="M98.4389 42.4896C98.4389 42.4896 90.6682 37.6552 89.8701 39.335C89.072 41.0146 99.8296 47.2676 98.4389 42.4896Z" fill="#87C457"/>
<path d="M89.8702 39.3341C90.7211 38.1644 93.6599 39.304 93.7719 40.2722C93.8839 41.2404 93.3424 41.8981 92.6541 42.1431C91.9658 42.388 88.8807 40.6941 89.8702 39.3341Z" fill="#C0A1BF"/>
<path d="M103.815 51.0914C103.815 51.0914 95.1653 45.7104 94.277 47.5802C93.3885 49.4497 105.363 56.4096 103.815 51.0914Z" fill="#87C457"/>
<path d="M94.2768 47.5796C95.224 46.2777 98.4952 47.5462 98.6197 48.6239C98.7444 49.7015 98.1415 50.4339 97.3755 50.7065C96.6092 50.9791 93.1756 49.0936 94.2768 47.5796Z" fill="#C0A1BF"/>
<path d="M108.784 61.1118C108.784 61.1118 99.3112 55.2186 98.3383 57.2661C97.3651 59.3139 110.479 66.9365 108.784 61.1118Z" fill="#87C457"/>
<path d="M98.338 57.2651C99.3753 55.8391 102.958 57.2284 103.095 58.4086C103.231 59.5889 102.571 60.3909 101.732 60.6895C100.893 60.9881 97.132 58.9231 98.338 57.2651Z" fill="#C0A1BF"/>
<path d="M102.898 88.5511C100.984 90.1707 93.3684 85.0092 94.2462 83.9036C95.1239 82.798 98.1161 84.618 98.1161 84.618C98.1161 84.618 95.3122 81.4779 96.7561 81.1265C98.1999 80.7751 99.6897 82.706 99.6897 82.706C99.6897 82.706 99.0127 80.4497 100.574 80.5796C102.135 80.7096 104.166 87.4778 102.898 88.5511Z" fill="#D9C7D9"/>
<path d="M105.991 113.705C103.498 113.44 101.971 104.369 103.377 104.24C104.783 104.111 105.534 107.532 105.534 107.532C105.534 107.532 105.868 103.336 107.12 104.137C108.371 104.938 108.004 107.349 108.004 107.349C108.004 107.349 109.168 105.301 110.152 106.519C111.137 107.737 107.643 113.88 105.991 113.705Z" fill="#D9C7D9"/>
<path d="M190.572 53.9424C188.223 53.0643 189.007 43.8999 190.401 44.1252C191.795 44.3508 191.668 47.8501 191.668 47.8501C191.668 47.8501 193.039 43.87 194.051 44.9579C195.063 46.0455 194.106 48.2885 194.106 48.2885C194.106 48.2885 195.744 46.5957 196.393 48.0209C197.043 49.4459 192.128 54.5243 190.572 53.9424Z" fill="#D9C7D9"/>
<path d="M75.4313 150.224C74.5554 153.337 74.3126 157.218 76.8765 160.241C81.9768 166.254 86.2237 168.967 86.2237 168.967C86.2237 168.967 87.8561 164.2 88.1009 156.32C88.224 152.359 85.6159 149.473 82.9914 147.583C80.2517 145.609 76.3452 146.974 75.4313 150.224Z" fill="#D9C7D9"/>
<path d="M73.8649 164.582C70.1346 163.241 66.5835 164.829 63.974 166.74C61.25 168.735 61.3407 172.871 64.1502 174.744C66.8409 176.539 70.4584 177.969 74.1262 176.466C81.4226 173.475 85.3164 170.275 85.3164 170.275C85.3164 170.275 81.2857 167.25 73.8649 164.582Z" fill="#D9C7D9"/>
<path d="M77.3258 180.672C74.8972 183.804 75.3106 187.672 76.3225 190.743C77.3786 193.95 81.3412 195.141 83.9914 193.049C86.53 191.045 89.0087 188.048 88.7117 184.096C88.1207 176.234 86.2803 171.543 86.2803 171.543C86.2803 171.543 82.1568 174.441 77.3258 180.672Z" fill="#D9C7D9"/>
<path d="M100.476 172.583C92.8149 170.716 87.7834 171.016 87.7834 171.016C87.7834 171.016 89.2657 175.832 93.701 182.351C95.9305 185.628 99.7371 186.43 102.972 186.417C106.349 186.404 108.706 183.004 107.535 179.838C106.413 176.805 104.328 173.522 100.476 172.583Z" fill="#D9C7D9"/>
<path d="M102.245 153.371C99.0125 153.501 95.2449 154.469 93.1617 157.841C89.0174 164.548 87.7483 169.425 87.7483 169.425C87.7483 169.425 92.7881 169.504 100.36 167.301C104.166 166.194 106.105 162.823 107.093 159.743C108.124 156.528 105.619 153.236 102.245 153.371Z" fill="#D9C7D9"/>
<path d="M86.6706 174.522C89.0326 174.522 90.9473 172.608 90.9473 170.246C90.9473 167.885 89.0326 165.971 86.6706 165.971C84.3086 165.971 82.3938 167.885 82.3938 170.246C82.3938 172.608 84.3086 174.522 86.6706 174.522Z" fill="#FDF7BE"/>
</svg>
