<svg width="20" height="20" viewBox="0 0 20 20" fill="none" xmlns="http://www.w3.org/2000/svg">
<path fill-rule="evenodd" clip-rule="evenodd" d="M11.2754 1.32502L17.704 4.851C18.0978 5.0669 18.425 5.37892 18.6526 5.7554C18.8802 6.13188 19.0001 6.55945 19 6.99473V12.7681C19.0001 13.2034 18.8802 13.631 18.6526 14.0074C18.425 14.3839 18.0978 14.6959 17.704 14.9118L11.2754 18.4378C10.887 18.6508 10.4474 18.7628 10 18.7628C9.55264 18.7628 9.11302 18.6508 8.72457 18.4378L2.296 14.9118C1.90224 14.6959 1.57497 14.3839 1.34736 14.0074C1.11976 13.631 0.99992 13.2034 1 12.7681V6.99473C0.99992 6.55945 1.11976 6.13188 1.34736 5.7554C1.57497 5.37892 1.90224 5.0669 2.296 4.851L8.72457 1.32502C9.11302 1.11203 9.55264 1 10 1C10.4474 1 10.887 1.11203 11.2754 1.32502V1.32502Z" stroke="black" stroke-width="1.5" stroke-linecap="round" stroke-linejoin="round"/>
<path d="M14.5001 8.03037L5.50006 3.09375" stroke="black" stroke-width="1.5" stroke-linecap="round" stroke-linejoin="round"/>
<path d="M1.64288 6.17773L8.78116 9.86786C9.15578 10.0614 9.57457 10.1628 10 10.1628C10.4255 10.1628 10.8443 10.0614 11.2189 9.86786L18.3572 6.17773" stroke="black" stroke-width="1.5" stroke-linecap="round" stroke-linejoin="round"/>
<path d="M9.99976 10.5V18.522" stroke="black" stroke-width="1.5" stroke-linecap="round" stroke-linejoin="round"/>
</svg>
