<svg width="339" height="239" viewBox="0 0 339 239" fill="none" xmlns="http://www.w3.org/2000/svg">
<path d="M195.906 238.479C264.607 238.479 320.3 233.535 320.3 227.436C320.3 221.337 264.607 216.393 195.906 216.393C127.205 216.393 71.5122 221.337 71.5122 227.436C71.5122 233.535 127.205 238.479 195.906 238.479Z" fill="#EBEBEB"/>
<path d="M267.652 225.399H194.258L190.983 160.879H267.652V225.399Z" fill="#DBDBDB"/>
<path d="M267.652 160.878L294.017 127.871L314.999 160.878L311.723 225.399H267.652V160.878Z" fill="#C7C7C7"/>
<path d="M216.601 117.391H294.948L323.207 163.488H314.108L294.948 131.576L272.851 167.296H184.515L216.601 117.391Z" fill="#A6A6A6"/>
<path d="M225.679 131.975H208.833L199.846 142.742H219.293L225.679 131.975Z" fill="#C7C7C7"/>
<path d="M212.916 140.902V154.012H203.541V140.902L208.229 135.037L212.916 140.902Z" fill="#DBDBDB"/>
<path d="M212.917 140.891H220.286L212.917 154.012V140.891Z" fill="#C7C7C7"/>
<path d="M210.655 141.105H205.322V150.102H210.655V141.105Z" fill="#FBFAFF"/>
<path d="M207.697 141.729H205.977V144.625H207.697V141.729Z" fill="#EBEBEB"/>
<path d="M209.989 141.729H208.27V144.625H209.989V141.729Z" fill="#EBEBEB"/>
<path d="M207.697 145.148H205.977V149.437H207.697V145.148Z" fill="#EBEBEB"/>
<path d="M209.989 145.148H208.27V149.437H209.989V145.148Z" fill="#EBEBEB"/>
<path d="M266.925 131.975H250.079L241.646 142.742H260.498L266.925 131.975Z" fill="#C7C7C7"/>
<path d="M254.163 140.902V154.012H244.788V140.902L249.475 135.037L254.163 140.902Z" fill="#DBDBDB"/>
<path d="M254.163 140.891H261.542L254.163 154.012V140.891Z" fill="#C7C7C7"/>
<path d="M251.901 141.105H246.568V150.102H251.901V141.105Z" fill="#FBFAFF"/>
<path d="M248.943 141.729H247.224V144.625H248.943V141.729Z" fill="#EBEBEB"/>
<path d="M251.246 141.729H249.526V144.625H251.246V141.729Z" fill="#EBEBEB"/>
<path d="M248.943 145.148H247.224V149.437H248.943V145.148Z" fill="#EBEBEB"/>
<path d="M251.246 145.148H249.526V149.437H251.246V145.148Z" fill="#EBEBEB"/>
<path d="M280.896 115.527H271.521V127.871H280.896V115.527Z" fill="#DBDBDB"/>
<path d="M280.896 115.527H288.265V117.513L280.896 127.871V115.527Z" fill="#C7C7C7"/>
<path d="M280.896 111.332H270.467V115.528H280.896V111.332Z" fill="#C7C7C7"/>
<path d="M289.074 111.332H280.896V115.528H289.074V111.332Z" fill="#A6A6A6"/>
<path d="M213.623 172.576H202.016V192.176H213.623V172.576Z" fill="#FBFAFF"/>
<path d="M207.185 173.939H203.449V180.254H207.185V173.939Z" fill="#EBEBEB"/>
<path d="M212.19 173.939H208.454V180.254H212.19V173.939Z" fill="#EBEBEB"/>
<path d="M207.185 181.389H203.449V190.743H207.185V181.389Z" fill="#EBEBEB"/>
<path d="M212.19 181.389H208.454V190.743H212.19V181.389Z" fill="#EBEBEB"/>
<path d="M256.732 172.576H245.125V192.176H256.732V172.576Z" fill="#FBFAFF"/>
<path d="M250.294 173.939H246.558V180.254H250.294V173.939Z" fill="#EBEBEB"/>
<path d="M255.299 173.939H251.563V180.254H255.299V173.939Z" fill="#EBEBEB"/>
<path d="M250.294 181.389H246.558V190.743H250.294V181.389Z" fill="#EBEBEB"/>
<path d="M255.299 181.389H251.563V190.743H255.299V181.389Z" fill="#EBEBEB"/>
<path d="M213.623 199.812H202.016V219.412H213.623V199.812Z" fill="#FBFAFF"/>
<path d="M207.185 201.174H203.449V207.489H207.185V201.174Z" fill="#EBEBEB"/>
<path d="M212.19 201.174H208.454V207.489H212.19V201.174Z" fill="#EBEBEB"/>
<path d="M207.185 208.623H203.449V217.978H207.185V208.623Z" fill="#EBEBEB"/>
<path d="M212.19 208.623H208.454V217.978H212.19V208.623Z" fill="#EBEBEB"/>
<path d="M256.732 199.812H245.125V219.412H256.732V199.812Z" fill="#FBFAFF"/>
<path d="M250.294 201.174H246.558V207.489H250.294V201.174Z" fill="#EBEBEB"/>
<path d="M255.299 201.174H251.563V207.489H255.299V201.174Z" fill="#EBEBEB"/>
<path d="M250.294 208.623H246.558V217.978H250.294V208.623Z" fill="#EBEBEB"/>
<path d="M255.299 208.623H251.563V217.978H255.299V208.623Z" fill="#EBEBEB"/>
<path d="M235.116 172.576H223.509V192.176H235.116V172.576Z" fill="#FBFAFF"/>
<path d="M228.678 173.939H224.942V180.254H228.678V173.939Z" fill="#EBEBEB"/>
<path d="M233.693 173.939H229.957V180.254H233.693V173.939Z" fill="#EBEBEB"/>
<path d="M228.678 181.389H224.942V190.743H228.678V181.389Z" fill="#EBEBEB"/>
<path d="M233.693 181.389H229.957V190.743H233.693V181.389Z" fill="#EBEBEB"/>
<path d="M235.116 199.945H223.509V219.545H235.116V199.945Z" fill="#FBFAFF"/>
<path d="M228.678 201.297H224.942V207.612H228.678V201.297Z" fill="#EBEBEB"/>
<path d="M233.693 201.297H229.957V207.612H233.693V201.297Z" fill="#EBEBEB"/>
<path d="M228.678 208.758H224.942V218.112H228.678V208.758Z" fill="#EBEBEB"/>
<path d="M233.693 208.758H229.957V218.112H233.693V208.758Z" fill="#EBEBEB"/>
<path d="M288.511 192.178H300.117V172.578H288.511V192.178Z" fill="#FBFAFF"/>
<path d="M298.684 173.939H294.948V180.254H298.684V173.939Z" fill="#EBEBEB"/>
<path d="M293.669 173.939H289.933V180.254H293.669V173.939Z" fill="#EBEBEB"/>
<path d="M298.684 181.389H294.948V190.743H298.684V181.389Z" fill="#EBEBEB"/>
<path d="M293.669 181.389H289.933V190.743H293.669V181.389Z" fill="#EBEBEB"/>
<path d="M288.511 161.881H300.117V145.29H288.511V161.881Z" fill="#FBFAFF"/>
<path d="M298.684 146.643H294.948V152.957H298.684V146.643Z" fill="#EBEBEB"/>
<path d="M293.669 146.643H289.933V152.957H293.669V146.643Z" fill="#EBEBEB"/>
<path d="M298.684 154.166H294.948V160.481H298.684V154.166Z" fill="#EBEBEB"/>
<path d="M293.669 154.166H289.933V160.481H293.669V154.166Z" fill="#EBEBEB"/>
<path d="M286.86 225.52L300.932 225.586L301.053 200.03L286.98 199.964L286.86 225.52Z" fill="#FBFAFF"/>
<path d="M292.481 201.731L292.463 205.559L295.493 205.573L295.511 201.745L292.481 201.731Z" fill="#EBEBEB"/>
<path d="M288.522 201.711L288.504 205.539L291.534 205.553L291.552 201.726L288.522 201.711Z" fill="#EBEBEB"/>
<path d="M290.723 219.458L297.12 219.488L297.124 218.567L290.728 218.537L290.723 219.458Z" fill="#EBEBEB"/>
<path d="M294.375 199.782V203.609H297.405V199.782H294.375Z" fill="#EBEBEB"/>
<path d="M292.471 206.567L292.453 210.395L295.482 210.409L295.5 206.581L292.471 206.567Z" fill="#EBEBEB"/>
<path d="M288.481 206.536L288.463 210.363L291.492 210.378L291.51 206.55L288.481 206.536Z" fill="#EBEBEB"/>
<path d="M296.44 206.586L296.422 210.414L299.452 210.428L299.47 206.601L296.44 206.586Z" fill="#EBEBEB"/>
<path d="M292.45 211.409L292.432 215.236L295.462 215.251L295.48 211.423L292.45 211.409Z" fill="#EBEBEB"/>
<path d="M288.471 211.389L288.453 215.217L291.482 215.231L291.5 211.403L288.471 211.389Z" fill="#EBEBEB"/>
<path d="M296.419 211.43L296.401 215.258L299.431 215.272L299.449 211.444L296.419 211.43Z" fill="#EBEBEB"/>
<path d="M91.4292 225.583H112.574L114.591 203.793H91.4292V225.583Z" fill="#C7C7C7"/>
<path d="M107.621 209.432H98.7264V225.572H107.621V209.432Z" fill="#FBFAFF"/>
<path d="M104.131 210.537H102.217V212.953H104.131V210.537Z" fill="#DBDBDB"/>
<path d="M106.638 210.537H104.724V212.953H106.638V210.537Z" fill="#DBDBDB"/>
<path d="M105.195 220.057H101.152V220.64H105.195V220.057Z" fill="#DBDBDB"/>
<path d="M101.623 210.537H99.7091V212.953H101.623V210.537Z" fill="#DBDBDB"/>
<path d="M121.56 225.584H88.6145L86.3628 201.215H121.56V225.584Z" fill="#FFEBB0"/>
<path d="M121.56 201.213L139.625 178.594L154.005 201.213L151.763 225.582H121.56V201.213Z" fill="#FFD049"/>
<path d="M123.74 204.193H79.0348L106.229 169.998H139.809L159.992 204.193H154.865L139.809 180.765L123.74 204.193Z" fill="#EC9727"/>
<path d="M168.856 139.754H159.542V152.015H168.856V139.754Z" fill="#FFEBB0"/>
<path d="M176.184 139.754H168.855V152.015H176.184V139.754Z" fill="#FFD049"/>
<path d="M168.855 135.58H158.498V139.746H168.855V135.58Z" fill="#FFD049"/>
<path d="M176.982 135.58H168.855V139.746H176.982V135.58Z" fill="#FFAD41"/>
<path d="M201.586 225.552H128.663L125.398 190.211H201.586V225.552Z" fill="#FFEBB0"/>
<path d="M201.586 190.213L227.777 157.41L248.636 190.213L245.371 225.554H201.586V190.213Z" fill="#FFD049"/>
<path d="M227.46 159.486L248.994 192.791H256.517L228.105 147H150.535L111.233 196.588H205.977L227.46 159.486Z" fill="#FFAD41"/>
<path d="M220.971 195.176H232.506V178.688H220.971V195.176Z" fill="#FBFAFF"/>
<path d="M231.083 180.027H227.368V186.301H231.083V180.027Z" fill="#FFD049"/>
<path d="M226.109 180.027H222.394V186.301H226.109V180.027Z" fill="#FFD049"/>
<path d="M231.083 187.5H227.368V193.774H231.083V187.5Z" fill="#FFD049"/>
<path d="M226.109 187.5H222.394V193.774H226.109V187.5Z" fill="#FFD049"/>
<path d="M148.069 203.322H136.534V219.811H148.069V203.322Z" fill="#FBFAFF"/>
<path d="M141.672 204.674H137.957V210.948H141.672V204.674Z" fill="#FFD049"/>
<path d="M146.656 204.674H142.941V210.948H146.656V204.674Z" fill="#FFD049"/>
<path d="M141.672 212.145H137.957V218.418H141.672V212.145Z" fill="#FFD049"/>
<path d="M146.656 212.145H142.941V218.418H146.656V212.145Z" fill="#FFD049"/>
<path d="M169.265 203.322H157.73V219.811H169.265V203.322Z" fill="#FBFAFF"/>
<path d="M162.858 204.674H159.143V210.948H162.858V204.674Z" fill="#FFD049"/>
<path d="M167.842 204.674H164.127V210.948H167.842V204.674Z" fill="#FFD049"/>
<path d="M162.858 212.145H159.143V218.418H162.858V212.145Z" fill="#FFD049"/>
<path d="M167.842 212.145H164.127V218.418H167.842V212.145Z" fill="#FFD049"/>
<path d="M190.451 203.322H178.916V219.811H190.451V203.322Z" fill="#FBFAFF"/>
<path d="M184.054 204.674H180.339V210.948H184.054V204.674Z" fill="#FFD049"/>
<path d="M189.028 204.674H185.313V210.948H189.028V204.674Z" fill="#FFD049"/>
<path d="M184.054 212.145H180.339V218.418H184.054V212.145Z" fill="#FFD049"/>
<path d="M189.028 212.145H185.313V218.418H189.028V212.145Z" fill="#FFD049"/>
<path d="M220.377 225.541H233.099V202.441H220.377V225.541Z" fill="#FBFAFF"/>
<path d="M228.115 204.039H225.372V207.498H228.115V204.039Z" fill="#FFD049"/>
<path d="M224.523 204.039H221.78V207.498H224.523V204.039Z" fill="#FFD049"/>
<path d="M223.847 220.047H229.63V219.208H223.847V220.047Z" fill="#FFD049"/>
<path d="M231.697 204.039H228.954V207.498H231.697V204.039Z" fill="#FFD049"/>
<path d="M228.115 208.408H225.372V211.868H228.115V208.408Z" fill="#FFD049"/>
<path d="M224.523 208.408H221.78V211.868H224.523V208.408Z" fill="#FFD049"/>
<path d="M231.697 208.408H228.954V211.868H231.697V208.408Z" fill="#FFD049"/>
<path d="M228.115 212.779H225.372V216.239H228.115V212.779Z" fill="#FFD049"/>
<path d="M224.523 212.779H221.78V216.239H224.523V212.779Z" fill="#FFD049"/>
<path d="M231.697 212.779H228.954V216.239H231.697V212.779Z" fill="#FFD049"/>
<path d="M180.564 158.873H163.82L155.213 169.62H174.167L180.564 158.873Z" fill="#EC9727"/>
<path d="M167.883 167.734V180.763H158.559V167.734L163.226 161.91L167.883 167.734Z" fill="#FFEBB0"/>
<path d="M167.883 167.736H175.211L167.883 180.765V167.736Z" fill="#FFD049"/>
<path d="M165.621 167.939H160.33V176.874H165.621V167.939Z" fill="#FBFAFF"/>
<path d="M162.694 168.555H160.985V171.431H162.694V168.555Z" fill="#FFD049"/>
<path d="M164.976 168.555H163.267V171.431H164.976V168.555Z" fill="#FFD049"/>
<path d="M162.694 171.965H160.985V176.233H162.694V171.965Z" fill="#FFD049"/>
<path d="M164.976 171.965H163.267V176.233H164.976V171.965Z" fill="#FFD049"/>
<path d="M215.738 57.0176C215.794 57.0677 215.847 57.1207 215.897 57.1762L216.349 57.644L218.093 59.4915L224.675 66.5407L247.995 91.6847H247.725L274.178 61.3867L274.36 61.1805L274.511 61.4104L276.437 64.3126L296.451 94.4441L296.174 94.3966L315.41 79.0295L315.521 78.9423L315.616 79.0453L330.301 95.697L334.266 100.24L335.297 101.43C335.527 101.699 335.638 101.842 335.638 101.842C335.638 101.842 335.503 101.715 335.265 101.462L334.219 100.24L330.175 95.7525L315.394 79.2198H315.6L296.411 94.6899L296.253 94.8168L296.134 94.6424L276.096 64.5584L274.162 61.6483H274.487C264.861 72.6701 255.805 83.0179 248.003 91.9464L247.868 92.097L247.733 91.9464C238.154 81.5272 230.138 72.8208 224.516 66.6993L218.014 59.5629L216.309 57.6757C216.127 57.4616 215.984 57.3031 215.873 57.1841C215.762 57.0652 215.73 57.0255 215.738 57.0176Z" fill="#FFEBB1"/>
<path d="M245.259 91.8922C245.254 92.4431 245.414 92.9829 245.717 93.4429C246.02 93.903 246.453 94.2624 246.961 94.4753C247.469 94.6883 248.029 94.7453 248.57 94.639C249.11 94.5327 249.607 94.2679 249.997 93.8783C250.386 93.4887 250.651 92.9921 250.757 92.4515C250.864 91.911 250.807 91.351 250.594 90.8429C250.381 90.3348 250.021 89.9016 249.561 89.5985C249.101 89.2954 248.562 89.136 248.011 89.1407C247.282 89.1449 246.585 89.4361 246.07 89.9512C245.555 90.4663 245.263 91.1638 245.259 91.8922Z" fill="#FFE395"/>
<path d="M293.842 95.1995C293.845 95.7487 294.012 96.2846 294.319 96.7394C294.627 97.1942 295.063 97.5474 295.572 97.7543C296.081 97.9612 296.64 98.0125 297.177 97.9017C297.715 97.7909 298.208 97.5229 298.594 97.1318C298.98 96.7407 299.24 96.2439 299.343 95.7045C299.447 95.165 299.387 94.6071 299.173 94.1013C298.959 93.5956 298.6 93.1647 298.14 92.8634C297.681 92.562 297.143 92.4036 296.594 92.4083C295.859 92.4146 295.157 92.7119 294.641 93.2351C294.125 93.7584 293.838 94.4648 293.842 95.1995Z" fill="#FFE395"/>
<path d="M312.738 79.9182C312.743 80.4655 312.91 80.9991 313.218 81.4515C313.526 81.904 313.961 82.2549 314.468 82.46C314.976 82.6651 315.533 82.7151 316.068 82.6037C316.604 82.4923 317.095 82.2245 317.479 81.8342C317.862 81.4439 318.122 80.9486 318.224 80.4109C318.326 79.8732 318.266 79.3172 318.053 78.8134C317.839 78.3096 317.481 77.8804 317.023 77.5802C316.565 77.2801 316.029 77.1224 315.482 77.1271C314.748 77.1354 314.048 77.4337 313.534 77.9567C313.02 78.4797 312.734 79.1848 312.738 79.9182Z" fill="#FFE395"/>
<path d="M271.561 61.76C271.564 62.3092 271.73 62.8451 272.038 63.2999C272.346 63.7547 272.782 64.1079 273.291 64.3148C273.799 64.5217 274.358 64.573 274.896 64.4622C275.434 64.3514 275.927 64.0835 276.312 63.6923C276.698 63.3012 276.959 62.8045 277.062 62.265C277.165 61.7255 277.106 61.1676 276.892 60.6618C276.678 60.1561 276.318 59.7253 275.859 59.4239C275.4 59.1225 274.862 58.9642 274.312 58.9689C273.578 58.9751 272.875 59.2725 272.36 59.7957C271.844 60.3189 271.557 61.0253 271.561 61.76Z" fill="#FFE395"/>
<path d="M333.45 101.922C333.453 102.471 333.619 103.007 333.927 103.462C334.235 103.917 334.67 104.27 335.179 104.477C335.688 104.684 336.247 104.735 336.785 104.624C337.323 104.514 337.816 104.246 338.201 103.854C338.587 103.463 338.848 102.967 338.951 102.427C339.054 101.888 338.994 101.33 338.78 100.824C338.566 100.318 338.207 99.8874 337.748 99.586C337.288 99.2846 336.75 99.1263 336.201 99.131C335.466 99.1372 334.764 99.4346 334.248 99.9578C333.733 100.481 333.445 101.187 333.45 101.922Z" fill="#FFE395"/>
<path d="M94.0924 9.19727H76.2751V34.5871H94.0924V9.19727Z" fill="#E6E6E6"/>
<path d="M213.861 51.1C217.402 51.0425 220.88 52.036 223.856 53.9551C226.832 55.8742 229.172 58.6325 230.58 61.8814C231.988 65.1303 232.401 68.7238 231.767 72.2075C231.134 75.6913 229.481 78.9089 227.018 81.4534C224.556 83.9979 221.394 85.7551 217.933 86.5029C214.472 87.2506 210.867 86.9553 207.574 85.6542C204.28 84.3531 201.447 82.1048 199.431 79.1934C197.416 76.282 196.309 72.8384 196.25 69.2979C196.178 64.551 197.992 59.9692 201.293 56.5577C204.595 53.1462 209.115 51.1835 213.861 51.1ZM214.29 77.5682C215.982 77.5366 217.627 77.004 219.018 76.0378C220.408 75.0715 221.48 73.7149 222.1 72.1393C222.719 70.5638 222.858 68.8399 222.498 67.1857C222.138 65.5314 221.296 64.0209 220.078 62.8451C218.86 61.6692 217.321 60.8807 215.655 60.5792C213.989 60.2777 212.271 60.4767 210.718 61.1511C209.165 61.8255 207.847 62.9451 206.931 64.3683C206.014 65.7915 205.539 67.4545 205.567 69.1472C205.587 70.2729 205.828 71.3837 206.277 72.4162C206.726 73.4487 207.374 74.3826 208.184 75.1646C208.994 75.9465 209.95 76.5613 210.998 76.9737C212.045 77.3862 213.164 77.5882 214.29 77.5682Z" fill="#FFE7E3"/>
<path d="M213.83 48.8732C219.169 48.7968 224.321 50.8406 228.156 54.5566C231.991 58.2725 234.196 63.3574 234.287 68.6965L222.076 69.0137C221.997 63.709 218.405 61.5522 214.147 61.2826C213.101 61.22 212.053 61.3747 211.069 61.7369C210.085 62.0991 209.187 62.6609 208.431 63.3871C207.675 64.1133 207.078 64.9881 206.676 65.9564C206.275 66.9247 206.078 67.9657 206.099 69.0137L194.014 69.3388C193.932 63.9982 195.972 58.8432 199.687 55.0059C203.403 51.1686 208.489 48.9629 213.83 48.8732Z" fill="#FFBFB6"/>
<path d="M50.8615 155.588L197.792 154.533V156.595L50.8615 157.911V155.588Z" fill="#C4C4C4"/>
<path d="M47.6581 6.20719L51.0043 156.817L197.792 155.675V3.67773L47.6581 6.20719Z" fill="white"/>
<path d="M47.6581 6.20781L197.792 3.50391H197.975V3.68628C197.975 47.1946 197.975 98.5372 197.975 153.313V155.89H197.769L50.9805 157.008H50.806V156.834C48.9109 66.566 47.6739 7.76197 47.6343 6.21574C47.6343 7.73818 49.0457 66.566 51.1549 156.818L50.9805 156.643L197.769 155.478L197.562 155.684V153.305C197.562 98.5293 197.562 47.1867 197.562 3.67835L197.745 3.86072L47.6581 6.20781Z" fill="#C4C4C4"/>
<path d="M47.0713 7.21571L198.435 6.35141L198.625 0L47.0713 0.943589V7.21571Z" fill="#C4C4C4"/>
<path d="M119.53 160.927C119.276 160.927 119.006 159.745 118.935 158.27C118.864 156.795 119.022 155.59 119.276 155.574C119.53 155.559 119.799 156.748 119.871 158.223C119.942 159.698 119.791 160.927 119.53 160.927Z" fill="#C4C4C4"/>
<path d="M119.474 159.839C119.474 159.784 119.728 159.768 120.124 159.926C120.364 160.027 120.588 160.16 120.791 160.323C121.063 160.542 121.292 160.811 121.465 161.116C121.7 161.537 121.818 162.014 121.807 162.496C121.796 162.979 121.656 163.449 121.401 163.859C121.249 164.106 121.056 164.326 120.83 164.509C120.595 164.699 120.326 164.841 120.037 164.93C119.424 165.099 118.772 165.051 118.19 164.795C117.895 164.664 117.627 164.481 117.397 164.256C117.168 164.03 116.987 163.76 116.865 163.463C116.646 162.922 116.599 162.327 116.731 161.758C116.828 161.284 117.057 160.847 117.39 160.497C117.724 160.146 118.149 159.896 118.618 159.776C119.218 159.612 119.856 159.668 120.418 159.934C120.798 160.125 120.941 160.323 120.909 160.37C120.878 160.418 120.664 160.37 120.299 160.275C119.802 160.183 119.29 160.226 118.816 160.402C118.511 160.521 118.239 160.711 118.023 160.957C117.776 161.247 117.614 161.6 117.557 161.977C117.499 162.354 117.548 162.74 117.698 163.09C117.871 163.467 118.18 163.764 118.562 163.923C118.944 164.093 119.371 164.13 119.776 164.026C120.148 163.93 120.47 163.698 120.68 163.376C120.886 163.072 121.009 162.719 121.036 162.353C121.06 162.187 121.06 162.019 121.036 161.853C121.01 161.697 120.965 161.546 120.902 161.401C120.698 160.935 120.379 160.528 119.974 160.22C119.68 160.014 119.474 159.903 119.474 159.839Z" fill="#C4C4C4"/>
<path d="M141.312 88.6263C141.312 88.6263 141.312 88.6263 141.217 88.6263H140.947L139.9 88.6739L135.864 88.8483L121.02 89.4034C108.484 89.8633 91.1585 90.4738 72.0329 91.132L65.4515 91.354H65.3009V91.2033C63.9687 73.7032 62.7635 58.019 61.9309 46.7434C61.5186 41.1136 61.1935 36.5859 60.9635 33.4697C60.8605 31.8838 60.7732 30.7024 60.7177 29.8857C60.7177 29.4733 60.6701 29.1641 60.6622 28.95C60.6543 28.7359 60.6622 28.7676 60.6622 28.7121C60.6622 28.6566 60.6622 28.6328 60.6622 28.6328C60.6659 28.6591 60.6659 28.6858 60.6622 28.7121C60.6622 28.7676 60.6622 28.8469 60.6622 28.95C60.6622 29.0531 60.7098 29.4733 60.7494 29.8777C60.8129 30.6706 60.916 31.8997 61.0508 33.4618C61.2966 36.578 61.6613 41.1057 62.1133 46.7197C63.0014 57.9635 64.2225 73.6081 65.5705 91.1795L65.4119 91.0368L71.9933 90.8069C91.1188 90.1567 108.468 89.5778 120.981 89.1813L135.832 88.7214L139.869 88.6104H140.915H141.28L141.312 88.6263Z" fill="#455A64"/>
<path d="M88.1611 23.7541V25.7761L109.079 24.777V23.0801L88.1611 23.7541Z" fill="#C4C4C4"/>
<path d="M72.3262 86.8963H79.5975L78.4556 67.1602H71.3271L72.3262 86.8963Z" fill="#FF725E"/>
<path d="M85.5048 86.9046H92.7681L91.6342 59.3184H84.5057L85.5048 86.9046Z" fill="#FF725E"/>
<path d="M97.843 86.0244H105.114L103.972 49.9062H96.8518L97.843 86.0244Z" fill="#FF725E"/>
<path d="M126.151 84.6199H133.414L132.28 35.3945H125.152L126.151 84.6199Z" fill="#FF725E"/>
<path d="M112.377 84.7863H119.641L118.499 42.4277H111.378L112.377 84.7863Z" fill="#FF725E"/>
<path d="M67.759 62.046C67.5687 61.7526 80.557 53.0938 96.7567 42.7063C112.956 32.3189 126.262 24.1358 126.452 24.4688C126.642 24.8018 113.654 33.421 97.4465 43.8085C81.2389 54.1959 67.9335 62.3394 67.759 62.046Z" fill="#FF725E"/>
<path d="M119.26 24.4374C119.197 24.0885 123.899 22.915 129.782 21.8049L131.273 21.5273L130.425 22.7881L130.377 22.8595C127.015 27.855 124.034 31.7483 123.756 31.5818C123.479 31.4153 125.96 27.181 129.307 22.1776L129.354 22.1062L130.004 23.0894C124.129 24.1599 119.324 24.7784 119.26 24.4374Z" fill="#FF725E"/>
<path d="M71.3271 93.5664H78.9235L79.1614 94.9144H71.3271V93.5664Z" fill="#C4C4C4"/>
<path d="M84.7754 93.0098H92.3717L92.6096 94.3578H84.7754V93.0098Z" fill="#C4C4C4"/>
<path d="M98.62 92.6133H106.216L106.454 93.9613H98.62V92.6133Z" fill="#C4C4C4"/>
<path d="M111.592 92.2871H119.189L119.427 93.643H111.592V92.2871Z" fill="#C4C4C4"/>
<path d="M127.665 91.8125H135.262L135.499 93.1684H127.665V91.8125Z" fill="#C4C4C4"/>
<path d="M161.738 145.558C175.129 145.558 185.986 134.702 185.986 121.31C185.986 107.919 175.129 97.0625 161.738 97.0625C148.346 97.0625 137.49 107.919 137.49 121.31C137.49 134.702 148.346 145.558 161.738 145.558Z" fill="#FF725E"/>
<path opacity="0.3" d="M161.738 145.558C175.129 145.558 185.986 134.702 185.986 121.31C185.986 107.919 175.129 97.0625 161.738 97.0625C148.346 97.0625 137.49 107.919 137.49 121.31C137.49 134.702 148.346 145.558 161.738 145.558Z" fill="black"/>
<path d="M161.738 121.279L138.084 126.6C134.278 109.155 148.345 97.0312 161.738 97.0312" fill="#FF725E"/>
<path d="M161.769 121.279L161.611 97.0312C179.468 97.0312 188.317 113.358 185.462 126.441L161.769 121.279Z" fill="#FF725E"/>
<path d="M161.769 121.279L161.611 97.0312C179.468 97.0312 188.317 113.358 185.462 126.441L161.769 121.279Z" fill="#FF725E"/>
<path opacity="0.1" d="M161.769 121.279L161.611 97.0312C179.468 97.0312 188.317 113.358 185.462 126.441L161.769 121.279Z" fill="black"/>
<path d="M186.612 63.8938C186.141 63.5788 185.639 63.3131 185.113 63.1008C183.649 62.6529 182.078 62.6975 180.641 63.2277C178.786 63.8065 176.946 65.2814 175.162 67.129C173.378 68.9765 171.467 71.2126 168.676 72.5209C167.329 73.1901 165.813 73.4414 164.323 73.2425C162.978 72.9634 161.678 72.4991 160.461 71.8628C159.389 71.3048 158.244 70.9017 157.059 70.6654C156.029 70.5037 154.973 70.6356 154.014 71.046C152.603 71.645 151.449 72.7235 150.756 74.0909C150.533 74.6047 150.35 75.1349 150.208 75.6768C150.233 75.1032 150.371 74.5401 150.613 74.0196C151.277 72.5756 152.444 71.4228 153.896 70.7764C154.89 70.3337 155.989 70.1772 157.067 70.3245C158.291 70.5516 159.477 70.9521 160.588 71.5139C161.773 72.129 163.038 72.5772 164.346 72.846C165.757 73.0216 167.188 72.7789 168.462 72.1482C171.142 70.8954 173.021 68.6752 174.853 66.8593C176.684 65.0435 178.58 63.5132 180.506 62.9502C182.003 62.4281 183.633 62.4281 185.129 62.9502C185.529 63.1041 185.905 63.3122 186.247 63.5687C186.382 63.6616 186.504 63.7708 186.612 63.8938Z" fill="#C4C4C4"/>
<path d="M188.666 79.5616C188.666 79.6806 180.054 79.7678 169.437 79.7678C158.82 79.7678 150.208 79.6806 150.208 79.5616C150.208 79.4427 158.82 79.3555 169.437 79.3555C180.054 79.3555 188.666 79.4506 188.666 79.5616Z" fill="#C4C4C4"/>
<path d="M186.525 79.5629C186.414 79.5629 186.319 74.6625 186.319 68.6124C186.319 62.5623 186.414 57.6699 186.525 57.6699C186.636 57.6699 186.731 62.5703 186.731 68.6124C186.731 74.6546 186.644 79.5629 186.525 79.5629Z" fill="#C4C4C4"/>
<path d="M154.086 70.3388C154.086 70.3388 154.03 70.2595 154.086 70.1168C154.122 70.0167 154.18 69.9257 154.256 69.8504C154.331 69.7751 154.422 69.7171 154.522 69.6807C154.673 69.614 154.839 69.5899 155.002 69.6109C155.166 69.6318 155.321 69.6971 155.45 69.7996C155.59 69.9564 155.672 70.1559 155.684 70.3656C155.695 70.5753 155.635 70.7827 155.514 70.954C155.392 71.1252 155.216 71.2502 155.015 71.3084C154.813 71.3666 154.597 71.3547 154.403 71.2745C154.267 71.1929 154.154 71.0765 154.078 70.9371C154.001 70.7978 153.963 70.6405 153.967 70.4816C153.965 70.3759 153.985 70.2709 154.024 70.1729C154.064 70.0748 154.123 69.9857 154.197 69.9107C154.316 69.8155 154.403 69.8155 154.411 69.8314C154.419 69.8472 154.197 70.0613 154.252 70.4657C154.264 70.5697 154.299 70.6697 154.355 70.7578C154.412 70.8459 154.488 70.9196 154.578 70.9732C154.689 71.0012 154.806 70.9951 154.914 70.9556C155.021 70.9161 155.115 70.8451 155.181 70.7518C155.248 70.6585 155.285 70.5473 155.288 70.4326C155.29 70.3179 155.258 70.2051 155.196 70.1089C155.116 70.0436 155.022 69.9986 154.921 69.9779C154.82 69.9572 154.716 69.9613 154.617 69.9899C154.213 70.0534 154.141 70.3547 154.086 70.3388Z" fill="#C4C4C4"/>
<path d="M180.015 62.3877C180.015 62.3877 180.015 62.2926 180.158 62.2133C180.342 62.1206 180.555 62.1035 180.752 62.1657C180.909 62.2082 181.051 62.2928 181.162 62.4102C181.274 62.5276 181.352 62.6734 181.387 62.8318C181.399 63.0363 181.342 63.2389 181.225 63.407C181.108 63.5751 180.937 63.6989 180.741 63.7585C180.545 63.818 180.335 63.8098 180.144 63.7352C179.954 63.6606 179.793 63.5239 179.69 63.3472C179.633 63.1943 179.618 63.0288 179.647 62.8683C179.677 62.7077 179.749 62.5581 179.856 62.4353C179.99 62.2768 180.181 62.1772 180.388 62.1578C180.53 62.1578 180.602 62.2054 180.594 62.2291C180.586 62.2529 180.292 62.2688 180.094 62.6098C180.039 62.6947 180.005 62.7912 179.994 62.8917C179.983 62.9922 179.996 63.0938 180.031 63.1886C180.1 63.2742 180.194 63.3371 180.3 63.3692C180.405 63.4013 180.518 63.4011 180.624 63.3688C180.729 63.3364 180.823 63.2733 180.892 63.1876C180.962 63.1018 181.004 62.9972 181.014 62.8873C180.993 62.7886 180.949 62.6962 180.886 62.6177C180.822 62.5392 180.741 62.4767 180.649 62.4353C180.3 62.2609 180.055 62.4432 180.015 62.3877Z" fill="#C4C4C4"/>
<path d="M185.843 36.4347C185.843 36.5457 177.501 36.6408 167.217 36.6408C156.932 36.6408 148.591 36.5457 148.591 36.4347C148.591 36.3237 156.925 36.2285 167.217 36.2285C177.509 36.2285 185.843 36.3395 185.843 36.4347Z" fill="#C4C4C4"/>
<path d="M185.843 41.628C185.843 41.747 177.501 41.8342 167.217 41.8342C156.932 41.8342 148.591 41.747 148.591 41.628C148.591 41.5091 156.925 41.4219 167.217 41.4219C177.509 41.4219 185.843 41.517 185.843 41.628Z" fill="#C4C4C4"/>
<path d="M185.843 46.8058C185.843 46.9168 177.501 47.0119 167.217 47.0119C156.932 47.0119 148.591 46.9168 148.591 46.8058C148.591 46.6948 156.925 46.5996 167.217 46.5996C177.509 46.5996 185.843 46.6868 185.843 46.8058Z" fill="#C4C4C4"/>
<path d="M185.843 51.9757C185.843 52.0946 177.501 52.1819 167.217 52.1819C156.932 52.1819 148.591 52.0946 148.591 51.9757C148.591 51.8568 156.925 51.7695 167.217 51.7695C177.509 51.7695 185.843 51.8647 185.843 51.9757Z" fill="#C4C4C4"/>
<path d="M168.414 26.9902H148.591V28.6633H168.414V26.9902Z" fill="#C4C4C4"/>
<path d="M86.5833 110.059H66.7599V111.732H86.5833V110.059Z" fill="#C4C4C4"/>
<path d="M121.005 119.757C121.005 119.876 108.976 119.963 94.1399 119.963C79.3041 119.963 67.2673 119.876 67.2673 119.757C67.2673 119.638 79.2962 119.551 94.1399 119.551C108.984 119.551 121.005 119.646 121.005 119.757Z" fill="#C4C4C4"/>
<path d="M121.322 124.45C121.322 124.561 109.079 124.656 93.9813 124.656C78.8838 124.656 66.6409 124.561 66.6409 124.45C66.6409 124.339 78.8759 124.244 93.9813 124.244C109.087 124.244 121.322 124.355 121.322 124.45Z" fill="#C4C4C4"/>
<path d="M121.948 128.874C121.948 128.985 109.634 129.08 94.4492 129.08C79.2645 129.08 66.9502 128.985 66.9502 128.874C66.9502 128.763 79.2645 128.668 94.4492 128.668C109.634 128.668 121.948 128.755 121.948 128.874Z" fill="#C4C4C4"/>
<path d="M95.5513 133.583C95.5513 133.694 89.2079 133.789 81.4054 133.789C73.6029 133.789 67.2673 133.694 67.2673 133.583C67.2673 133.472 73.6108 133.377 81.4054 133.377C89.1999 133.377 95.5513 133.472 95.5513 133.583Z" fill="#C4C4C4"/>
<path d="M42.0927 234.799C56.3409 234.799 67.8914 231.68 67.8914 227.831C67.8914 223.983 56.3409 220.863 42.0927 220.863C27.8444 220.863 16.2939 223.983 16.2939 227.831C16.2939 231.68 27.8444 234.799 42.0927 234.799Z" fill="#F5F5F5"/>
<path d="M47.0304 94.916H39.974V225.852H47.0304V94.916Z" fill="#FFCBC4"/>
<path d="M46.8068 94.6319C46.8068 94.8078 45.2553 94.9571 43.3413 94.9571C41.4273 94.9571 39.8759 94.8078 39.8759 94.6319C39.8759 94.4559 41.4273 94.3066 43.3413 94.3066C45.2553 94.3066 46.8068 94.4506 46.8068 94.6319Z" fill="#FF725E"/>
<path opacity="0.4" d="M46.8068 94.6319C46.8068 94.8078 45.2553 94.9571 43.3413 94.9571C41.4273 94.9571 39.8759 94.8078 39.8759 94.6319C39.8759 94.4559 41.4273 94.3066 43.3413 94.3066C45.2553 94.3066 46.8068 94.4506 46.8068 94.6319Z" fill="#FAFAFA"/>
<path d="M46.8068 147.739L39.8759 147.238V142.023H46.8068V147.739Z" fill="#FF725E"/>
<path opacity="0.4" d="M46.8068 147.739L39.8759 147.238V142.023H46.8068V147.739Z" fill="#FAFAFA"/>
<path d="M83.2801 101.076L7.50598 94.4336L3.38916 141.395L79.1632 148.037L83.2801 101.076Z" fill="#FF725E"/>
<path opacity="0.3" d="M83.2801 101.076L7.50598 94.4336L3.38916 141.395L79.1632 148.037L83.2801 101.076Z" fill="black"/>
<path d="M79.8909 100.776L4.11682 94.1328L-4.1317e-06 141.094L75.7741 147.737L79.8909 100.776Z" fill="#FF725E"/>
<path opacity="0.2" d="M79.8909 100.776L4.11682 94.1328L-4.1317e-06 141.094L75.7741 147.737L79.8909 100.776Z" fill="#FAFAFA"/>
<path opacity="0.4" d="M80.2568 108.082L66.043 107.432L80.1608 109.202L80.2568 108.082Z" fill="#FF725E"/>
<path opacity="0.1" d="M80.2568 108.082L66.043 107.432L80.1608 109.202L80.2568 108.082Z" fill="black"/>
<path opacity="0.4" d="M79.6541 109.682L70.8838 109.804L79.5049 111.361L79.6541 109.682Z" fill="#FF725E"/>
<path opacity="0.1" d="M79.6541 109.682L70.8838 109.804L79.5049 111.361L79.6541 109.682Z" fill="black"/>
<path opacity="0.4" d="M1.04102 129.174L8.70772 129.254L1.14232 128.055L1.04102 129.174Z" fill="#FF725E"/>
<path opacity="0.1" d="M1.04102 129.174L8.70772 129.254L1.14232 128.055L1.04102 129.174Z" fill="black"/>
<path opacity="0.4" d="M1.81946 120.322L8.41454 120.007L1.96341 118.643L1.81946 120.322Z" fill="#FF725E"/>
<path opacity="0.1" d="M1.81946 120.322L8.41454 120.007L1.96341 118.643L1.81946 120.322Z" fill="black"/>
<path opacity="0.4" d="M76.8338 142.746L70.2334 143.061L76.6845 144.431L76.8338 142.746Z" fill="#FF725E"/>
<path opacity="0.1" d="M76.8338 142.746L70.2334 143.061L76.6845 144.431L76.8338 142.746Z" fill="black"/>
<path d="M21.1035 103.594L31.5373 104.511L31.276 107.443L25.0808 106.91L24.8729 109.298L30.1671 109.762L29.9218 112.519L24.633 112.055L24.1425 117.632L19.9039 117.264L21.1035 103.594Z" fill="#FF725E"/>
<path d="M32.6783 111.5C32.8738 109.272 33.6468 107.59 34.9975 106.457C36.3481 105.323 38.1253 104.853 40.329 105.049C42.6002 105.248 44.2974 106.01 45.4206 107.336C46.5455 108.669 47.02 110.428 46.8174 112.63C46.7514 113.99 46.3562 115.312 45.6658 116.485C45.0551 117.448 44.1717 118.207 43.128 118.666C41.905 119.173 40.572 119.356 39.2574 119.199C37.9403 119.13 36.6556 118.766 35.4986 118.133C34.5106 117.527 33.7268 116.64 33.2487 115.584C32.6946 114.299 32.4976 112.888 32.6783 111.5ZM36.8955 111.889C36.7782 113.265 36.9435 114.278 37.402 114.928C37.6366 115.246 37.9395 115.506 38.2883 115.691C38.6371 115.875 39.023 115.979 39.4173 115.995C39.8104 116.052 40.2114 116.018 40.5894 115.896C40.9675 115.774 41.3125 115.567 41.5979 115.291C42.131 114.758 42.4882 113.691 42.6215 112.183C42.7388 110.898 42.5576 109.933 42.0884 109.293C41.8505 108.975 41.5447 108.714 41.1933 108.53C40.8419 108.346 40.4537 108.242 40.0571 108.227C39.6699 108.178 39.2767 108.218 38.9073 108.344C38.5378 108.469 38.2018 108.677 37.9245 108.952C37.3629 109.517 37.0199 110.489 36.8955 111.868V111.889Z" fill="#FF725E"/>
<path d="M48.5608 119.763L49.7551 106.104L56.7926 106.722C57.8027 106.777 58.7995 106.978 59.7516 107.319C60.4132 107.593 60.9621 108.084 61.3084 108.711C61.6917 109.4 61.8466 110.193 61.751 110.977C61.7181 111.642 61.5048 112.286 61.1338 112.839C60.7628 113.392 60.2481 113.834 59.645 114.117C59.1587 114.33 58.6428 114.469 58.1149 114.527C58.497 114.674 58.856 114.876 59.1812 115.124C59.4164 115.358 59.6223 115.619 59.7943 115.903C60.0027 116.184 60.1814 116.486 60.3274 116.804L61.9962 120.93L57.2245 120.515L55.3371 116.143C55.1915 115.728 54.9629 115.347 54.6654 115.023C54.3796 114.786 54.0278 114.643 53.6577 114.613L53.2845 114.581L52.7993 120.125L48.5608 119.763ZM53.5138 112.011L55.2892 112.165C55.6695 112.17 56.0495 112.142 56.4248 112.08C56.702 112.051 56.9585 111.92 57.1445 111.712C57.3399 111.499 57.4582 111.227 57.4804 110.939C57.5123 110.748 57.4991 110.552 57.4417 110.367C57.3843 110.182 57.2843 110.013 57.1499 109.873C56.7033 109.546 56.1623 109.374 55.609 109.382L53.7537 109.217L53.5138 112.011Z" fill="#FF725E"/>
<path d="M12.1787 129.643L16.2199 129.744C16.2137 130.284 16.3517 130.816 16.6198 131.285C16.8181 131.579 17.0834 131.823 17.3938 131.995C17.7042 132.168 18.051 132.264 18.4059 132.277C18.905 132.353 19.4149 132.245 19.84 131.973C19.9995 131.869 20.1339 131.731 20.2335 131.568C20.3331 131.406 20.3954 131.224 20.4158 131.034C20.4278 130.851 20.3996 130.667 20.3333 130.496C20.267 130.325 20.1642 130.17 20.032 130.043C19.4126 129.568 18.6978 129.234 17.9367 129.062C16.124 128.482 14.8533 127.814 14.1247 127.057C13.7686 126.702 13.4974 126.271 13.3312 125.797C13.165 125.322 13.1082 124.816 13.165 124.317C13.2257 123.607 13.4988 122.933 13.9487 122.381C14.457 121.758 15.1404 121.301 15.9107 121.07C17.0185 120.761 18.177 120.677 19.3175 120.825C21.061 120.979 22.3672 121.422 23.2255 122.152C23.6724 122.563 24.0255 123.065 24.2611 123.624C24.4966 124.184 24.6089 124.787 24.5904 125.394L20.5918 125.276C20.5873 124.76 20.3982 124.263 20.0586 123.874C19.6809 123.541 19.1974 123.352 18.6938 123.341C18.3019 123.275 17.8992 123.35 17.5581 123.554C17.434 123.633 17.3295 123.74 17.2528 123.865C17.1761 123.991 17.1292 124.133 17.1156 124.279C17.1104 124.394 17.1306 124.509 17.1749 124.615C17.2191 124.721 17.2863 124.815 17.3715 124.892C17.778 125.201 18.2478 125.416 18.7471 125.522C20.0877 125.888 21.3812 126.409 22.6018 127.073C23.2805 127.469 23.8346 128.047 24.2012 128.742C24.512 129.384 24.6393 130.1 24.5691 130.81C24.4992 131.672 24.1724 132.493 23.6307 133.167C23.0698 133.874 22.3105 134.398 21.4502 134.67C20.3696 134.997 19.2331 135.095 18.1126 134.958C15.7881 134.756 14.2188 134.168 13.4049 133.194C12.5789 132.198 12.1431 130.936 12.1787 129.643Z" fill="#FF725E"/>
<path d="M34.8907 133.919L30.0923 133.497L29.2286 135.694L24.9208 135.316L31.2866 122.109L35.8877 122.515L39.817 136.616L35.3972 136.233L34.8907 133.919ZM34.2776 130.885L33.2113 125.847L31.2866 130.645L34.2776 130.885Z" fill="#FF725E"/>
<path d="M42.3389 123.064L46.5562 123.432L45.6818 133.727L52.2662 134.303L51.973 137.667L41.166 136.724L42.3389 123.064Z" fill="#FF725E"/>
<path d="M55.0546 124.193L66.3628 125.196L66.1068 128.112L59.0106 127.483L58.8187 129.653L65.4084 130.229L65.1632 133.012L58.5947 132.436L58.3601 135.128L65.6483 135.768L65.3764 138.86L53.8604 137.853L55.0546 124.193Z" fill="#FF725E"/>
<g opacity="0.3">
<path opacity="0.3" d="M21.1036 103.594L31.5374 104.511L31.2762 107.443L25.081 106.91L24.873 109.298L30.1672 109.762L29.922 112.519L24.6331 112.055L24.1426 117.632L19.9041 117.264L21.1036 103.594Z" fill="black"/>
<path opacity="0.3" d="M32.6784 111.5C32.8739 109.272 33.647 107.59 34.9976 106.457C36.3483 105.323 38.1254 104.853 40.3291 105.049C42.6003 105.248 44.2975 106.01 45.4207 107.336C46.5457 108.669 47.0202 110.428 46.8176 112.63C46.7515 113.99 46.3563 115.312 45.666 116.485C45.0553 117.448 44.1718 118.207 43.1282 118.666C41.9051 119.173 40.5721 119.356 39.2575 119.199C37.9404 119.13 36.6557 118.766 35.4988 118.133C34.5107 117.527 33.7269 116.64 33.2489 115.584C32.6948 114.299 32.4977 112.888 32.6784 111.5ZM36.8956 111.889C36.7783 113.265 36.9436 114.278 37.4021 114.928C37.6367 115.246 37.9396 115.506 38.2884 115.691C38.6372 115.875 39.0231 115.979 39.4174 115.995C39.8105 116.052 40.2115 116.018 40.5895 115.896C40.9676 115.774 41.3126 115.567 41.598 115.291C42.1312 114.758 42.4884 113.691 42.6217 112.183C42.739 110.898 42.5577 109.933 42.0885 109.293C41.8507 108.975 41.5449 108.714 41.1934 108.53C40.842 108.346 40.4538 108.242 40.0572 108.227C39.67 108.178 39.2769 108.218 38.9074 108.344C38.538 108.469 38.2019 108.677 37.9246 108.952C37.363 109.517 37.02 110.489 36.8956 111.868V111.889Z" fill="black"/>
<path opacity="0.3" d="M48.5609 119.763L49.7552 106.104L56.7928 106.722C57.8028 106.777 58.7996 106.978 59.7518 107.319C60.4133 107.593 60.9622 108.084 61.3086 108.711C61.6918 109.4 61.8468 110.193 61.7511 110.977C61.7183 111.642 61.5049 112.286 61.1339 112.839C60.7629 113.392 60.2482 113.834 59.6451 114.117C59.1589 114.33 58.6429 114.469 58.115 114.527C58.4971 114.674 58.8562 114.876 59.1813 115.124C59.4165 115.358 59.6224 115.619 59.7944 115.903C60.0028 116.184 60.1815 116.486 60.3276 116.804L61.9963 120.93L57.2246 120.515L55.3373 116.143C55.1916 115.728 54.963 115.347 54.6655 115.023C54.3798 114.786 54.0279 114.643 53.6578 114.613L53.2846 114.581L52.7995 120.125L48.5609 119.763ZM53.5139 112.011L55.2893 112.165C55.6696 112.17 56.0496 112.142 56.4249 112.08C56.7021 112.051 56.9586 111.92 57.1446 111.712C57.34 111.499 57.4583 111.227 57.4805 110.939C57.5125 110.748 57.4992 110.552 57.4418 110.367C57.3844 110.182 57.2845 110.013 57.15 109.873C56.7034 109.546 56.1625 109.374 55.6092 109.382L53.7538 109.217L53.5139 112.011Z" fill="black"/>
<path opacity="0.3" d="M12.1788 129.643L16.2201 129.744C16.2138 130.284 16.3519 130.816 16.6199 131.285C16.8183 131.579 17.0835 131.823 17.3939 131.995C17.7043 132.168 18.0511 132.264 18.406 132.277C18.9051 132.353 19.415 132.245 19.8402 131.973C19.9997 131.869 20.1341 131.731 20.2336 131.568C20.3332 131.406 20.3955 131.224 20.416 131.034C20.4279 130.851 20.3997 130.667 20.3334 130.496C20.2671 130.325 20.1643 130.17 20.0321 130.043C19.4127 129.568 18.6979 129.234 17.9368 129.062C16.1241 128.482 14.8534 127.814 14.1248 127.057C13.7687 126.702 13.4975 126.271 13.3313 125.797C13.1651 125.322 13.1083 124.816 13.1651 124.317C13.2258 123.607 13.499 122.933 13.9488 122.381C14.4571 121.758 15.1405 121.301 15.9108 121.07C17.0186 120.761 18.1771 120.677 19.3177 120.825C21.0611 120.979 22.3673 121.422 23.2257 122.152C23.6725 122.563 24.0257 123.065 24.2612 123.624C24.4967 124.184 24.609 124.787 24.5905 125.394L20.5919 125.276C20.5875 124.76 20.3983 124.263 20.0587 123.874C19.681 123.541 19.1975 123.352 18.6939 123.341C18.302 123.275 17.8993 123.35 17.5583 123.554C17.4341 123.633 17.3296 123.74 17.2529 123.865C17.1762 123.991 17.1293 124.133 17.1158 124.279C17.1105 124.394 17.1308 124.509 17.175 124.615C17.2193 124.721 17.2864 124.815 17.3717 124.892C17.7782 125.201 18.2479 125.416 18.7472 125.522C20.0878 125.888 21.3813 126.409 22.6019 127.073C23.2806 127.469 23.8347 128.047 24.2013 128.742C24.5121 129.384 24.6394 130.1 24.5692 130.81C24.4994 131.672 24.1725 132.493 23.6309 133.167C23.0699 133.874 22.3106 134.398 21.4503 134.67C20.3698 134.997 19.2332 135.095 18.1127 134.958C15.7882 134.756 14.219 134.168 13.405 133.194C12.579 132.198 12.1432 130.936 12.1788 129.643Z" fill="black"/>
<path opacity="0.3" d="M34.8911 133.919L30.0927 133.497L29.229 135.694L24.9211 135.316L31.287 122.109L35.8881 122.515L39.8174 136.616L35.3976 136.233L34.8911 133.919ZM34.2779 130.885L33.2116 125.847L31.287 130.645L34.2779 130.885Z" fill="black"/>
<path opacity="0.3" d="M42.3391 123.062L46.5563 123.43L45.6819 133.726L52.2663 134.301L51.9731 137.666L41.1661 136.722L42.3391 123.062Z" fill="black"/>
<path opacity="0.3" d="M55.0549 124.195L66.363 125.198L66.1071 128.114L59.0108 127.485L58.8189 129.655L65.4087 130.231L65.1634 133.014L58.595 132.438L58.3604 135.13L65.6486 135.77L65.3767 138.862L53.8606 137.855L55.0549 124.195Z" fill="black"/>
</g>
</svg>
