<svg width="289" height="236" viewBox="0 0 289 236" fill="none" xmlns="http://www.w3.org/2000/svg">
<path d="M26.3072 20.5586V175.054H111.01V20.5586H26.3072ZM104.967 169.338H31.8199V26.2745H104.967V169.338Z" fill="#E0E0E0"/>
<path d="M114.144 177.596H22.6438V18.0195H114.144V177.596ZM28.2906 172.515H108.497V23.1004H28.2906V172.515Z" fill="#EBEBEB"/>
<path d="M106.386 61.0842V57.2736H70.5148V25.0039H66.2797V57.2736H30.4082V61.0842H66.2797V95.9007H30.4082V99.7113H66.2797V134.521H30.4082V138.332H66.2797V170.608H70.5148V138.332H106.386V134.521H70.5148V99.7113H106.386V95.9007H70.5148V61.0842H106.386Z" fill="#F5F5F5"/>
<path d="M168.374 20.5586V175.054H253.077V20.5586H168.374ZM247.049 169.338H173.901V26.2745H247.049V169.338Z" fill="#E0E0E0"/>
<path d="M256.225 177.596H164.725V18.0195H256.225V177.596ZM170.372 172.515H250.578V23.1004H170.372V172.515Z" fill="#EBEBEB"/>
<path d="M248.46 61.0842V57.2736H212.589V25.0039H208.354V57.2736H172.482V61.0842H208.354V95.9007H172.482V99.7113H208.354V134.521H172.482V138.332H208.354V170.608H212.589V138.332H248.46V134.521H212.589V99.7113H248.46V95.9007H212.589V61.0842H248.46Z" fill="#F5F5F5"/>
<path d="M35.1515 0.755859H10.8349C10.3203 0.755859 9.90314 1.1312 9.90314 1.5942V6.23682C9.90314 6.69982 10.3203 7.07516 10.8349 7.07516H35.1515C35.6661 7.07516 36.0832 6.69982 36.0832 6.23682V1.5942C36.0832 1.1312 35.6661 0.755859 35.1515 0.755859Z" fill="#F5F5F5"/>
<path d="M27.1542 8.58594H2.83755C2.32297 8.58594 1.90582 8.96127 1.90582 9.42428V14.0669C1.90582 14.5299 2.32297 14.9052 2.83755 14.9052H27.1542C27.6688 14.9052 28.0859 14.5299 28.0859 14.0669V9.42428C28.0859 8.96127 27.6688 8.58594 27.1542 8.58594Z" fill="#F5F5F5"/>
<path d="M54.5555 8.58594H30.2388C29.7242 8.58594 29.3071 8.96127 29.3071 9.42428V14.0669C29.3071 14.5299 29.7242 14.9052 30.2388 14.9052H54.5555C55.0701 14.9052 55.4872 14.5299 55.4872 14.0669V9.42428C55.4872 8.96127 55.0701 8.58594 54.5555 8.58594Z" fill="#F0F0F0"/>
<path d="M242.891 14.1582L267.208 14.1582C267.722 14.1582 268.14 13.7829 268.14 13.3199V8.67724C268.14 8.21424 267.722 7.8389 267.208 7.8389L242.891 7.8389C242.377 7.8389 241.959 8.21424 241.959 8.67724V13.3199C241.959 13.7829 242.377 14.1582 242.891 14.1582Z" fill="#F5F5F5"/>
<path d="M250.888 6.31836L275.205 6.31836C275.72 6.31836 276.137 5.94302 276.137 5.48002V0.8374C276.137 0.374399 275.72 -0.000938416 275.205 -0.000938416L250.888 -0.000938416C250.374 -0.000938416 249.957 0.374399 249.957 0.8374V5.48002C249.957 5.94302 250.374 6.31836 250.888 6.31836Z" fill="#F5F5F5"/>
<path d="M223.487 6.31836L247.804 6.31836C248.319 6.31836 248.736 5.94302 248.736 5.48002V0.8374C248.736 0.374399 248.319 -0.000938416 247.804 -0.000938416L223.487 -0.000938416C222.973 -0.000938416 222.556 0.374399 222.556 0.8374V5.48002C222.556 5.94302 222.973 6.31836 223.487 6.31836Z" fill="#F0F0F0"/>
<path d="M132.778 14.1582L157.095 14.1582C157.609 14.1582 158.026 13.7829 158.026 13.3199V8.67724C158.026 8.21424 157.609 7.8389 157.095 7.8389L132.778 7.8389C132.264 7.8389 131.846 8.21424 131.846 8.67724V13.3199C131.846 13.7829 132.264 14.1582 132.778 14.1582Z" fill="#F5F5F5"/>
<path d="M145.003 6.31836L169.32 6.31836C169.835 6.31836 170.252 5.94302 170.252 5.48002V0.8374C170.252 0.374399 169.835 -0.000938416 169.32 -0.000938416L145.003 -0.000938416C144.489 -0.000938416 144.072 0.374399 144.072 0.8374V5.48002C144.072 5.94302 144.489 6.31836 145.003 6.31836Z" fill="#F5F5F5"/>
<path d="M117.609 6.31836L141.926 6.31836C142.441 6.31836 142.858 5.94302 142.858 5.48002V0.8374C142.858 0.374399 142.441 -0.000938416 141.926 -0.000938416L117.609 -0.000938416C117.095 -0.000938416 116.678 0.374399 116.678 0.8374V5.48002C116.678 5.94302 117.095 6.31836 117.609 6.31836Z" fill="#F0F0F0"/>
<path d="M242.891 197.354H267.208C267.722 197.354 268.14 196.978 268.14 196.515V191.873C268.14 191.41 267.722 191.034 267.208 191.034H242.891C242.377 191.034 241.959 191.41 241.959 191.873V196.515C241.959 196.978 242.377 197.354 242.891 197.354Z" fill="#F5F5F5"/>
<path d="M250.888 189.518H275.205C275.72 189.518 276.137 189.142 276.137 188.679V184.037C276.137 183.574 275.72 183.198 275.205 183.198H250.888C250.374 183.198 249.957 183.574 249.957 184.037V188.679C249.957 189.142 250.374 189.518 250.888 189.518Z" fill="#F5F5F5"/>
<path d="M223.487 189.518H247.804C248.319 189.518 248.736 189.142 248.736 188.679V184.037C248.736 183.574 248.319 183.198 247.804 183.198H223.487C222.973 183.198 222.556 183.574 222.556 184.037V188.679C222.556 189.142 222.973 189.518 223.487 189.518Z" fill="#F0F0F0"/>
<path d="M35.1515 183.953H10.8349C10.3203 183.953 9.90314 184.328 9.90314 184.791V189.434C9.90314 189.897 10.3203 190.272 10.8349 190.272H35.1515C35.6661 190.272 36.0832 189.897 36.0832 189.434V184.791C36.0832 184.328 35.6661 183.953 35.1515 183.953Z" fill="#F5F5F5"/>
<path d="M27.1542 191.785H2.83755C2.32297 191.785 1.90582 192.16 1.90582 192.623V197.266C1.90582 197.729 2.32297 198.104 2.83755 198.104H27.1542C27.6688 198.104 28.0859 197.729 28.0859 197.266V192.623C28.0859 192.16 27.6688 191.785 27.1542 191.785Z" fill="#F5F5F5"/>
<path d="M54.5555 191.785H30.2388C29.7242 191.785 29.3071 192.16 29.3071 192.623V197.266C29.3071 197.729 29.7242 198.104 30.2388 198.104H54.5555C55.0701 198.104 55.4872 197.729 55.4872 197.266V192.623C55.4872 192.16 55.0701 191.785 54.5555 191.785Z" fill="#F0F0F0"/>
<path d="M145.265 183.953H120.948C120.433 183.953 120.016 184.328 120.016 184.791V189.434C120.016 189.897 120.433 190.272 120.948 190.272H145.265C145.779 190.272 146.196 189.897 146.196 189.434V184.791C146.196 184.328 145.779 183.953 145.265 183.953Z" fill="#F5F5F5"/>
<path d="M133.032 191.785H108.716C108.201 191.785 107.784 192.16 107.784 192.623V197.266C107.784 197.729 108.201 198.104 108.716 198.104H133.032C133.547 198.104 133.964 197.729 133.964 197.266V192.623C133.964 192.16 133.547 191.785 133.032 191.785Z" fill="#F5F5F5"/>
<path d="M160.433 191.785H136.117C135.602 191.785 135.185 192.16 135.185 192.623V197.266C135.185 197.729 135.602 198.104 136.117 198.104H160.433C160.948 198.104 161.365 197.729 161.365 197.266V192.623C161.365 192.16 160.948 191.785 160.433 191.785Z" fill="#F0F0F0"/>
<path d="M280.534 214.195H257.156V214.354H280.534V214.195Z" fill="#EBEBEB"/>
<path d="M196.764 215.926H190.63V216.085H196.764V215.926Z" fill="#EBEBEB"/>
<path d="M256.451 208.303H242.905V208.462H256.451V208.303Z" fill="#EBEBEB"/>
<path d="M30.4858 209.369H0V209.528H30.4858V209.369Z" fill="#EBEBEB"/>
<path d="M41.243 209.369H36.775V209.528H41.243V209.369Z" fill="#EBEBEB"/>
<path d="M121.894 212.051H55.7695V212.21H121.894V212.051Z" fill="#EBEBEB"/>
<path d="M276.37 203.725H1.79285V204.36H276.37V203.725Z" fill="#EBEBEB"/>
<path d="M150.516 230.221C218.524 230.221 273.656 227.002 273.656 223.031C273.656 219.061 218.524 215.842 150.516 215.842C82.507 215.842 27.3751 219.061 27.3751 223.031C27.3751 227.002 82.507 230.221 150.516 230.221Z" fill="#F5F5F5"/>
<path d="M185.524 207.27L182.565 185.497L197.362 167.74L217.091 170.108L233.467 166.557L249.842 170.108L251.026 178.394L247.869 209.022L241.161 211.926L185.524 207.27Z" fill="#FF725E"/>
<path opacity="0.2" d="M238.209 169.32L213.445 190.099L208.355 183.526L228.605 169.975L238.209 169.32Z" fill="black"/>
<path d="M256.479 177.012H175.659C174.98 177.01 174.328 176.74 173.848 176.259C173.367 175.778 173.096 175.127 173.094 174.448C173.096 173.768 173.367 173.117 173.848 172.636C174.328 172.156 174.98 171.885 175.659 171.883H256.479C257.159 171.883 257.812 172.153 258.293 172.634C258.774 173.115 259.044 173.767 259.044 174.448C259.044 175.128 258.774 175.78 258.293 176.261C257.812 176.742 257.159 177.012 256.479 177.012Z" fill="#F2E6A7"/>
<path opacity="0.5" d="M256.479 177.012H175.659C174.98 177.01 174.328 176.74 173.848 176.259C173.367 175.778 173.096 175.127 173.094 174.448C173.096 173.768 173.367 173.117 173.848 172.636C174.328 172.156 174.98 171.885 175.659 171.883H256.479C257.159 171.883 257.812 172.153 258.293 172.634C258.774 173.115 259.044 173.767 259.044 174.448C259.044 175.128 258.774 175.78 258.293 176.261C257.812 176.742 257.159 177.012 256.479 177.012Z" fill="white"/>
<path d="M177.719 177.014L180.339 209.062C180.491 210.829 181.298 212.476 182.602 213.677C183.906 214.879 185.613 215.55 187.386 215.557H244.752C246.525 215.55 248.232 214.879 249.536 213.677C250.84 212.476 251.647 210.829 251.799 209.062L254.427 177.014H177.719ZM192.113 203.68C192.113 204.375 191.837 205.041 191.346 205.533C190.855 206.024 190.188 206.3 189.493 206.3C188.799 206.3 188.132 206.024 187.641 205.533C187.149 205.041 186.873 204.375 186.873 203.68V184.369C186.873 183.674 187.149 183.008 187.641 182.516C188.132 182.025 188.799 181.749 189.493 181.749C190.188 181.749 190.855 182.025 191.346 182.516C191.837 183.008 192.113 183.674 192.113 184.369V203.68ZM205.403 203.68C205.403 204.375 205.127 205.041 204.636 205.533C204.144 206.024 203.478 206.3 202.783 206.3C202.088 206.3 201.422 206.024 200.931 205.533C200.439 205.041 200.163 204.375 200.163 203.68V184.369C200.163 183.674 200.439 183.008 200.931 182.516C201.422 182.025 202.088 181.749 202.783 181.749C203.478 181.749 204.144 182.025 204.636 182.516C205.127 183.008 205.403 183.674 205.403 184.369V203.68ZM218.693 203.68C218.693 204.375 218.417 205.041 217.926 205.533C217.434 206.024 216.768 206.3 216.073 206.3C215.378 206.3 214.712 206.024 214.22 205.533C213.729 205.041 213.453 204.375 213.453 203.68V184.369C213.453 183.674 213.729 183.008 214.22 182.516C214.712 182.025 215.378 181.749 216.073 181.749C216.768 181.749 217.434 182.025 217.926 182.516C218.417 183.008 218.693 183.674 218.693 184.369V203.68ZM231.983 203.68C231.946 204.351 231.653 204.982 231.165 205.445C230.677 205.907 230.031 206.164 229.359 206.164C228.687 206.164 228.04 205.907 227.552 205.445C227.064 204.982 226.772 204.351 226.735 203.68V184.369C226.772 183.698 227.064 183.066 227.552 182.604C228.04 182.142 228.687 181.885 229.359 181.885C230.031 181.885 230.677 182.142 231.165 182.604C231.653 183.066 231.946 183.698 231.983 184.369V203.68ZM245.265 203.68C245.265 204.375 244.989 205.041 244.497 205.533C244.006 206.024 243.339 206.3 242.645 206.3C241.95 206.3 241.283 206.024 240.792 205.533C240.301 205.041 240.024 204.375 240.024 203.68V184.369C240.024 183.674 240.301 183.008 240.792 182.516C241.283 182.025 241.95 181.749 242.645 181.749C243.339 181.749 244.006 182.025 244.497 182.516C244.989 183.008 245.265 183.674 245.265 184.369V203.68Z" fill="#F2E6A7"/>
<path opacity="0.7" d="M177.719 177.014L180.339 209.062C180.491 210.829 181.298 212.476 182.602 213.677C183.906 214.879 185.613 215.55 187.386 215.557H244.752C246.525 215.55 248.232 214.879 249.536 213.677C250.84 212.476 251.647 210.829 251.799 209.062L254.427 177.014H177.719ZM192.113 203.68C192.113 204.375 191.837 205.041 191.346 205.533C190.855 206.024 190.188 206.3 189.493 206.3C188.799 206.3 188.132 206.024 187.641 205.533C187.149 205.041 186.873 204.375 186.873 203.68V184.369C186.873 183.674 187.149 183.008 187.641 182.516C188.132 182.025 188.799 181.749 189.493 181.749C190.188 181.749 190.855 182.025 191.346 182.516C191.837 183.008 192.113 183.674 192.113 184.369V203.68ZM205.403 203.68C205.403 204.375 205.127 205.041 204.636 205.533C204.144 206.024 203.478 206.3 202.783 206.3C202.088 206.3 201.422 206.024 200.931 205.533C200.439 205.041 200.163 204.375 200.163 203.68V184.369C200.163 183.674 200.439 183.008 200.931 182.516C201.422 182.025 202.088 181.749 202.783 181.749C203.478 181.749 204.144 182.025 204.636 182.516C205.127 183.008 205.403 183.674 205.403 184.369V203.68ZM218.693 203.68C218.693 204.375 218.417 205.041 217.926 205.533C217.434 206.024 216.768 206.3 216.073 206.3C215.378 206.3 214.712 206.024 214.22 205.533C213.729 205.041 213.453 204.375 213.453 203.68V184.369C213.453 183.674 213.729 183.008 214.22 182.516C214.712 182.025 215.378 181.749 216.073 181.749C216.768 181.749 217.434 182.025 217.926 182.516C218.417 183.008 218.693 183.674 218.693 184.369V203.68ZM231.983 203.68C231.946 204.351 231.653 204.982 231.165 205.445C230.677 205.907 230.031 206.164 229.359 206.164C228.687 206.164 228.04 205.907 227.552 205.445C227.064 204.982 226.772 204.351 226.735 203.68V184.369C226.772 183.698 227.064 183.066 227.552 182.604C228.04 182.142 228.687 181.885 229.359 181.885C230.031 181.885 230.677 182.142 231.165 182.604C231.653 183.066 231.946 183.698 231.983 184.369V203.68ZM245.265 203.68C245.265 204.375 244.989 205.041 244.497 205.533C244.006 206.024 243.339 206.3 242.645 206.3C241.95 206.3 241.283 206.024 240.792 205.533C240.301 205.041 240.024 204.375 240.024 203.68V184.369C240.024 183.674 240.301 183.008 240.792 182.516C241.283 182.025 241.95 181.749 242.645 181.749C243.339 181.749 244.006 182.025 244.497 182.516C244.989 183.008 245.265 183.674 245.265 184.369V203.68Z" fill="white"/>
<path d="M236.623 170.305L247.096 166.557L262.271 170.305L265.823 189.238L253.393 190.824L249.053 172.081L236.623 170.305Z" fill="#FF725E"/>
<path d="M252.209 188.786L253.133 191.943L266.683 189.97L265.823 186.742L252.209 188.786Z" fill="#FF725E"/>
<path opacity="0.6" d="M252.209 188.786L253.133 191.943L266.683 189.97L265.823 186.742L252.209 188.786Z" fill="white"/>
<path opacity="0.7" d="M255.303 184.741C255.303 184.942 255.243 185.139 255.131 185.306C255.02 185.474 254.861 185.604 254.675 185.681C254.489 185.758 254.284 185.778 254.086 185.739C253.889 185.7 253.708 185.603 253.565 185.461C253.423 185.318 253.326 185.137 253.287 184.939C253.247 184.742 253.267 184.537 253.344 184.351C253.422 184.165 253.552 184.006 253.719 183.894C253.887 183.782 254.084 183.723 254.285 183.723C254.555 183.723 254.814 183.83 255.005 184.021C255.196 184.212 255.303 184.471 255.303 184.741Z" fill="white"/>
<path opacity="0.7" d="M253.788 179.711C253.786 179.912 253.725 180.109 253.612 180.275C253.5 180.441 253.34 180.571 253.154 180.646C252.968 180.722 252.763 180.741 252.566 180.701C252.369 180.661 252.189 180.563 252.047 180.421C251.906 180.278 251.809 180.097 251.771 179.899C251.732 179.702 251.753 179.498 251.83 179.312C251.907 179.127 252.038 178.968 252.205 178.857C252.372 178.745 252.569 178.686 252.77 178.686C252.904 178.686 253.037 178.712 253.161 178.764C253.285 178.815 253.398 178.891 253.492 178.987C253.587 179.082 253.662 179.195 253.713 179.319C253.763 179.444 253.789 179.577 253.788 179.711Z" fill="white"/>
<path d="M205.23 170.108L200.195 167.74L182.564 170.108L179.605 180.73L182.564 185.465C182.564 185.465 179.147 201.841 181.546 202.038C183.946 202.235 186.873 186.057 186.873 186.057L195.783 184.708C195.783 184.708 196.052 202.069 200.163 202.069C204.275 202.069 200.163 184.368 200.163 184.368L205.23 170.108ZM181.554 200.594C179.881 199.994 183.63 186.183 183.63 186.183H185.8C185.8 186.183 183.259 201.178 181.578 200.594H181.554ZM200.171 200.294C197.93 201.383 196.943 184.905 196.943 184.905H199.019C199.019 184.905 202.436 199.205 200.195 200.294H200.171Z" fill="#FF725E"/>
<path opacity="0.7" d="M205.23 170.108L200.195 167.74L182.564 170.108L179.605 180.73L182.564 185.465C182.564 185.465 179.147 201.841 181.546 202.038C183.946 202.235 186.873 186.057 186.873 186.057L195.783 184.708C195.783 184.708 196.052 202.069 200.163 202.069C204.275 202.069 200.163 184.368 200.163 184.368L205.23 170.108ZM181.554 200.594C179.881 199.994 183.63 186.183 183.63 186.183H185.8C185.8 186.183 183.259 201.178 181.578 200.594H181.554ZM200.171 200.294C197.93 201.383 196.943 184.905 196.943 184.905H199.019C199.019 184.905 202.436 199.205 200.195 200.294H200.171Z" fill="white"/>
<path d="M285.647 211.983H272.894V65.4484C272.892 61.8629 271.467 58.4248 268.932 55.8888C266.398 53.3528 262.961 51.9261 259.375 51.9219H105.485C101.9 51.9261 98.4627 53.3528 95.9282 55.8888C93.3936 58.4248 91.9689 61.8629 91.9668 65.4484V211.983H79.1743C78.3614 211.983 77.5818 212.305 77.0063 212.879C76.4308 213.453 76.1065 214.232 76.1044 215.045V215.558H110.228V215.045C110.228 214.233 109.906 213.454 109.332 212.88C108.757 212.306 107.979 211.983 107.166 211.983H94.4291V65.4484C94.4291 62.5181 95.5931 59.7079 97.6651 57.6359C99.7371 55.5639 102.547 54.3999 105.478 54.3999H259.367C262.298 54.3999 265.108 55.5639 267.18 57.6359C269.252 59.7079 270.416 62.5181 270.416 65.4484V211.983H257.655C256.842 211.983 256.062 212.305 255.487 212.879C254.911 213.453 254.587 214.232 254.585 215.045V215.558H288.717V215.045C288.715 214.232 288.39 213.453 287.815 212.879C287.239 212.305 286.46 211.983 285.647 211.983Z" fill="#35464E"/>
<path opacity="0.4" d="M285.647 211.983H272.894V65.4484C272.892 61.8629 271.467 58.4248 268.932 55.8888C266.398 53.3528 262.961 51.9261 259.375 51.9219H105.485C101.9 51.9261 98.4627 53.3528 95.9282 55.8888C93.3936 58.4248 91.9689 61.8629 91.9668 65.4484V211.983H79.1743C78.3614 211.983 77.5818 212.305 77.0063 212.879C76.4308 213.453 76.1065 214.232 76.1044 215.045V215.558H110.228V215.045C110.228 214.233 109.906 213.454 109.332 212.88C108.757 212.306 107.979 211.983 107.166 211.983H94.4291V65.4484C94.4291 62.5181 95.5931 59.7079 97.6651 57.6359C99.7371 55.5639 102.547 54.3999 105.478 54.3999H259.367C262.298 54.3999 265.108 55.5639 267.18 57.6359C269.252 59.7079 270.416 62.5181 270.416 65.4484V211.983H257.655C256.842 211.983 256.062 212.305 255.487 212.879C254.911 213.453 254.587 214.232 254.585 215.045V215.558H288.717V215.045C288.715 214.232 288.39 213.453 287.815 212.879C287.239 212.305 286.46 211.983 285.647 211.983Z" fill="white"/>
<path d="M123.179 55.1661C123.201 54.8979 123.254 54.6331 123.337 54.377H122.058C121.998 54.6368 121.956 54.9005 121.932 55.1661C121.869 55.9632 123.116 55.9553 123.179 55.1661Z" fill="#35464E"/>
<g opacity="0.2">
<path opacity="0.2" d="M116.85 139.842L119.525 140.166L124.986 101.686C123.929 103.138 122.619 105.726 121.743 110.303C120.354 117.359 117.891 133.079 116.85 139.842Z" fill="black"/>
</g>
<g opacity="0.2">
<path opacity="0.2" d="M175.099 139.829C174.049 133.058 171.595 117.353 170.206 110.306C169.148 104.971 167.586 102.343 166.457 101.072L171.358 140.168L175.099 139.829Z" fill="black"/>
</g>
<path d="M143.879 74.4997L127.125 64.4455V59.6552C130.589 58.9134 132.578 54.7702 129.737 51.9292C129.333 51.5036 128.848 51.1647 128.309 50.9331C127.77 50.7015 127.19 50.582 126.604 50.582C126.017 50.582 125.437 50.7015 124.899 50.9331C124.36 51.1647 123.874 51.5036 123.471 51.9292H125.98C126.491 51.8261 127.02 51.8602 127.514 52.0279C128.007 52.1956 128.448 52.491 128.79 52.8841C129.239 53.3468 129.543 53.9301 129.667 54.5629C129.79 55.1957 129.726 55.8507 129.484 56.448C129.241 57.0453 128.83 57.5591 128.3 57.9268C127.771 58.2945 127.146 58.5002 126.501 58.5188C126.338 58.5208 126.182 58.586 126.065 58.7008C125.949 58.8156 125.882 58.971 125.878 59.1344V64.4534L109.179 74.4997C108.492 74.91 109.116 75.9912 109.802 75.573L117.97 70.6643L123.905 67.0972C124.576 66.6947 125.302 66.308 125.941 65.8739C126.075 65.7792 126.422 65.6214 126.604 65.5109C127.022 65.8582 128.474 66.6947 128.877 66.9314C130.829 68.1099 132.78 69.2832 134.732 70.4512L143.248 75.573C143.389 75.6466 143.554 75.6631 143.707 75.619C143.861 75.5749 143.992 75.4736 144.073 75.3359C144.154 75.1982 144.179 75.0348 144.143 74.8792C144.107 74.7236 144.012 74.5877 143.879 74.4997Z" fill="#35464E"/>
<path d="M146.965 98.1334L148.543 128.406L105.265 128.083L106.188 99.3882L100.395 140.181L89.4336 138.855C89.6418 124.891 91.1771 110.978 94.0187 97.3048C98.6117 76.3758 109.487 72.8008 109.487 72.8008C114.807 75.3417 120.629 76.6604 126.525 76.6604C132.421 76.6604 138.243 75.3417 143.563 72.8008C143.563 72.8008 155.551 76.0443 158.558 94.3138C161.564 112.583 163.206 139.171 163.206 139.171L152.244 140.165L146.965 98.1334Z" fill="#FF725E"/>
<g opacity="0.8">
<path opacity="0.8" d="M147.707 112.656H105.762L105.533 119.696H148.062L147.707 112.656Z" fill="white"/>
</g>
<path opacity="0.1" d="M111.104 80.8203L107.159 94.2837C107.159 94.2837 105.525 86.2025 111.104 80.8203Z" fill="black"/>
<path opacity="0.1" d="M161.864 80.8203L165.81 94.2837C165.81 94.2837 167.452 86.2025 161.864 80.8203Z" fill="black"/>
<path d="M162.646 55.1661C162.672 54.8985 162.725 54.6341 162.804 54.377H161.533C161.469 54.636 161.426 54.9 161.407 55.1661C161.336 55.9632 162.575 55.9553 162.646 55.1661Z" fill="#35464E"/>
<path d="M183.346 74.4991L166.615 64.445V59.6546C170.088 58.9128 172.068 54.7696 169.227 51.9286C168.825 51.5033 168.34 51.1645 167.802 50.933C167.264 50.7014 166.684 50.582 166.098 50.582C165.513 50.582 164.933 50.7014 164.395 50.933C163.857 51.1645 163.372 51.5033 162.969 51.9286H165.479C165.989 51.8253 166.516 51.8594 167.009 52.0271C167.501 52.1949 167.94 52.4905 168.28 52.8835C168.729 53.3457 169.033 53.9283 169.157 54.5604C169.28 55.1925 169.218 55.8469 168.976 56.444C168.734 57.041 168.324 57.5549 167.796 57.9232C167.267 58.2914 166.643 58.4982 166 58.5182C165.836 58.5202 165.68 58.5855 165.564 58.7003C165.448 58.8151 165.38 58.9705 165.376 59.1338V64.4528L148.622 74.4991C148.489 74.5871 148.394 74.723 148.358 74.8786C148.322 75.0342 148.347 75.1977 148.428 75.3353C148.509 75.473 148.64 75.5743 148.794 75.6184C148.947 75.6625 149.112 75.6461 149.253 75.5724L157.413 70.6637L163.348 67.0966C164.027 66.6941 164.753 66.3074 165.392 65.8734C165.526 65.7787 165.873 65.6208 166.047 65.5104C166.465 65.8576 167.925 66.6941 168.32 66.9309L174.191 70.4743L182.714 75.596C183.401 75.9985 184.024 74.9095 183.346 74.4991Z" fill="#35464E"/>
<path d="M148.953 72.8438C154.273 75.3845 160.093 76.7032 165.988 76.7032C171.883 76.7032 177.703 75.3845 183.022 72.8438C183.022 72.8438 194.765 77.4131 198.806 95.3274L186.447 98.1764L188.026 128.449L144.779 128.11L145.71 99.4154L134.898 95.7062C134.898 95.7062 137.179 76.8291 148.953 72.8438Z" fill="#FF725E"/>
<path opacity="0.5" d="M148.953 72.8438C154.273 75.3845 160.093 76.7032 165.988 76.7032C171.883 76.7032 177.703 75.3845 183.022 72.8438C183.022 72.8438 194.765 77.4131 198.806 95.3274L186.447 98.1764L188.026 128.449L144.779 128.11L145.71 99.4154L134.898 95.7062C134.898 95.7062 137.179 76.8291 148.953 72.8438Z" fill="white"/>
<path opacity="0.2" d="M143.99 98.7987L145.521 99.3274L146.404 88.7051L143.99 98.7987Z" fill="black"/>
<path opacity="0.2" d="M184.94 85.9102L186.424 98.1345L188.831 97.5821L184.94 85.9102Z" fill="black"/>
<path d="M166.015 95.611C173.49 95.611 179.55 93.1377 179.55 90.0867C179.55 87.0358 173.49 84.5625 166.015 84.5625C158.541 84.5625 152.481 87.0358 152.481 90.0867C152.481 93.1377 158.541 95.611 166.015 95.611Z" fill="#FF725E"/>
<path d="M199.919 55.1661C199.941 54.8979 199.994 54.6331 200.076 54.377H198.806C198.739 54.6358 198.694 54.8998 198.672 55.1661C198.616 55.9632 199.863 55.9553 199.919 55.1661Z" fill="#35464E"/>
<path d="M220.627 74.5L203.864 64.4459V59.6556C207.337 58.9137 209.318 54.7706 206.477 51.9295C206.073 51.505 205.587 51.167 205.048 50.936C204.509 50.705 203.93 50.5859 203.344 50.5859C202.758 50.5859 202.178 50.705 201.639 50.936C201.1 51.167 200.614 51.505 200.211 51.9295H202.728C203.238 51.8263 203.766 51.8603 204.258 52.0281C204.75 52.1958 205.189 52.4914 205.53 52.8844C205.979 53.3471 206.283 53.9304 206.406 54.5632C206.53 55.1961 206.466 55.851 206.223 56.4483C205.981 57.0457 205.57 57.5595 205.04 57.9272C204.51 58.2949 203.885 58.5006 203.241 58.5192C203.078 58.5212 202.923 58.5867 202.808 58.7017C202.693 58.8167 202.627 58.9721 202.625 59.1347V64.4538L185.895 74.5079C185.208 74.9183 185.832 75.9994 186.518 75.5812L194.686 70.6725L200.621 67.1054C201.292 66.7029 202.026 66.3162 202.665 65.8822C202.799 65.7875 203.146 65.6296 203.32 65.5192C203.738 65.8664 205.198 66.7029 205.593 66.9397L211.448 70.4594L219.972 75.5812C220.69 75.9994 221.313 74.9104 220.627 74.5Z" fill="#35464E"/>
<path d="M239.938 133.753C239.938 133.753 238.28 107.173 235.289 88.8959C234.137 81.8722 231.659 77.0582 229.047 73.8226C227.406 71.803 225.334 70.1764 222.982 69.0621C220.631 67.9477 218.06 67.374 215.457 67.3829H209.547L206.106 70.9816H200.305L197.267 67.3829H193.85C190.191 67.3729 186.595 68.3379 183.433 70.1785C180.27 72.0191 177.655 74.6689 175.856 77.8553C173.481 82.2571 171.769 86.9852 170.774 91.8869C167.929 105.555 166.391 119.462 166.181 133.421L177.151 134.747L182.935 93.9545L182.272 142.71L225.519 143.049L223.712 92.7155L228.976 134.747L239.938 133.753Z" fill="#35464E"/>
<path opacity="0.2" d="M182.209 86.778C181.799 92.3022 173.923 134.034 173.923 134.034L175.983 134.602L177.151 134.744L182.935 93.9516C182.935 93.9516 182.628 81.2458 182.209 86.778Z" fill="black"/>
<path opacity="0.2" d="M231.612 134.51C230.523 126.887 227.769 107.615 226.088 97.1346C224.02 83.8764 223.673 85.3838 223.673 85.3838V92.7152L228.937 134.747L231.612 134.51Z" fill="black"/>
<path d="M197.164 66.459L203.265 70.4206L208.828 66.459L212.309 67.1298L208.292 75.0373L203.265 72.0858L197.701 75.0373L194.623 67.1298L197.164 66.459Z" fill="#35464E"/>
<path opacity="0.2" d="M197.164 66.459L203.265 70.4206L208.828 66.459L212.309 67.1298L208.292 75.0373L203.265 72.0858L197.701 75.0373L194.623 67.1298L197.164 66.459Z" fill="white"/>
<path d="M165.463 131.92L177.845 133.498L177.427 136.158L165.463 134.658V131.92Z" fill="#35464E"/>
<path opacity="0.2" d="M165.463 131.92L177.845 133.498L177.427 136.158L165.463 134.658V131.92Z" fill="white"/>
<path d="M240.459 132.141L228.037 133.277L228.353 135.952L240.648 134.855L240.459 132.141Z" fill="#35464E"/>
<path opacity="0.2" d="M240.459 132.141L228.037 133.277L228.353 135.952L240.648 134.855L240.459 132.141Z" fill="white"/>
<path opacity="0.7" d="M204.062 86.7796C204.062 86.9778 204.003 87.1716 203.893 87.3364C203.783 87.5012 203.626 87.6297 203.443 87.7056C203.26 87.7814 203.058 87.8013 202.864 87.7626C202.669 87.7239 202.491 87.6285 202.351 87.4883C202.211 87.3481 202.115 87.1695 202.076 86.9751C202.038 86.7807 202.058 86.5792 202.133 86.3961C202.209 86.2129 202.338 86.0564 202.503 85.9463C202.667 85.8361 202.861 85.7773 203.059 85.7773C203.325 85.7773 203.58 85.8829 203.768 86.0709C203.956 86.2589 204.062 86.5138 204.062 86.7796Z" fill="white"/>
<path opacity="0.7" d="M204.472 102.238C204.477 102.44 204.421 102.637 204.313 102.807C204.205 102.976 204.048 103.109 203.863 103.189C203.679 103.269 203.475 103.292 203.277 103.255C203.079 103.218 202.897 103.123 202.754 102.982C202.61 102.841 202.512 102.66 202.472 102.463C202.432 102.266 202.452 102.062 202.529 101.876C202.606 101.69 202.736 101.531 202.904 101.42C203.072 101.309 203.269 101.25 203.47 101.252C203.733 101.252 203.986 101.355 204.173 101.54C204.361 101.724 204.468 101.975 204.472 102.238Z" fill="white"/>
<path opacity="0.7" d="M205.072 118.252C205.073 118.452 205.015 118.648 204.905 118.816C204.795 118.983 204.638 119.113 204.454 119.191C204.269 119.269 204.066 119.29 203.87 119.252C203.673 119.214 203.492 119.118 203.35 118.977C203.208 118.836 203.111 118.656 203.072 118.46C203.032 118.264 203.051 118.06 203.128 117.875C203.204 117.69 203.333 117.532 203.5 117.421C203.666 117.309 203.862 117.25 204.062 117.25C204.328 117.25 204.584 117.355 204.773 117.543C204.962 117.731 205.07 117.986 205.072 118.252Z" fill="white"/>
<path opacity="0.7" d="M205.072 134.627C205.073 134.827 205.015 135.023 204.905 135.191C204.795 135.358 204.638 135.488 204.454 135.566C204.269 135.644 204.066 135.665 203.87 135.627C203.673 135.589 203.492 135.493 203.35 135.352C203.208 135.211 203.111 135.031 203.072 134.835C203.032 134.639 203.051 134.436 203.128 134.25C203.204 134.065 203.333 133.907 203.5 133.796C203.666 133.684 203.862 133.625 204.062 133.625C204.194 133.624 204.325 133.649 204.448 133.699C204.57 133.749 204.682 133.823 204.776 133.916C204.869 134.009 204.944 134.12 204.995 134.242C205.046 134.364 205.072 134.495 205.072 134.627Z" fill="white"/>
<path d="M244.097 55.1661C244.123 54.8985 244.176 54.6341 244.255 54.377H242.984C242.924 54.6368 242.882 54.9005 242.858 55.1661C242.787 55.9632 244.018 55.9553 244.097 55.1661Z" fill="#35464E"/>
<path d="M264.789 74.4991L248.066 64.445V59.6546C251.531 58.9128 253.512 54.7696 250.671 51.9286C250.268 51.5033 249.783 51.1645 249.245 50.933C248.707 50.7014 248.127 50.582 247.541 50.582C246.956 50.582 246.376 50.7014 245.838 50.933C245.3 51.1645 244.815 51.5033 244.412 51.9286H246.922C247.433 51.8255 247.962 51.8596 248.455 52.0273C248.949 52.195 249.389 52.4905 249.731 52.8835C250.18 53.3462 250.485 53.9295 250.608 54.5623C250.731 55.1951 250.668 55.8501 250.425 56.4474C250.183 57.0447 249.771 57.5586 249.242 57.9263C248.712 58.294 248.087 58.4996 247.443 58.5182C247.279 58.5202 247.123 58.5855 247.007 58.7003C246.891 58.8151 246.823 58.9705 246.819 59.1338V64.4528L230.089 74.507C229.41 74.9174 230.034 75.9985 230.72 75.5803L238.88 70.6716L244.815 67.1045C245.494 66.702 246.22 66.3153 246.859 65.8813C246.993 65.7866 247.34 65.6287 247.514 65.5182C247.932 65.8655 249.392 66.702 249.787 66.9388L255.65 70.4585C258.481 72.1684 261.319 73.8756 264.165 75.5803C264.852 75.9985 265.476 74.9095 264.789 74.4991Z" fill="#35464E"/>
<path d="M227.595 75.0349L232.401 70.9785C232.401 70.9785 239.054 76.7158 247.443 75.8162C252.719 75.1758 257.824 73.5338 262.485 70.9785L266.502 73.9537C266.502 73.9537 260.741 82.9425 267.472 93.9041L266.462 127.555H229.023L227.54 93.1544C227.54 93.1544 235.337 83.5817 227.595 75.0349Z" fill="#F2E6A7"/>
<path d="M211.904 106.22C211.904 106.22 222.849 75.3798 225.546 73.5483C228.243 71.7167 239.476 68.4355 239.476 68.4355L247.838 96.8595L256.498 69.0986C256.498 69.0986 268.317 71.2647 271.346 76.1358C274.375 81.0069 282.14 106.274 282.14 106.274L265.522 112.868L267.644 123.241L225.652 122.672L228.19 113.78L211.904 106.22Z" fill="#FF725E"/>
<g opacity="0.3">
<path opacity="0.3" d="M234.717 87.5334C231.852 82.6597 230.373 77.053 230.449 71.3535L226.249 73.0136C226.478 78.8024 228.171 84.4286 231.159 89.3338C231.569 90.1227 232.17 90.7886 232.904 91.2666C233.277 91.4915 233.712 91.58 234.14 91.5178C234.568 91.4555 234.962 91.2462 235.261 90.9237C235.978 89.9417 235.306 88.5778 234.717 87.5334Z" fill="black"/>
</g>
<g opacity="0.3">
<path opacity="0.3" d="M240.004 104.306C239.861 104.016 239.646 103.771 239.38 103.596C239.115 103.42 238.809 103.321 238.494 103.308C238.136 103.247 237.771 103.267 237.421 103.365C237.072 103.464 236.748 103.639 236.47 103.88C236.193 104.12 235.97 104.419 235.815 104.757C235.661 105.095 235.579 105.464 235.576 105.837C235.572 106.211 235.648 106.581 235.796 106.922C235.944 107.262 236.163 107.566 236.436 107.811C236.709 108.057 237.03 108.239 237.377 108.344C237.725 108.449 238.09 108.475 238.448 108.421C238.929 108.354 239.369 108.104 239.68 107.72C239.946 107.342 240.113 106.898 240.163 106.434C240.329 105.725 240.274 104.98 240.004 104.306Z" fill="black"/>
</g>
<g opacity="0.3">
<path opacity="0.3" d="M265.899 114.794C264.329 116.637 262.408 118.128 260.257 119.174C259.174 119.719 257.986 120.001 256.782 120.001C255.578 120.001 254.389 119.719 253.307 119.174C252.332 118.613 251.381 117.748 250.285 117.881C249.485 117.974 248.707 118.598 247.944 118.317C247.725 118.222 247.534 118.07 247.39 117.876C247.246 117.682 247.153 117.453 247.12 117.21C247.07 116.738 247.16 116.262 247.379 115.844C247.597 115.427 247.934 115.088 248.344 114.872C249.179 114.455 250.119 114.319 251.033 114.482C251.947 114.599 252.831 114.864 253.745 115.005C257.447 115.55 261.888 112.557 264.525 109.51L266.489 107.172L265.507 112.791L265.899 114.794Z" fill="black"/>
</g>
<path d="M268.468 98.1562C268.168 100.644 267.737 103.113 267.176 105.553C266.745 108.021 266.188 110.464 265.507 112.871C265.806 110.381 266.234 107.909 266.791 105.467C267.224 103.001 267.784 100.561 268.468 98.1562Z" fill="#263238"/>
<path d="M267.901 73.098C267.891 73.3518 267.84 73.6021 267.75 73.8385C267.562 74.5021 267.308 75.1445 266.995 75.7557C265.944 77.7936 264.322 79.4579 262.342 80.5323C260.361 81.6068 258.114 82.0416 255.89 81.7803C255.226 81.7065 254.57 81.5629 253.934 81.3516C253.693 81.2913 253.464 81.1913 253.254 81.0555C253.254 80.9776 254.259 81.3673 255.921 81.492C258.081 81.6719 260.247 81.2142 262.165 80.1724C264.083 79.1305 265.674 77.5473 266.753 75.6076C267.584 74.1268 267.826 73.0747 267.901 73.098Z" fill="white"/>
<path d="M271.119 76.0291C271.036 76.3179 270.919 76.5952 270.772 76.8552C270.401 77.5807 269.966 78.2694 269.472 78.9128C267.838 81.0608 265.664 82.7052 263.186 83.6671C260.709 84.629 258.024 84.8715 255.422 84.3684C254.648 84.2218 253.889 84 253.156 83.7059C252.889 83.6138 252.635 83.4854 252.401 83.324C252.401 83.2461 253.564 83.7761 255.528 84.1034C258.078 84.522 260.69 84.2476 263.106 83.3073C265.522 82.3671 267.659 80.7933 269.306 78.7413C270.53 77.1202 271.051 75.9511 271.119 76.0291Z" fill="white"/>
<path d="M246.259 93.666C245.985 93.8286 245.694 93.9568 245.39 94.0479C244.824 94.2583 244.008 94.5935 243.018 95.0299C237.837 97.3183 233.158 100.664 229.263 104.866C228.507 105.645 227.926 106.331 227.533 106.806C227.34 107.063 227.123 107.298 226.883 107.508C227.031 107.228 227.208 106.967 227.412 106.728C227.775 106.222 228.334 105.52 229.059 104.686C230.968 102.528 233.106 100.599 235.434 98.9346C237.765 97.2705 240.275 95.8897 242.913 94.8195C243.925 94.4142 244.756 94.1181 245.345 93.9544C245.64 93.8287 245.946 93.7321 246.259 93.666Z" fill="white"/>
<path d="M245.813 90.4648C245.54 90.6066 245.251 90.7138 244.952 90.7844C244.386 90.9636 243.578 91.2286 242.58 91.5638C239.99 92.4613 237.454 93.5206 234.989 94.7358C232.531 95.9647 230.148 97.3441 227.85 98.8665C226.966 99.4589 226.264 99.9421 225.773 100.285C225.539 100.476 225.286 100.641 225.017 100.776C225.21 100.56 225.422 100.364 225.652 100.191C226.113 99.8018 226.8 99.2796 227.661 98.6327C232.198 95.4108 237.193 92.9366 242.467 91.2988C243.479 90.987 244.303 90.761 244.877 90.6363C245.183 90.5468 245.496 90.4894 245.813 90.4648Z" fill="white"/>
<path d="M275.78 108.208C274.579 107.08 273.304 106.039 271.965 105.09C270.558 104.269 269.099 103.545 267.599 102.924C268.083 102.94 268.561 103.043 269.012 103.228C270.124 103.597 271.187 104.107 272.177 104.748C273.167 105.383 274.078 106.142 274.889 107.008C275.25 107.353 275.551 107.759 275.78 108.208Z" fill="white"/>
<path d="M217.962 108.258C217.081 106.833 216.39 105.292 215.907 103.676C215.304 102.103 214.905 100.454 214.721 98.7734C214.835 98.7734 215.379 100.925 216.277 103.535C217.176 106.146 218.098 108.212 217.962 108.258Z" fill="white"/>
<path d="M235.472 122.853C233.951 122.342 232.495 121.643 231.136 120.772C229.709 120.018 228.378 119.086 227.17 117.997C227.231 117.904 229.036 119.081 231.325 120.413C233.614 121.746 235.51 122.791 235.472 122.853Z" fill="white"/>
<path d="M246.312 102.688C246.112 102.283 245.945 101.86 245.813 101.426C245.519 100.599 245.103 99.3992 244.605 97.9184C243.608 94.9568 242.278 90.8417 240.865 86.2823C239.453 81.7229 238.244 77.5611 237.398 74.5449C236.975 73.0407 236.643 71.8171 236.424 70.9675C236.292 70.5342 236.19 70.0913 236.122 69.6426C236.308 70.057 236.46 70.4873 236.575 70.9285C236.854 71.8248 237.217 73.0173 237.67 74.4669C238.599 77.5143 239.853 81.6216 241.243 86.1576C242.633 90.6936 243.925 94.7775 244.869 97.8483C245.315 99.2901 245.685 100.49 245.957 101.387C246.103 101.812 246.222 102.247 246.312 102.688Z" fill="#263238"/>
<path d="M249.825 102.826C249.252 103.028 248.644 103.1 248.042 103.036C247.442 103.104 246.834 103.041 246.259 102.849C247.433 102.574 248.651 102.574 249.825 102.849V102.826Z" fill="#263238"/>
<path d="M260.506 68.2894C260.612 68.2894 258.323 76.0831 255.407 85.6149C252.491 95.1467 250.029 102.863 249.923 102.824C249.817 102.785 252.106 95.0298 255.029 85.4902C257.953 75.9506 260.4 68.2348 260.506 68.2894Z" fill="#263238"/>
<path d="M228.137 113.773C228.031 113.773 227.102 110.086 226.052 105.48C225.002 100.874 224.247 97.1251 224.353 97.1017C224.458 97.0783 225.395 100.788 226.438 105.394C227.48 110 228.243 113.749 228.137 113.773Z" fill="#263238"/>
<path d="M144.06 144.774C142.806 144.774 141.511 144.522 141.101 143.985C140.995 143.834 140.938 143.653 140.938 143.468C140.938 143.283 140.995 143.103 141.101 142.951C141.19 142.812 141.305 142.691 141.441 142.596C141.576 142.502 141.729 142.435 141.89 142.399C143.579 141.949 147.075 143.977 147.233 144.08C147.277 144.104 147.312 144.142 147.333 144.187C147.354 144.233 147.36 144.283 147.35 144.332C147.341 144.382 147.316 144.426 147.279 144.46C147.242 144.494 147.196 144.516 147.146 144.522C146.128 144.701 145.095 144.785 144.06 144.774ZM142.482 142.801C142.327 142.793 142.172 142.811 142.024 142.857C141.927 142.872 141.835 142.909 141.754 142.965C141.674 143.021 141.607 143.095 141.559 143.18C141.377 143.48 141.433 143.622 141.504 143.701C141.961 144.364 144.51 144.404 146.389 144.19C145.184 143.483 143.856 143.011 142.474 142.801H142.482Z" fill="#FF725E"/>
<path d="M147.115 144.516C147.081 144.528 147.045 144.528 147.012 144.516C145.812 143.963 143.405 141.761 143.634 140.625C143.634 140.357 143.871 140.025 144.526 139.962C144.764 139.938 145.004 139.963 145.232 140.035C145.46 140.107 145.671 140.224 145.852 140.38C147.13 141.454 147.375 144.168 147.383 144.326C147.388 144.37 147.38 144.414 147.36 144.453C147.34 144.492 147.31 144.525 147.272 144.547C147.218 144.557 147.161 144.546 147.115 144.516ZM144.684 140.412H144.55C144.116 140.412 144.084 140.617 144.068 140.68C143.997 141.359 145.576 143.087 146.815 143.837C146.704 142.694 146.247 141.612 145.505 140.735C145.287 140.542 145.007 140.433 144.715 140.428L144.684 140.412Z" fill="#FF725E"/>
<g opacity="0.7">
<path opacity="0.7" d="M144.061 144.776C142.806 144.776 141.512 144.524 141.101 143.987C140.995 143.836 140.938 143.655 140.938 143.47C140.938 143.285 140.995 143.105 141.101 142.953C141.19 142.814 141.305 142.693 141.441 142.598C141.576 142.504 141.729 142.437 141.89 142.401C143.579 141.951 147.075 143.979 147.233 144.082C147.277 144.106 147.312 144.144 147.333 144.189C147.354 144.234 147.36 144.285 147.35 144.334C147.341 144.383 147.316 144.428 147.279 144.462C147.242 144.496 147.196 144.518 147.146 144.524C146.128 144.702 145.095 144.787 144.061 144.776ZM142.482 142.803C142.328 142.794 142.173 142.813 142.024 142.859C141.927 142.874 141.835 142.911 141.754 142.967C141.674 143.023 141.607 143.096 141.559 143.182C141.377 143.482 141.433 143.624 141.504 143.703C141.961 144.366 144.51 144.405 146.389 144.192C145.184 143.485 143.856 143.013 142.474 142.803H142.482Z" fill="white"/>
<path opacity="0.7" d="M147.115 144.516C147.081 144.528 147.045 144.528 147.012 144.516C145.812 143.963 143.405 141.761 143.634 140.625C143.634 140.357 143.871 140.025 144.526 139.962C144.764 139.938 145.004 139.963 145.232 140.035C145.46 140.107 145.671 140.224 145.852 140.38C147.13 141.454 147.375 144.168 147.383 144.326C147.388 144.37 147.38 144.414 147.36 144.453C147.34 144.492 147.31 144.525 147.272 144.547C147.218 144.557 147.161 144.546 147.115 144.516ZM144.684 140.412H144.55C144.116 140.412 144.084 140.617 144.068 140.68C143.997 141.359 145.576 143.087 146.815 143.837C146.704 142.694 146.247 141.612 145.505 140.735C145.287 140.542 145.007 140.433 144.715 140.428L144.684 140.412Z" fill="white"/>
</g>
<path d="M148.188 143.117L159.236 143.212C159.438 143.214 159.633 143.285 159.789 143.412C159.945 143.54 160.054 143.717 160.097 143.914L162.006 152.887C162.089 153.268 162.017 153.666 161.807 153.994C161.597 154.322 161.266 154.554 160.886 154.639C160.782 154.664 160.676 154.677 160.57 154.678C156.624 154.568 153.081 154.323 148.141 154.284C142.309 154.236 143.784 154.947 136.926 154.978C132.799 154.978 132.089 150.298 133.841 150.077C141.859 149.146 142.719 146.731 145.836 143.89C146.499 143.354 147.336 143.078 148.188 143.117Z" fill="#FF725E"/>
<path opacity="0.6" d="M160.846 154.637C161.227 154.552 161.558 154.321 161.768 153.992C161.978 153.664 162.049 153.266 161.967 152.885L161.746 151.867C160.594 151.781 159.244 151.67 157.658 151.512C149.648 150.723 145.442 151.915 139.933 151.994C137.571 152.092 135.218 151.641 133.059 150.676C132.475 151.994 133.588 154.993 136.887 154.977C143.745 154.977 142.269 154.235 148.101 154.282C153.041 154.322 156.569 154.566 160.531 154.677C160.637 154.675 160.743 154.662 160.846 154.637Z" fill="white"/>
<path d="M158.021 147.527C158.021 147.988 157.884 148.438 157.629 148.821C157.373 149.204 157.009 149.502 156.584 149.678C156.158 149.854 155.69 149.9 155.239 149.811C154.787 149.721 154.372 149.499 154.047 149.173C153.721 148.848 153.499 148.433 153.41 147.981C153.32 147.53 153.366 147.062 153.542 146.636C153.718 146.211 154.017 145.847 154.4 145.592C154.782 145.336 155.233 145.199 155.693 145.199C156.31 145.199 156.903 145.445 157.339 145.881C157.776 146.318 158.021 146.91 158.021 147.527Z" fill="white"/>
<path d="M123.045 144.71C121.798 144.71 120.504 144.457 120.093 143.921C119.986 143.77 119.928 143.589 119.928 143.404C119.928 143.219 119.986 143.038 120.093 142.887C120.182 142.747 120.297 142.627 120.433 142.532C120.568 142.437 120.721 142.37 120.882 142.335C122.571 141.885 126.067 143.913 126.225 144.015C126.268 144.04 126.303 144.078 126.323 144.123C126.343 144.169 126.347 144.22 126.336 144.268C126.327 144.315 126.304 144.358 126.27 144.392C126.236 144.426 126.193 144.449 126.146 144.457C125.122 144.636 124.084 144.721 123.045 144.71ZM121.466 142.737C121.314 142.728 121.162 142.746 121.016 142.792C120.918 142.806 120.824 142.843 120.742 142.899C120.66 142.955 120.592 143.029 120.543 143.116C120.361 143.416 120.425 143.558 120.488 143.637C120.953 144.3 123.494 144.339 125.373 144.126C124.169 143.417 122.84 142.945 121.458 142.737H121.466Z" fill="#FF725E"/>
<path d="M126.099 144.451C126.065 144.463 126.029 144.463 125.996 144.451C124.797 143.899 122.397 141.697 122.618 140.56C122.618 140.284 122.855 139.961 123.51 139.898C123.748 139.874 123.988 139.898 124.216 139.97C124.444 140.042 124.655 140.16 124.836 140.316C126.115 141.381 126.359 144.104 126.367 144.262C126.376 144.297 126.374 144.335 126.363 144.369C126.352 144.404 126.331 144.435 126.304 144.459C126.276 144.483 126.242 144.498 126.206 144.504C126.169 144.509 126.132 144.505 126.099 144.491V144.451ZM123.668 140.347H123.534C123.1 140.347 123.076 140.553 123.053 140.616C122.989 141.294 124.56 143.023 125.799 143.772C125.696 142.627 125.238 141.543 124.489 140.671C124.273 140.475 123.992 140.365 123.7 140.363L123.668 140.347Z" fill="#FF725E"/>
<g opacity="0.7">
<path opacity="0.7" d="M123.045 144.712C121.798 144.712 120.503 144.459 120.093 143.923C119.986 143.772 119.928 143.591 119.928 143.406C119.928 143.221 119.986 143.04 120.093 142.889C120.182 142.749 120.297 142.629 120.433 142.534C120.568 142.439 120.721 142.372 120.882 142.336C122.571 141.887 126.067 143.915 126.225 144.017C126.268 144.042 126.303 144.08 126.323 144.125C126.342 144.171 126.347 144.222 126.335 144.27C126.327 144.317 126.304 144.36 126.27 144.394C126.236 144.428 126.193 144.451 126.146 144.459C125.122 144.638 124.084 144.723 123.045 144.712ZM121.466 142.739C121.314 142.73 121.162 142.748 121.016 142.794C120.918 142.808 120.824 142.845 120.742 142.901C120.66 142.957 120.592 143.031 120.543 143.118C120.361 143.418 120.425 143.56 120.488 143.639C120.953 144.302 123.494 144.341 125.373 144.128C124.169 143.419 122.84 142.947 121.458 142.739H121.466Z" fill="white"/>
<path opacity="0.7" d="M126.099 144.451C126.065 144.463 126.029 144.463 125.996 144.451C124.797 143.899 122.397 141.697 122.618 140.56C122.618 140.284 122.855 139.961 123.51 139.898C123.748 139.874 123.988 139.898 124.216 139.97C124.444 140.042 124.655 140.16 124.836 140.316C126.115 141.381 126.359 144.104 126.367 144.262C126.376 144.297 126.374 144.335 126.363 144.369C126.352 144.404 126.331 144.435 126.304 144.459C126.276 144.483 126.242 144.498 126.206 144.504C126.169 144.509 126.132 144.505 126.099 144.491V144.451ZM123.668 140.347H123.534C123.1 140.347 123.076 140.553 123.053 140.616C122.989 141.294 124.56 143.023 125.799 143.772C125.696 142.627 125.238 141.543 124.489 140.671C124.273 140.475 123.992 140.365 123.7 140.363L123.668 140.347Z" fill="white"/>
</g>
<path d="M127.18 143.079L138.181 143.174C138.383 143.177 138.578 143.247 138.734 143.375C138.89 143.502 138.998 143.679 139.041 143.876L140.951 152.849C141.033 153.23 140.962 153.628 140.752 153.956C140.542 154.284 140.211 154.516 139.83 154.601C139.727 154.627 139.621 154.64 139.515 154.641C135.569 154.53 132.026 154.286 127.085 154.246C121.253 154.191 122.729 154.909 115.879 154.941C111.744 154.941 111.033 150.261 112.785 150.04C120.811 149.109 121.664 146.694 124.781 143.853C125.458 143.308 126.312 143.033 127.18 143.079Z" fill="#FF725E"/>
<path opacity="0.8" d="M139.83 154.575C140.211 154.49 140.542 154.258 140.752 153.93C140.962 153.602 141.033 153.204 140.951 152.823L140.73 151.805C139.578 151.718 138.236 151.608 136.642 151.45C128.632 150.661 124.426 151.852 118.917 151.931C116.555 152.03 114.202 151.579 112.044 150.613C111.46 151.931 112.572 154.93 115.879 154.914C122.729 154.914 121.253 154.165 127.085 154.22C132.026 154.259 135.553 154.504 139.515 154.614C139.621 154.613 139.727 154.6 139.83 154.575Z" fill="white"/>
<path d="M137.005 147.465C137.005 147.926 136.868 148.376 136.612 148.759C136.356 149.142 135.992 149.44 135.566 149.616C135.14 149.792 134.672 149.838 134.22 149.748C133.768 149.657 133.353 149.435 133.028 149.108C132.703 148.782 132.482 148.366 132.393 147.914C132.304 147.462 132.351 146.994 132.529 146.568C132.706 146.143 133.006 145.78 133.389 145.525C133.773 145.27 134.224 145.135 134.685 145.137C134.99 145.137 135.293 145.197 135.575 145.314C135.857 145.431 136.113 145.603 136.328 145.819C136.544 146.035 136.715 146.292 136.831 146.575C136.947 146.857 137.006 147.159 137.005 147.465Z" fill="white"/>
<path d="M108.918 129.386L110.086 144.861C110.111 145.185 110.045 145.509 109.896 145.798C109.747 146.086 109.52 146.328 109.242 146.495C107.419 147.629 105.539 148.667 103.607 149.604C101.321 150.38 98.9946 151.033 96.6388 151.561C96.2556 151.655 95.915 151.875 95.6717 152.186C95.4284 152.496 95.2965 152.88 95.2972 153.274C95.2972 153.741 95.4826 154.188 95.8126 154.518C96.1427 154.848 96.5903 155.034 97.0571 155.034H119.998C120.46 155.042 120.906 154.869 121.241 154.552C121.576 154.235 121.773 153.798 121.79 153.337L122.476 129.828C122.487 129.368 122.319 128.922 122.006 128.585C121.694 128.247 121.263 128.045 120.803 128.02L110.741 127.492C110.493 127.482 110.246 127.525 110.016 127.618C109.785 127.71 109.577 127.851 109.405 128.03C109.233 128.209 109.101 128.422 109.017 128.656C108.933 128.889 108.899 129.138 108.918 129.386Z" fill="#F2E6A7"/>
<path d="M180.71 234.008L182.675 233.905L179.108 167.069C178.997 164.991 178.093 163.035 176.582 161.603C175.071 160.172 173.069 159.374 170.987 159.375H152.252C150.171 159.374 148.168 160.172 146.658 161.603C145.147 163.035 144.243 164.991 144.132 167.069L140.572 233.905L142.529 234.008L143.319 218.911H179.889L180.71 234.008ZM143.437 216.946L146.097 167.172C146.179 165.596 146.864 164.111 148.009 163.024C149.155 161.938 150.673 161.332 152.252 161.332H170.987C172.567 161.332 174.086 161.937 175.233 163.024C176.38 164.11 177.066 165.595 177.151 167.172L179.802 216.946H143.437Z" fill="#F2E6A7"/>
<path opacity="0.2" d="M180.71 234.008L182.675 233.905L179.108 167.069C178.997 164.991 178.093 163.035 176.582 161.603C175.071 160.172 173.069 159.374 170.987 159.375H152.252C150.171 159.374 148.168 160.172 146.658 161.603C145.147 163.035 144.243 164.991 144.132 167.069L140.572 233.905L142.529 234.008L143.319 218.911H179.889L180.71 234.008ZM143.437 216.946L146.097 167.172C146.179 165.596 146.864 164.111 148.009 163.024C149.155 161.938 150.673 161.332 152.252 161.332H170.987C172.567 161.332 174.086 161.937 175.233 163.024C176.38 164.11 177.066 165.595 177.151 167.172L179.802 216.946H143.437Z" fill="white"/>
<path d="M181.231 235.775L182.351 235.712C182.591 235.697 182.816 235.589 182.977 235.411C183.138 235.232 183.222 234.997 183.212 234.757L182.73 225.673C182.714 225.475 182.624 225.29 182.478 225.156C182.332 225.021 182.14 224.947 181.941 224.947H180.536C180.327 224.947 180.126 225.03 179.978 225.178C179.83 225.326 179.747 225.527 179.747 225.736L180.236 234.891C180.241 235.015 180.271 235.137 180.324 235.249C180.377 235.361 180.453 235.462 180.546 235.544C180.638 235.627 180.747 235.69 180.865 235.729C180.982 235.769 181.107 235.784 181.231 235.775Z" fill="#F2E6A7"/>
<path d="M142.687 224.947H141.283C141.084 224.947 140.892 225.021 140.746 225.156C140.599 225.29 140.509 225.475 140.493 225.673L140.004 234.757C139.993 234.997 140.077 235.232 140.238 235.411C140.399 235.589 140.624 235.697 140.864 235.712L141.985 235.775C142.226 235.786 142.462 235.702 142.642 235.541C142.822 235.38 142.931 235.155 142.948 234.915L143.437 225.76C143.443 225.553 143.369 225.352 143.228 225.2C143.088 225.048 142.894 224.958 142.687 224.947Z" fill="#F2E6A7"/>
<path d="M112.343 157.41H72.1979V166.573H112.343V157.41Z" fill="#FF725E"/>
<path opacity="0.2" d="M112.343 157.41H72.1979V166.573H112.343V157.41Z" fill="white"/>
<path d="M181.791 157.41H112.343V166.573H181.791V157.41Z" fill="#FF725E"/>
<path opacity="0.4" d="M181.791 157.41H112.343V166.573H181.791V157.41Z" fill="white"/>
<path d="M108.177 154.467H68.5914V159.375H108.177V154.467Z" fill="#FF725E"/>
<path opacity="0.5" d="M108.177 154.467H68.5914V159.375H108.177V154.467Z" fill="white"/>
<path d="M185.2 154.467H108.184V159.375H185.2V154.467Z" fill="#FF725E"/>
<path opacity="0.7" d="M185.2 154.467H108.184V159.375H185.2V154.467Z" fill="white"/>
<path d="M111.27 234.008L113.227 233.905L109.66 167.069C109.551 164.992 108.649 163.035 107.139 161.604C105.63 160.172 103.628 159.374 101.548 159.375H82.8045C80.7232 159.374 78.7208 160.172 77.21 161.603C75.6992 163.035 74.795 164.991 74.6839 167.069L71.1247 233.905L73.0819 234.008L73.871 218.911H110.442L111.27 234.008ZM73.9894 216.946L76.6489 167.172C76.7318 165.596 77.4165 164.111 78.5618 163.024C79.7072 161.938 81.2258 161.332 82.8045 161.332H101.548C103.126 161.332 104.645 161.938 105.79 163.024C106.936 164.111 107.62 165.596 107.703 167.172L110.355 216.946H73.9894Z" fill="#F2E6A7"/>
<path opacity="0.2" d="M111.27 234.008L113.227 233.905L109.66 167.069C109.551 164.992 108.649 163.035 107.139 161.604C105.63 160.172 103.628 159.374 101.548 159.375H82.8045C80.7232 159.374 78.7208 160.172 77.21 161.603C75.6992 163.035 74.795 164.991 74.6839 167.069L71.1247 233.905L73.0819 234.008L73.871 218.911H110.442L111.27 234.008ZM73.9894 216.946L76.6489 167.172C76.7318 165.596 77.4165 164.111 78.5618 163.024C79.7072 161.938 81.2258 161.332 82.8045 161.332H101.548C103.126 161.332 104.645 161.938 105.79 163.024C106.936 164.111 107.62 165.596 107.703 167.172L110.355 216.946H73.9894Z" fill="white"/>
<path d="M111.783 235.775L112.904 235.712C113.023 235.706 113.14 235.676 113.248 235.625C113.355 235.573 113.452 235.501 113.532 235.413C113.612 235.324 113.673 235.22 113.713 235.108C113.753 234.995 113.77 234.876 113.764 234.757L113.282 225.673C113.267 225.475 113.176 225.29 113.03 225.156C112.884 225.021 112.692 224.947 112.493 224.947H111.089C110.879 224.947 110.679 225.03 110.531 225.178C110.383 225.326 110.299 225.527 110.299 225.736L110.789 234.891C110.791 235.016 110.82 235.139 110.872 235.252C110.925 235.365 111 235.467 111.093 235.55C111.186 235.633 111.296 235.696 111.415 235.734C111.533 235.773 111.659 235.787 111.783 235.775Z" fill="#F2E6A7"/>
<path d="M73.2476 224.947H71.8349C71.6361 224.947 71.4444 225.021 71.2981 225.156C71.1518 225.29 71.0617 225.475 71.0458 225.673L70.5644 234.757C70.5569 234.876 70.5734 234.996 70.6128 235.109C70.6522 235.222 70.7137 235.326 70.7939 235.415C70.874 235.504 70.971 235.576 71.0793 235.627C71.1876 235.678 71.305 235.707 71.4246 235.712L72.5452 235.775C72.7855 235.786 73.0203 235.701 73.199 235.54C73.3777 235.379 73.4858 235.155 73.5001 234.915L73.9894 225.76C73.9959 225.555 73.9221 225.355 73.7835 225.203C73.645 225.051 73.4527 224.959 73.2476 224.947Z" fill="#F2E6A7"/>
</svg>
