<svg width="331" height="220" viewBox="0 0 331 220" fill="none" xmlns="http://www.w3.org/2000/svg">
<path d="M69.7977 157.331C69.9685 152.983 69.9094 148.629 69.6206 144.288C68.9775 135.334 67.6111 126.447 65.535 117.714C64.3944 112.794 62.9917 107.96 61.5277 103.132C61.4868 102.986 61.2519 103.026 61.2928 103.18C65.8142 120.203 69.5219 137.771 69.2665 155.469C69.195 160.422 68.623 165.288 68.1532 170.207C68.1532 170.34 68.3575 170.391 68.3881 170.255C69.321 166.044 69.624 161.631 69.7977 157.331Z" fill="#EBEBEB"/>
<path d="M61.2928 103.178C61.2928 103.178 54.4425 120.562 55.9781 124.648C57.5136 128.733 60.6731 129.605 60.6731 129.605C60.6731 129.605 56.4819 135.573 59.41 141.201C62.338 146.829 68.8443 146.547 69.2835 152.91C69.2767 152.91 69.641 126.306 61.2928 103.178Z" fill="#EBEBEB"/>
<path d="M68.5311 141.923C68.5427 141.894 68.5427 141.861 68.5311 141.831C67.571 130.01 65.4669 118.227 61.8886 106.862C61.8886 106.828 61.8239 106.838 61.8341 106.862C63.196 111.948 64.3944 117.061 65.4295 122.2C64.5095 121.329 63.3857 120.702 62.161 120.378C62.1564 120.378 62.1521 120.38 62.1489 120.383C62.1457 120.386 62.1439 120.391 62.1439 120.395C62.1439 120.4 62.1457 120.404 62.1489 120.407C62.1521 120.411 62.1564 120.412 62.161 120.412C63.4275 120.96 64.6396 121.594 65.535 122.67C65.7359 123.691 65.9333 124.685 66.1172 125.693C64.5885 123.991 62.464 123.133 60.3292 122.326C60.302 122.326 60.285 122.363 60.3292 122.373C62.5389 123.276 64.7553 124.433 66.2432 126.34C66.7652 129.227 67.2192 132.122 67.605 135.025C66.4977 133.867 65.0786 133.055 63.5194 132.686C63.4718 132.686 63.4445 132.744 63.4956 132.758C65.1037 133.221 66.5421 134.143 67.6357 135.41C67.6432 135.419 67.6525 135.426 67.6629 135.43C67.7991 136.452 67.9285 137.473 68.0476 138.495C67.1925 137.77 66.227 137.188 65.1877 136.768C65.1833 136.77 65.1795 136.773 65.1768 136.777C65.1742 136.781 65.1727 136.786 65.1727 136.791C65.1727 136.795 65.1742 136.8 65.1768 136.804C65.1795 136.808 65.1833 136.811 65.1877 136.813C66.2471 137.272 67.2175 137.914 68.0545 138.709C68.0545 138.709 68.0783 138.709 68.0919 138.726C68.2043 139.7 68.32 140.674 68.4324 141.647C66.8899 139.783 64.8879 138.354 62.624 137.5C62.6155 137.499 62.6068 137.5 62.5993 137.505C62.5917 137.509 62.5859 137.515 62.5827 137.523C62.5795 137.531 62.5791 137.54 62.5817 137.548C62.5843 137.557 62.5896 137.564 62.5968 137.568C64.8322 138.555 66.7967 140.066 68.3234 141.974C68.3389 141.996 68.3612 142.013 68.387 142.022C68.4128 142.03 68.4406 142.03 68.4664 142.022C68.6162 143.518 68.7467 145.016 68.858 146.516C68.858 146.536 68.892 146.54 68.892 146.516C68.7762 144.988 68.6559 143.457 68.5311 141.923Z" fill="white"/>
<path d="M63.0292 118.661C61.8409 117.847 60.3327 117.497 58.9129 117.381C58.8789 117.381 58.8789 117.429 58.9129 117.432C60.3871 117.65 61.6367 118.184 62.9815 118.76C63.0292 118.787 63.0802 118.698 63.0292 118.661Z" fill="white"/>
<path d="M63.8599 137.069C62.9071 136.523 61.8591 136.163 60.7719 136.01C60.7344 136.01 60.731 136.064 60.7719 136.068C61.8381 136.281 62.8694 136.642 63.8361 137.14C63.8441 137.14 63.8518 137.137 63.8581 137.132C63.8645 137.127 63.8692 137.12 63.8718 137.112C63.8743 137.105 63.8746 137.096 63.8724 137.089C63.8703 137.081 63.866 137.074 63.8599 137.069Z" fill="white"/>
<path d="M87.805 124.933C84.9083 126.936 82.2481 129.261 79.8755 131.864C77.4301 134.618 75.5419 137.82 74.3157 141.292C71.716 148.53 70.3187 156.145 70.179 163.834C70.0912 168.095 70.5014 172.351 71.4013 176.517C71.4071 176.548 71.4251 176.575 71.4513 176.593C71.4775 176.611 71.5097 176.618 71.5408 176.612C71.572 176.606 71.5995 176.588 71.6174 176.562C71.6353 176.536 71.642 176.504 71.6362 176.472C70.5186 169.122 70.5611 161.642 71.7621 154.305C72.9402 147.114 74.7855 139.29 79.358 133.444C81.8468 130.261 84.9519 127.758 88.0195 125.171C88.1761 125.041 87.9718 124.817 87.805 124.933Z" fill="#EBEBEB"/>
<path d="M71.2004 158.66C72.8525 155.994 74.7936 153.517 76.9884 151.276C80.4169 147.85 83.3007 145.416 83.7467 143.149C84.1927 140.881 80.3148 139.216 80.3148 139.216C80.3148 139.216 85.0575 140.067 86.3547 138.076C87.6518 136.084 88.2783 124.562 88.2783 124.562C88.2783 124.562 79.6508 130.718 75.6333 139.352C71.6158 147.987 71.2004 158.66 71.2004 158.66Z" fill="#EBEBEB"/>
<path d="M85.2651 127.517C81.6357 131.081 77.9825 134.881 75.8443 139.566C75.1144 141.183 74.4789 142.842 73.9411 144.533C73.8322 144.874 73.7198 145.214 73.6007 145.555C73.5915 145.572 73.5857 145.59 73.5836 145.609C72.5702 149.111 71.7529 152.666 71.1357 156.259C71.1357 156.279 71.1629 156.293 71.1697 156.259C71.5408 154.461 71.9494 152.643 72.409 150.835C72.4259 150.839 72.4432 150.839 72.4601 150.835C73.1799 150.526 73.944 150.332 74.7242 150.26C74.7753 150.26 74.7719 150.165 74.7242 150.168C73.9625 150.203 73.2089 150.34 72.4839 150.577C72.9027 148.942 73.3555 147.315 73.8662 145.711C75.5392 145.302 77.2514 145.073 78.9732 145.03V145C77.2903 144.932 75.6056 145.083 73.9616 145.449C74.0501 145.173 74.142 144.901 74.2339 144.625C75.355 144.359 76.4923 144.167 77.6386 144.05C77.659 144.05 77.659 144.012 77.6386 144.012C76.5167 144.034 75.4 144.17 74.3054 144.417C74.7719 143.028 75.2792 141.66 75.8443 140.332C76.3095 139.24 76.8534 138.182 77.4718 137.169C78.3802 136.944 79.3027 136.78 80.233 136.679C80.2602 136.679 80.2568 136.634 80.233 136.631C79.3644 136.566 78.4912 136.652 77.6522 136.886C78.1051 136.154 78.5817 135.436 79.0924 134.741C81.0263 134.312 82.9874 133.914 84.9689 134.285C85.0029 134.285 85.0131 134.234 84.9689 134.227C83.0861 133.73 81.2237 134.016 79.341 134.387C79.5452 134.115 79.7563 133.846 79.9674 133.58C81.1383 133.22 82.3547 133.028 83.5798 133.012C83.5852 133.012 83.5904 133.01 83.5942 133.006C83.598 133.002 83.6002 132.997 83.6002 132.991C83.6002 132.986 83.598 132.981 83.5942 132.977C83.5904 132.973 83.5852 132.971 83.5798 132.971C82.4485 132.867 81.3078 132.969 80.2125 133.271C81.8093 131.286 83.5764 129.42 85.3196 127.571C85.4149 127.483 85.3502 127.435 85.2651 127.517Z" fill="white"/>
<path d="M85.1595 135.372C84.5959 135.291 84.0252 135.271 83.4572 135.311C83.3891 135.311 83.3925 135.433 83.4572 135.433C84.0258 135.433 84.591 135.409 85.1595 135.433C85.1653 135.431 85.1702 135.426 85.1736 135.421C85.177 135.415 85.1788 135.409 85.1788 135.403C85.1788 135.396 85.177 135.39 85.1736 135.385C85.1702 135.379 85.1653 135.375 85.1595 135.372Z" fill="white"/>
<path d="M78.9596 146.555C78.0488 146.575 77.1487 146.756 76.3006 147.089C76.2802 147.089 76.3006 147.13 76.3006 147.127C77.179 146.916 78.0676 146.83 78.9528 146.684C78.9613 146.685 78.9698 146.683 78.9778 146.68C78.9859 146.678 78.9932 146.673 78.9996 146.668C79.0059 146.662 79.011 146.655 79.0147 146.647C79.0184 146.64 79.0205 146.631 79.0209 146.623C79.0214 146.614 79.0201 146.606 79.0173 146.598C79.0145 146.59 79.0101 146.582 79.0044 146.576C78.9987 146.57 78.9918 146.565 78.9841 146.561C78.9765 146.557 78.9681 146.555 78.9596 146.555Z" fill="white"/>
<path d="M77.1007 142.691C76.7216 142.69 76.3431 142.724 75.9704 142.794C75.9329 142.794 75.9363 142.862 75.9704 142.862C76.3479 142.882 76.7266 142.865 77.1007 142.811C77.1688 142.797 77.1654 142.695 77.1007 142.691Z" fill="white"/>
<path d="M45.8968 137.164C48.7037 138.115 51.3935 139.382 53.9149 140.939C56.5308 142.602 58.7985 144.757 60.5914 147.286C64.3718 152.542 67.2655 158.383 69.1576 164.575C70.2127 168.005 70.8639 171.548 71.0983 175.129C71.0939 175.153 71.0815 175.174 71.0631 175.189C71.0448 175.204 71.0217 175.213 70.9978 175.213C70.974 175.213 70.9508 175.204 70.9325 175.189C70.9141 175.174 70.9017 175.153 70.8974 175.129C70.1033 168.922 68.3409 162.878 65.6746 157.217C63.0598 151.671 59.7539 145.767 54.7047 142.094C51.9538 140.092 48.8623 138.784 45.7811 137.399C45.6211 137.334 45.7368 137.106 45.8968 137.164Z" fill="#EBEBEB"/>
<path d="M67.1454 160.619C65.1938 158.842 63.0531 157.285 60.7616 155.975C57.1969 153.997 54.2928 152.693 53.4143 150.963C52.5359 149.234 55.2801 146.987 55.2801 146.987C55.2801 146.987 51.6405 148.771 50.1322 147.46C48.624 146.149 45.4508 136.967 45.4508 136.967C45.4508 136.967 53.8535 139.956 59.1036 146.016C64.3536 152.077 67.1454 160.619 67.1454 160.619Z" fill="#EBEBEB"/>
<path d="M66.7062 158.728C62.5015 150.836 56.9008 143.699 49.2096 138.98C51.2165 140.278 53.0983 141.76 54.8307 143.407C53.2671 143.321 51.7086 143.65 50.3127 144.36C50.3084 144.364 50.3053 144.369 50.304 144.374C50.3028 144.38 50.3033 144.386 50.3056 144.391C50.3078 144.396 50.3117 144.401 50.3167 144.404C50.3216 144.407 50.3274 144.408 50.3331 144.408C51.8188 143.85 53.3976 143.583 54.9839 143.621C55.0029 143.621 55.021 143.613 55.035 143.601C55.3108 143.859 55.5797 144.122 55.8453 144.387C55.033 144.425 54.2255 144.532 53.4314 144.707C53.4269 144.707 53.4225 144.709 53.4194 144.712C53.4162 144.715 53.4144 144.72 53.4144 144.724C53.4144 144.729 53.4162 144.733 53.4194 144.736C53.4225 144.739 53.4269 144.741 53.4314 144.741C54.272 144.584 55.1265 144.513 55.9815 144.53C57.3922 145.951 58.7221 147.451 59.965 149.021C59.3953 148.94 58.8148 148.982 58.2626 149.143C58.2558 149.146 58.2499 149.15 58.2457 149.156C58.2415 149.162 58.2392 149.169 58.2392 149.176C58.2392 149.183 58.2415 149.19 58.2457 149.196C58.2499 149.202 58.2558 149.206 58.2626 149.208C58.8606 149.139 59.4641 149.131 60.0637 149.184C60.2952 149.477 60.5267 149.766 60.7446 150.063C59.0268 149.959 57.3033 150.127 55.6376 150.56C55.6138 150.56 55.6206 150.604 55.6376 150.601C57.3624 150.263 59.1234 150.149 60.8774 150.26C61.0919 150.543 61.2962 150.836 61.5039 151.125C60.4806 151.095 59.4582 151.21 58.4669 151.465C58.4623 151.464 58.4574 151.463 58.4525 151.464C58.4477 151.465 58.4431 151.467 58.4391 151.469C58.4351 151.472 58.4318 151.476 58.4296 151.48C58.4274 151.485 58.4262 151.489 58.4262 151.494C58.4262 151.499 58.4274 151.504 58.4296 151.508C58.4318 151.513 58.4351 151.516 58.4391 151.519C58.4431 151.522 58.4477 151.524 58.4525 151.525C58.4574 151.525 58.4623 151.525 58.4669 151.523C59.4985 151.3 60.5558 151.218 61.6094 151.282C62.5151 152.524 63.3799 153.798 64.214 155.088C63.769 155.008 63.3112 155.036 62.8794 155.17C62.8749 155.17 62.8705 155.172 62.8673 155.175C62.8641 155.178 62.8623 155.182 62.8623 155.187C62.8623 155.191 62.8641 155.196 62.8673 155.199C62.8705 155.202 62.8749 155.204 62.8794 155.204C63.3615 155.167 63.8464 155.19 64.323 155.272C65.072 156.439 65.7938 157.614 66.4883 158.799C66.6007 158.905 66.7743 158.83 66.7062 158.728Z" fill="white"/>
<path d="M60.1692 152.178C59.3428 152.124 58.5135 152.226 57.7247 152.478C57.7042 152.478 57.7247 152.519 57.7247 152.515C58.5287 152.38 59.3407 152.297 60.1556 152.267C60.2135 152.257 60.2237 152.185 60.1692 152.178Z" fill="white"/>
<path d="M52.8356 142.565C52.4597 142.536 52.0817 142.559 51.712 142.633C51.7052 142.635 51.6993 142.639 51.6951 142.645C51.6909 142.651 51.6886 142.658 51.6886 142.665C51.6886 142.672 51.6909 142.679 51.6951 142.685C51.6993 142.691 51.7052 142.695 51.712 142.697C52.0831 142.66 52.4474 142.674 52.8185 142.66C52.8312 142.662 52.8442 142.659 52.8547 142.652C52.8653 142.645 52.8725 142.633 52.8747 142.621C52.877 142.608 52.8741 142.595 52.8668 142.585C52.8594 142.574 52.8482 142.567 52.8356 142.565Z" fill="white"/>
<path d="M77.9859 186.709H59.0117L61.7184 166.894L62.4095 161.814H74.5881L75.2792 166.894L77.9859 186.709Z" fill="#DBDBDB"/>
<path d="M75.2791 166.894H61.7183L62.4095 161.814H74.588L75.2791 166.894Z" fill="#C7C7C7"/>
<path d="M76.3278 160.051H60.6663V164.354H76.3278V160.051Z" fill="#DBDBDB"/>
<path d="M169.63 138.95C170.678 138.442 171.789 138.076 172.934 137.86L173.878 134.777L179.204 135.171L179.679 138.365C180.782 138.745 181.829 139.271 182.792 139.929L185.643 138.417L189.12 142.474L187.202 145.07C187.711 146.12 188.077 147.232 188.291 148.379L191.375 149.324L190.98 154.644L187.787 155.125C187.407 156.226 186.881 157.27 186.222 158.231L187.735 161.083L183.678 164.56L181.082 162.642C180.034 163.149 178.923 163.516 177.779 163.731L176.834 166.814L171.508 166.42L171.027 163.227C169.926 162.846 168.882 162.32 167.921 161.662L165.069 163.175L161.592 159.118L163.51 156.527C163.003 155.477 162.637 154.364 162.421 153.218L159.355 152.279L159.749 146.953L162.942 146.478C163.323 145.376 163.849 144.329 164.507 143.366L162.995 140.521L167.051 137.043L169.648 138.962L169.63 138.95ZM171.809 146.293C170.954 147.034 170.337 148.013 170.037 149.105C169.738 150.197 169.769 151.353 170.126 152.428C170.484 153.502 171.152 154.446 172.046 155.141C172.94 155.836 174.02 156.25 175.149 156.331C176.279 156.412 177.407 156.156 178.391 155.596C179.375 155.036 180.171 154.197 180.678 153.185C181.186 152.172 181.381 151.032 181.241 149.909C181.1 148.785 180.629 147.728 179.888 146.872C179.396 146.304 178.796 145.838 178.124 145.501C177.451 145.164 176.719 144.963 175.969 144.909C175.219 144.855 174.465 144.949 173.751 145.187C173.038 145.424 172.378 145.8 171.809 146.293Z" fill="#EBEBEB"/>
<path d="M297.923 84.8283C298.809 84.4007 299.748 84.0928 300.716 83.9126L301.516 81.3047L306.007 81.6408L306.413 84.3357C307.342 84.6585 308.225 85.1028 309.038 85.657L311.443 84.382L314.381 87.7955L312.764 89.9862C313.193 90.8703 313.501 91.8078 313.68 92.7737L316.288 93.5735L315.952 98.0707L313.257 98.4706C312.935 99.4006 312.491 100.284 311.936 101.096L313.211 103.501L309.797 106.457L307.607 104.834C306.723 105.264 305.785 105.574 304.819 105.755L304.019 108.357L299.522 108.021L299.122 105.327C298.192 105.005 297.309 104.561 296.497 104.005L294.092 105.298L291.148 101.878L292.77 99.6934C292.341 98.8072 292.031 97.8678 291.849 96.9L289.247 96.1003L289.583 91.6089L292.278 91.2032C292.598 90.2726 293.043 89.3896 293.599 88.5779L292.318 86.1728L295.732 83.2345L297.923 84.8515V84.8283ZM299.765 91.0293C299.042 91.6533 298.519 92.4779 298.264 93.3988C298.008 94.3197 298.032 95.2956 298.331 96.2033C298.63 97.1109 299.192 97.9094 299.945 98.498C300.698 99.0866 301.608 99.4387 302.561 99.51C303.514 99.5812 304.467 99.3684 305.299 98.8983C306.131 98.4282 306.805 97.7221 307.236 96.869C307.667 96.016 307.835 95.0544 307.719 94.1058C307.604 93.1571 307.21 92.264 306.587 91.5393C305.748 90.5691 304.56 89.9706 303.281 89.875C302.003 89.7794 300.739 90.1945 299.765 91.0293Z" fill="#EBEBEB"/>
<path d="M201.018 157.63C201.691 157.3 202.407 157.064 203.145 156.929L203.753 154.941L207.179 155.196L207.486 157.248C208.196 157.494 208.87 157.833 209.491 158.256L211.322 157.283L213.565 159.891L212.331 161.56C212.66 162.234 212.896 162.949 213.032 163.687L215.02 164.295L214.765 167.72L212.707 168.027C212.462 168.736 212.123 169.408 211.699 170.027L212.673 171.864L210.07 174.107L208.401 172.872C207.726 173.198 207.011 173.434 206.274 173.574L205.695 175.556L202.264 175.301L201.957 173.249C201.249 173.002 200.577 172.663 199.957 172.241L198.126 173.214L195.866 170.612L197.1 168.943C196.772 168.267 196.536 167.55 196.399 166.81L194.411 166.231L194.666 162.8L196.724 162.493C196.969 161.784 197.308 161.112 197.732 160.493L196.747 158.616L199.349 156.373L201.018 157.613V157.63ZM202.421 162.354C201.871 162.831 201.474 163.46 201.281 164.162C201.089 164.864 201.108 165.607 201.337 166.298C201.566 166.989 201.995 167.596 202.568 168.044C203.142 168.492 203.836 168.76 204.562 168.814C205.288 168.868 206.014 168.706 206.647 168.348C207.281 167.99 207.795 167.453 208.124 166.803C208.453 166.154 208.582 165.421 208.495 164.699C208.408 163.976 208.11 163.295 207.636 162.742C207.32 162.373 206.934 162.069 206.501 161.85C206.067 161.63 205.594 161.498 205.109 161.462C204.624 161.426 204.137 161.486 203.676 161.639C203.214 161.792 202.788 162.035 202.421 162.354Z" fill="#EBEBEB"/>
<path d="M73.1373 78.1862C74.1854 77.6784 75.2962 77.312 76.4407 77.0967L77.3911 74.002L82.7113 74.396L83.1923 77.5893C84.293 77.9697 85.3378 78.496 86.2986 79.154L89.1499 77.6414L92.6272 81.6982L90.7089 84.2945C91.2176 85.3442 91.584 86.4571 91.7984 87.6037L94.8816 88.5483L94.4875 93.8685L91.2942 94.3495C90.9138 95.4502 90.3876 96.495 89.7295 97.4558L91.2421 100.307L87.1853 103.784L84.5948 101.872C83.5467 102.38 82.4359 102.746 81.2914 102.961L80.3468 106.05L75.0208 105.65L74.5456 102.457C73.443 102.077 72.3963 101.551 71.4335 100.892L68.5995 102.399L65.1223 98.3425L67.0406 95.752C66.5336 94.7016 66.1672 93.589 65.9511 92.4428L62.8679 91.4982L63.262 86.1722L66.4553 85.697C66.8356 84.5944 67.3618 83.5478 68.02 82.5849L66.5074 79.7394L70.5642 76.2621L73.1605 78.1804L73.1373 78.1862ZM75.3222 85.529C74.4644 86.2707 73.846 87.2502 73.5451 88.3436C73.2443 89.4369 73.2745 90.5949 73.6319 91.6711C73.9894 92.7473 74.6581 93.6932 75.5533 94.3892C76.4486 95.0853 77.5302 95.5001 78.6612 95.5812C79.7923 95.6624 80.922 95.4062 81.9075 94.8451C82.8929 94.2839 83.6897 93.4431 84.1971 92.429C84.7046 91.4149 84.8997 90.273 84.758 89.1479C84.6163 88.0228 84.144 86.9651 83.4009 86.1085C82.9086 85.5398 82.3091 85.0737 81.6366 84.7368C80.9641 84.3999 80.2319 84.1988 79.4816 84.145C78.7314 84.0912 77.9779 84.1857 77.2642 84.4232C76.5505 84.6606 75.8906 85.0364 75.3222 85.529Z" fill="#EBEBEB"/>
<path d="M19.9554 180.66C19.9554 180.66 7.6228 166.461 2.96911 152.262C-1.68457 138.064 0.523465 139.698 0.523465 139.698C0.523465 139.698 6.82304 153.491 11.581 160.15C16.339 166.809 24.8409 176.585 24.8409 176.585L19.9554 180.66Z" fill="#455A64"/>
<path d="M22.4126 141.911C22.3308 141.764 22.1997 141.65 22.0423 141.589C21.8849 141.528 21.7112 141.525 21.5516 141.58C21.392 141.634 21.2567 141.743 21.1693 141.888C21.082 142.032 21.0482 142.202 21.0739 142.369C21.8273 147.359 23.4558 159.06 23.392 166.646C23.3051 176.498 23.392 180.317 23.392 180.317H28.5267C28.5267 180.317 27.6168 159.935 26.452 153.722C25.6406 149.364 23.9136 144.531 22.4126 141.911Z" fill="#455A64"/>
<path d="M25.2118 178.66C27.3616 173.786 28.7813 168.62 29.425 163.332C29.8481 159.704 29.0947 154.801 27.9704 148.264C27.5397 145.869 27.3225 143.441 27.3213 141.008C27.3129 140.729 27.4001 140.456 27.5685 140.233C27.7368 140.01 27.9763 139.852 28.247 139.785C28.5177 139.717 28.8034 139.744 29.0567 139.861C29.31 139.978 29.5157 140.178 29.6395 140.428C30.2596 141.529 32.0503 145.308 32.5371 147.678C33.7774 154.14 35.1856 157.368 34.1135 163.5C33.0413 169.631 29.0599 179.072 29.0599 179.072L25.2118 178.66Z" fill="#455A64"/>
<path d="M29.8364 179.071C29.8364 179.071 43.3744 149.972 44.3249 145.655C45.2753 141.337 48.457 131.392 48.8337 131.955C49.2104 132.517 49.7725 137.75 47.3327 143.777C44.8928 149.804 34.4727 179.958 34.4727 179.958H29.8364" fill="#455A64"/>
<path d="M23.7281 177.772C23.598 177.692 23.4722 177.605 23.3514 177.512C23.108 177.326 22.7719 177.071 22.3024 176.706C21.035 175.699 19.8203 174.627 18.6629 173.495C14.8395 169.743 11.527 165.503 8.81081 160.885C6.10781 156.274 3.86204 151.409 2.10556 146.361C1.42171 144.426 0.946485 142.844 0.604557 141.725C0.436492 141.175 0.326382 140.746 0.245247 140.456C0.193778 140.31 0.15879 140.158 0.14093 140.004C0.201851 140.145 0.254104 140.291 0.297403 140.439C0.40172 140.752 0.540809 141.169 0.708874 141.69C1.06819 142.78 1.58977 144.35 2.29681 146.269C4.1072 151.28 6.37098 156.116 9.06001 160.717C11.7599 165.31 15.025 169.546 18.7789 173.327C20.2277 174.765 21.4679 175.866 22.343 176.596C22.7777 176.973 23.1254 177.245 23.3572 177.442C23.4932 177.537 23.6176 177.648 23.7281 177.772Z" fill="#263238"/>
<path d="M25.2117 163.812C25.1438 163.531 25.103 163.244 25.09 162.954C25.0263 162.375 24.9393 161.569 24.8408 160.636C24.6264 158.666 24.2613 155.954 23.815 152.969C23.3688 149.984 22.8008 147.301 22.3836 145.365C22.1865 144.438 22.0185 143.667 21.891 143.047C21.8131 142.771 21.7626 142.487 21.7403 142.201C21.8493 142.468 21.9365 142.743 22.0011 143.024C22.1518 143.557 22.3546 144.334 22.5806 145.296C23.0443 147.226 23.6122 149.932 24.0932 152.899C24.5742 155.867 24.8756 158.614 25.0379 160.59C25.119 161.581 25.1712 162.381 25.1943 162.937C25.226 163.228 25.2318 163.52 25.2117 163.812Z" fill="#263238"/>
<path d="M28.3819 140.197C28.4465 140.316 28.5008 140.44 28.5441 140.568C28.6427 140.841 28.7817 141.2 28.9498 141.652C29.1179 142.104 29.3323 142.695 29.5293 143.391C29.7264 144.086 29.993 144.839 30.19 145.709L30.5204 147.076C30.6363 147.552 30.7174 148.056 30.8217 148.572C31.0419 149.603 31.181 150.727 31.3433 151.904C31.6361 154.462 31.7445 157.038 31.6678 159.612C31.5598 162.187 31.2673 164.751 30.7927 167.285C30.5435 168.444 30.3291 169.551 30.0335 170.571C29.8945 171.075 29.7785 171.573 29.6279 172.043L29.1932 173.416C28.9382 174.274 28.6137 175.027 28.3703 175.694C28.1269 176.36 27.8835 176.923 27.669 177.38C27.4546 177.838 27.3097 178.163 27.188 178.429C27.1327 178.552 27.0708 178.672 27.0026 178.789C27.031 178.656 27.0757 178.528 27.1359 178.406C27.2402 178.134 27.3851 177.78 27.5647 177.334C27.7444 176.888 27.9936 176.308 28.2196 175.636C28.4456 174.964 28.7586 174.216 29.002 173.353C29.1353 172.924 29.2686 172.477 29.4134 172.014C29.5583 171.55 29.6684 171.052 29.8017 170.542C30.0857 169.528 30.2885 168.427 30.5319 167.267C31.4776 162.223 31.6612 157.066 31.0767 151.968C30.9202 150.809 30.7927 149.678 30.5841 148.653C30.4856 148.137 30.4102 147.633 30.3059 147.158C30.2016 146.682 30.0915 146.224 29.9872 145.79C29.8075 144.915 29.5583 144.144 29.3729 143.472C29.1874 142.799 29.002 142.202 28.8397 141.733C28.6774 141.264 28.5789 140.916 28.4862 140.638C28.44 140.494 28.4051 140.347 28.3819 140.197Z" fill="#263238"/>
<path d="M48.6656 132.54C48.672 132.582 48.672 132.625 48.6656 132.667L48.6077 133.044C48.5439 133.374 48.4686 133.867 48.3411 134.493C48.0745 135.744 47.6398 137.547 46.9618 139.708C46.2837 141.87 45.3623 144.461 44.2669 147.277C43.1716 150.094 41.9082 153.159 40.7028 156.428C39.4974 159.697 38.5411 162.873 37.6602 165.764C36.7793 168.656 35.9506 171.253 35.1508 173.391C34.5327 175.09 33.8188 176.752 33.0123 178.369C32.7342 178.949 32.485 179.378 32.3227 179.673L32.1372 180.004C32.117 180.044 32.0917 180.081 32.0619 180.114C32.0619 180.114 32.0619 180.067 32.1082 179.992C32.1546 179.917 32.2068 179.783 32.2705 179.644C32.4154 179.343 32.6472 178.903 32.908 178.323C33.4528 177.164 34.1888 175.472 34.9596 173.322C35.7304 171.172 36.5417 168.581 37.4052 165.689C38.2687 162.797 39.2076 159.598 40.4304 156.33C41.6532 153.061 42.9166 149.989 44.0177 147.179C45.1189 144.368 46.0693 141.818 46.7705 139.645C47.4718 137.471 47.9296 135.681 48.231 134.429C48.3759 133.809 48.4686 133.322 48.5497 132.992L48.6367 132.621C48.6482 132.58 48.6598 132.534 48.6656 132.54Z" fill="#263238"/>
<path d="M6.90995 126.108C6.72503 125.922 6.48244 125.804 6.22185 125.773C5.96126 125.743 5.69809 125.802 5.47535 125.941C5.25261 126.079 5.08349 126.289 4.99564 126.537C4.90778 126.784 4.90638 127.053 4.99168 127.302C5.45487 128.802 6.02226 130.268 6.68972 131.689C8.55584 135.641 14.0209 149.834 16.5824 157.635C19.144 165.435 22.7487 179.97 22.7487 179.97L28.2138 179.083C28.2138 179.083 23.2123 155.189 18.3268 146.577C14.4034 139.651 10.4741 129.654 6.90995 126.108Z" fill="#455A64"/>
<path d="M18.0776 162.496C18.1928 162.705 18.2879 162.924 18.3616 163.151C18.5239 163.58 18.7441 164.206 18.9875 164.988C19.4917 166.547 20.1118 168.72 20.7261 171.143C21.3404 173.565 21.8852 175.779 22.2155 177.361C22.3836 178.115 22.5169 178.752 22.627 179.256C22.6891 179.486 22.7279 179.721 22.7429 179.958C22.6458 179.74 22.572 179.513 22.5227 179.279L22.0185 177.408L20.4422 171.212C19.822 168.796 19.2425 166.617 18.7905 165.046C18.5702 164.304 18.3906 163.678 18.2457 163.186C18.1682 162.962 18.112 162.731 18.0776 162.496Z" fill="#263238"/>
<path d="M25.4957 179.517C25.4774 179.468 25.4658 179.417 25.4609 179.366C25.4609 179.256 25.4262 179.111 25.403 178.937C25.345 178.56 25.2929 177.998 25.177 177.285C24.9741 175.848 24.5974 173.779 24.0179 171.252C23.3214 168.298 22.4682 165.383 21.4621 162.519C20.3378 159.285 18.9354 155.785 17.3416 152.162C14.1252 144.93 10.9146 138.514 8.79925 133.768C7.7329 131.403 6.90995 129.468 6.36519 128.123C6.08701 127.451 5.88997 126.924 5.75088 126.57C5.68713 126.402 5.63497 126.269 5.6002 126.159C5.57892 126.114 5.56334 126.068 5.55383 126.02C5.55383 126.02 5.55383 126.06 5.62338 126.147L5.80303 126.547L6.4695 128.077C7.04904 129.41 7.89517 131.328 8.9847 133.681C11.1464 138.404 14.386 144.802 17.6024 152.047C19.2019 155.674 20.6044 159.181 21.7113 162.432C22.7043 165.309 23.5381 168.238 24.2091 171.206C24.6641 173.207 25.0161 175.231 25.2639 177.268C25.3624 177.987 25.3972 178.555 25.4378 178.931V179.366C25.4625 179.414 25.4819 179.464 25.4957 179.517Z" fill="#263238"/>
<path d="M28.2138 179.073C28.1308 178.772 28.0688 178.466 28.0283 178.157C27.924 177.514 27.7791 176.667 27.6053 175.642C27.2286 173.526 26.6548 170.605 25.8261 167.435C24.9974 164.265 24.0875 161.426 23.3747 159.397C23.0269 158.418 22.7372 157.612 22.5227 156.998C22.401 156.709 22.3021 156.41 22.2272 156.105C22.3864 156.377 22.5203 156.662 22.6271 156.957C22.8589 157.508 23.2066 158.319 23.5659 159.328C24.5547 161.958 25.402 164.639 26.1043 167.36C26.933 170.548 27.4778 173.48 27.8081 175.607C27.9646 176.673 28.0805 177.537 28.1442 178.139C28.1949 178.448 28.2182 178.76 28.2138 179.073Z" fill="#263238"/>
<path d="M39.4279 178.289H18.0951V204.281H39.4279V178.289Z" fill="#FF725E"/>
<g opacity="0.3">
<path opacity="0.3" d="M39.4278 178.287H18.095V204.279H39.4278V178.287Z" fill="black"/>
</g>
<path d="M32.624 178.289H13.6964V204.281H32.624V178.289Z" fill="#FF725E"/>
<path d="M209.392 105.517C209.393 102.705 210.458 99.9972 212.374 97.9391C214.29 95.881 216.915 94.6252 219.72 94.4244V42.0226C216.81 41.9563 214.042 40.7539 212.008 38.6728C209.974 36.5916 208.835 33.797 208.835 30.8868C208.835 27.9767 209.974 25.1821 212.008 23.1009C214.042 21.0198 216.81 19.8174 219.72 19.751V12.3561C219.722 11.3196 219.52 10.2928 219.125 9.33459C218.73 8.37633 218.149 7.5054 217.417 6.77168C216.685 6.03795 215.816 5.45583 214.858 5.05865C213.901 4.66147 212.875 4.45703 211.838 4.45703H86.2233C85.1863 4.45627 84.1593 4.66015 83.2013 5.05699C82.2432 5.45382 81.3729 6.03582 80.6402 6.76962C79.9074 7.50343 79.3267 8.37461 78.9313 9.33325C78.5359 10.2919 78.3335 11.3191 78.3358 12.3561V19.751C81.2452 19.8174 84.0131 21.0198 86.0473 23.1009C88.0815 25.1821 89.2204 27.9767 89.2204 30.8868C89.2204 33.797 88.0815 36.5916 86.0473 38.6728C84.0131 40.7539 81.2452 41.9563 78.3358 42.0226V137.971C78.335 139.007 78.5385 140.033 78.9345 140.991C79.3306 141.949 79.9114 142.819 80.6439 143.552C81.3764 144.285 82.2462 144.866 83.2035 145.263C84.1609 145.66 85.187 145.864 86.2233 145.864H115.733V130.391C115.716 129.034 116.213 127.721 117.123 126.715C118.034 125.709 119.29 125.084 120.642 124.966C121.36 124.918 122.08 125.019 122.758 125.261C123.435 125.503 124.056 125.881 124.581 126.373C125.107 126.865 125.526 127.459 125.812 128.119C126.098 128.779 126.246 129.491 126.246 130.211V145.858H211.838C212.874 145.858 213.899 145.654 214.856 145.258C215.812 144.861 216.681 144.28 217.413 143.548C218.145 142.815 218.726 141.946 219.121 140.989C219.517 140.032 219.72 139.006 219.72 137.971V116.609C216.915 116.408 214.29 115.153 212.374 113.094C210.458 111.036 209.393 108.329 209.392 105.517Z" fill="#FF725E"/>
<path d="M207.694 138.631C211.442 138.631 214.481 135.593 214.481 131.845C214.481 128.097 211.442 125.059 207.694 125.059C203.946 125.059 200.908 128.097 200.908 131.845C200.908 135.593 203.946 138.631 207.694 138.631Z" fill="white"/>
<path d="M207.775 135.211C209.635 135.211 211.143 133.703 211.143 131.844C211.143 129.984 209.635 128.477 207.775 128.477C205.916 128.477 204.408 129.984 204.408 131.844C204.408 133.703 205.916 135.211 207.775 135.211Z" fill="#FF725E"/>
<g opacity="0.3">
<path opacity="0.3" d="M193.148 36.8001V35.9192H192.012V33.2765H190.169V32.1406H189.288V33.2765H187.822V32.1406H186.941V33.2765H185.469V32.1406H184.588V33.2765H183.122V32.1406H182.241V33.2765H180.769V32.1406H179.888V33.2765H178.422V32.1406H177.541V33.2765H176.04V32.1406H175.159V33.2765H173.687V32.1406H172.806V33.2765H171.34V32.1406H170.459V33.2765H168.987V32.1406H168.106V33.2765H166.64V32.1406H165.759V33.2765H164.287V32.1406H163.406V33.2765H161.476V35.9192H160.259V36.8001H161.476V38.2663H160.259V39.1472H161.476V40.6193H160.259V41.5002H161.476V42.9664H160.259V43.8473H161.476V45.3193H160.259V46.2002H161.476V47.6664H160.259V48.5473H161.476V50.0483H160.259V50.9292H161.476V52.3955H160.259V53.2822H161.476V54.7484H160.259V55.6293H161.476V57.1013H160.259V57.9822H161.476V59.4484H160.259V60.3293H161.476V61.7956H160.259V62.6823H161.476V63.8181H163.406V65.0294H164.287V63.8181H165.759V65.0294H166.64V63.8181H168.106V65.0294H168.987V63.8181H170.459V65.0294H171.34V63.8181H172.806V65.0294H173.687V63.8181H175.159V65.0294H176.04V63.8181H177.541V65.0294H178.422V63.8181H179.888V65.0294H180.769V63.8181H182.241V65.0294H183.122V63.8181H184.588V65.0294H185.469V63.8181H186.941V65.0294H187.822V63.8181H189.288V65.0294H190.169V63.8181H192.012V62.6823H193.148V61.7956H192.012V60.3293H193.148V59.4484H192.012V57.9822H193.148V57.1013H192.012V55.6293H193.148V54.7484H192.012V53.2822H193.148V52.3955H192.012V50.9292H193.148V50.0483H192.012V48.5473H193.148V47.6664H192.012V46.2002H193.148V45.3193H192.012V43.8473H193.148V42.9664H192.012V41.5002H193.148V40.6193H192.012V39.1472H193.148V38.2663H192.012V36.8001H193.148Z" fill="black"/>
</g>
<path d="M101.425 117.826H92.1519V145.858H101.425V117.826Z" fill="#EBEBEB"/>
<path d="M144.258 117.826H134.985V145.858H144.258V117.826Z" fill="#EBEBEB"/>
<path d="M160.595 117.826H151.323V145.858H160.595V117.826Z" fill="#EBEBEB"/>
<path d="M176.932 117.826H167.66V145.858H176.932V117.826Z" fill="#EBEBEB"/>
<path d="M193.275 117.826H184.003V145.858H193.275V117.826Z" fill="#EBEBEB"/>
<path d="M95.5248 120.827H94.9453V109.277C94.9455 109.217 94.9339 109.157 94.911 109.101C94.8881 109.046 94.8545 108.995 94.812 108.952L86.9999 101.14C86.8076 100.946 86.6993 100.684 86.6985 100.41V48.3328C86.6978 48.0573 86.8061 47.7927 86.9999 47.5968L91.7289 42.8678C91.8255 42.7714 91.9403 42.6951 92.0667 42.6433C92.193 42.5916 92.3284 42.5655 92.4649 42.5664H104.056V43.146H92.4649C92.4023 43.145 92.3402 43.1568 92.2824 43.1807C92.2246 43.2046 92.1723 43.2401 92.1288 43.2851L87.3997 48.0141C87.3567 48.0564 87.3228 48.1069 87.2999 48.1627C87.2769 48.2185 87.2656 48.2783 87.2664 48.3386V100.416C87.2662 100.476 87.2779 100.536 87.3008 100.591C87.3236 100.647 87.3573 100.698 87.3997 100.74L95.2235 108.541C95.4161 108.738 95.5243 109.002 95.5248 109.277V120.827Z" fill="white"/>
<path d="M99.1585 120.145H98.579V107.749C98.5797 107.689 98.5683 107.63 98.5454 107.575C98.5224 107.521 98.4885 107.471 98.4457 107.43L91.016 100C90.9182 99.9021 90.8411 99.7854 90.7893 99.657C90.7375 99.5285 90.7121 99.391 90.7146 99.2525L91.2942 50.7684C91.2962 50.6316 91.3255 50.4966 91.3802 50.3713C91.4349 50.2459 91.514 50.1327 91.6129 50.0382L94.7424 47.013C94.9288 46.8306 95.1771 46.725 95.4379 46.7174L107.846 46.4219V47.0014L95.4379 47.297C95.3225 47.3016 95.2129 47.3491 95.1307 47.4303L92.0012 50.4555C91.9574 50.4975 91.9226 50.5478 91.8987 50.6036C91.8748 50.6593 91.8624 50.7193 91.8621 50.78L91.2826 99.2583C91.2809 99.3196 91.2919 99.3805 91.3149 99.4373C91.3378 99.4942 91.3722 99.5457 91.4159 99.5886L98.8572 107.036C98.9532 107.131 99.0292 107.245 99.0809 107.371C99.1327 107.496 99.159 107.63 99.1585 107.766V120.145Z" fill="white"/>
<path d="M104.879 65.1345H99.6627C99.3553 65.1345 99.0605 65.0124 98.8431 64.795C98.6258 64.5776 98.5037 64.2828 98.5037 63.9754V60.2548C98.5037 59.9474 98.6258 59.6526 98.8431 59.4352C99.0605 59.2178 99.3553 59.0957 99.6627 59.0957H104.879V59.6752H99.6627C99.509 59.6752 99.3616 59.7363 99.2529 59.845C99.1443 59.9537 99.0832 60.1011 99.0832 60.2548V63.9754C99.0832 64.1291 99.1443 64.2765 99.2529 64.3852C99.3616 64.4939 99.509 64.5549 99.6627 64.5549H104.879V65.1345Z" fill="white"/>
<path d="M138.034 117.826H137.454V112.871C137.454 112.75 137.406 112.633 137.32 112.548C137.234 112.462 137.118 112.413 136.997 112.413H113.572C113.436 112.414 113.302 112.388 113.176 112.336C113.051 112.284 112.937 112.208 112.841 112.112L96.0348 95.3055C95.9384 95.2089 95.8621 95.094 95.8104 94.9677C95.7587 94.8414 95.7325 94.706 95.7335 94.5695V54.5003C95.7335 54.2261 95.842 53.9632 96.0353 53.7688C96.2286 53.5744 96.4909 53.4644 96.7651 53.4629H102.271V54.0424H96.7651C96.6436 54.0424 96.5272 54.0907 96.4413 54.1765C96.3555 54.2624 96.3072 54.3788 96.3072 54.5003V94.5753C96.3064 94.6356 96.3177 94.6954 96.3406 94.7512C96.3635 94.807 96.3975 94.8575 96.4405 94.8998L113.247 111.706C113.29 111.749 113.34 111.783 113.396 111.805C113.452 111.828 113.511 111.84 113.572 111.84H136.997C137.272 111.84 137.536 111.949 137.73 112.144C137.925 112.338 138.034 112.602 138.034 112.877V117.826Z" fill="white"/>
<path d="M141.685 117.825H141.105V108.036C141.105 107.915 141.057 107.798 140.971 107.712C140.885 107.627 140.769 107.578 140.648 107.578H117.628C117.353 107.578 117.089 107.469 116.895 107.274C116.7 107.08 116.591 106.816 116.591 106.541V57.344C116.591 57.2226 116.543 57.1061 116.457 57.0203C116.371 56.9344 116.255 56.8862 116.133 56.8862H112.187V56.3066H116.133C116.408 56.3066 116.672 56.4159 116.867 56.6105C117.061 56.805 117.171 57.0689 117.171 57.344V106.541C117.171 106.662 117.219 106.779 117.305 106.865C117.391 106.951 117.507 106.999 117.628 106.999H140.642C140.917 106.999 141.181 107.108 141.375 107.303C141.57 107.497 141.679 107.761 141.679 108.036L141.685 117.825Z" fill="white"/>
<path d="M102.282 38.9107H94.7483C94.5085 38.9107 94.2785 38.8155 94.109 38.6459C93.9394 38.4764 93.8442 38.2464 93.8442 38.0066V15.6365C93.8442 15.3967 93.9394 15.1668 94.109 14.9972C94.2785 14.8277 94.5085 14.7324 94.7483 14.7324H127.481V15.312H94.7309C94.6448 15.312 94.5622 15.3462 94.5014 15.407C94.4405 15.4679 94.4063 15.5504 94.4063 15.6365V38.0066C94.4063 38.0927 94.4405 38.1753 94.5014 38.2361C94.5622 38.297 94.6448 38.3312 94.7309 38.3312H102.265L102.282 38.9107Z" fill="white"/>
<path d="M188.911 117.826H188.332V111.451C188.333 111.115 188.429 110.785 188.609 110.501C188.79 110.217 189.047 109.99 189.352 109.846L200.734 104.543C200.94 104.447 201.114 104.293 201.236 104.102C201.358 103.91 201.423 103.687 201.424 103.46V26.6535C201.422 26.488 201.387 26.3245 201.32 26.173C201.254 26.0216 201.157 25.8853 201.035 25.7726L189.984 15.6307C189.762 15.4274 189.473 15.3138 189.172 15.312H140.23V14.7324H189.166C189.611 14.733 190.039 14.9005 190.366 15.2018L201.418 25.3495C201.6 25.5149 201.745 25.7162 201.845 25.9407C201.944 26.1651 201.996 26.4079 201.997 26.6535V103.471C201.997 103.809 201.9 104.14 201.718 104.425C201.537 104.711 201.278 104.938 200.972 105.082L189.595 110.385C189.387 110.477 189.211 110.629 189.088 110.82C188.966 111.012 188.902 111.235 188.906 111.463L188.911 117.826Z" fill="white"/>
<path d="M119.489 40.7359H113.264V40.1563H119.489C119.575 40.1563 119.657 40.1221 119.718 40.0613C119.779 40.0004 119.813 39.9179 119.813 39.8318V19.49C119.813 19.2502 119.908 19.0203 120.078 18.8507C120.248 18.6812 120.478 18.5859 120.717 18.5859H128.524V19.1655H120.717C120.631 19.1655 120.549 19.1997 120.488 19.2605C120.427 19.3214 120.393 19.4039 120.393 19.49V39.8086C120.396 39.9293 120.375 40.0493 120.331 40.1617C120.287 40.2741 120.221 40.3765 120.136 40.4629C120.052 40.5493 119.951 40.618 119.84 40.6649C119.729 40.7118 119.609 40.7359 119.489 40.7359Z" fill="white"/>
<path d="M154.087 118.736H153.507V104.52C153.507 104.399 153.459 104.282 153.373 104.197C153.288 104.111 153.171 104.062 153.05 104.062H121.824C121.549 104.062 121.285 103.953 121.091 103.759C120.896 103.564 120.787 103.3 120.787 103.025V48.2009C120.787 47.9257 120.896 47.6619 121.091 47.4673C121.285 47.2728 121.549 47.1635 121.824 47.1635H128.599C128.72 47.1635 128.837 47.1153 128.923 47.0294C129.009 46.9435 129.057 46.8271 129.057 46.7057V24.8281H129.636V46.7057C129.636 46.9808 129.527 47.2446 129.333 47.4392C129.138 47.6337 128.874 47.743 128.599 47.743H121.824C121.703 47.7445 121.588 47.7933 121.502 47.8788C121.417 47.9643 121.368 48.0799 121.366 48.2009V103.025C121.366 103.147 121.415 103.263 121.5 103.349C121.586 103.435 121.703 103.483 121.824 103.483H153.05C153.325 103.483 153.589 103.592 153.783 103.787C153.978 103.981 154.087 104.245 154.087 104.52V118.736Z" fill="white"/>
<path d="M122.079 43.147H113.264V42.5675H122.079C122.122 42.5675 122.164 42.5591 122.203 42.5428C122.243 42.5265 122.279 42.5025 122.309 42.4724C122.339 42.4423 122.363 42.4065 122.379 42.3671C122.395 42.3277 122.404 42.2855 122.404 42.2429V22.1793C122.402 22.0596 122.424 21.9408 122.469 21.8298C122.514 21.7188 122.58 21.6177 122.664 21.5326C122.749 21.4474 122.849 21.3797 122.959 21.3336C123.07 21.2874 123.188 21.2637 123.308 21.2637H128.524V21.8432H123.308C123.222 21.8432 123.139 21.8774 123.078 21.9383C123.018 21.9991 122.983 22.0817 122.983 22.1677V42.2429C122.983 42.4827 122.888 42.7127 122.719 42.8822C122.549 43.0518 122.319 43.147 122.079 43.147Z" fill="white"/>
<path d="M114.881 32.4993H113.264V31.9197H114.881C114.967 31.9197 115.05 31.8856 115.111 31.8247C115.172 31.7638 115.206 31.6813 115.206 31.5952V20.4391C115.206 20.353 115.172 20.2705 115.111 20.2096C115.05 20.1488 114.967 20.1146 114.881 20.1146H99.4367C99.3506 20.1146 99.2681 20.1488 99.2072 20.2096C99.1463 20.2705 99.1121 20.353 99.1121 20.4391V31.5952C99.1121 31.6813 99.1463 31.7638 99.2072 31.8247C99.2681 31.8856 99.3506 31.9197 99.4367 31.9197H102.282V32.4993H99.4367C99.1969 32.4993 98.9669 32.404 98.7974 32.2345C98.6279 32.0649 98.5326 31.835 98.5326 31.5952V20.4391C98.5311 20.3194 98.5533 20.2006 98.5981 20.0896C98.6428 19.9785 98.7092 19.8775 98.7933 19.7923C98.8774 19.7071 98.9776 19.6395 99.088 19.5933C99.1985 19.5472 99.317 19.5234 99.4367 19.5234H114.881C115.121 19.5234 115.351 19.6187 115.521 19.7882C115.69 19.9578 115.785 20.1877 115.785 20.4275V31.5952C115.785 31.835 115.69 32.0649 115.521 32.2345C115.351 32.404 115.121 32.4993 114.881 32.4993Z" fill="white"/>
<path d="M172.586 73.4218H172.006V70.0604C172.008 69.6449 172.174 69.2469 172.468 68.9536C172.763 68.6604 173.161 68.4957 173.577 68.4957H195.599C195.861 68.4957 196.111 68.3919 196.296 68.2071C196.481 68.0224 196.585 67.7718 196.585 67.5105V47.9221C196.585 47.6603 196.481 47.4091 196.296 47.2234C196.112 47.0377 195.861 46.9326 195.599 46.9311H188.911V46.3516H195.599C195.805 46.3516 196.009 46.3922 196.199 46.4712C196.39 46.5502 196.562 46.666 196.708 46.8119C196.853 46.9578 196.968 47.131 197.047 47.3215C197.125 47.512 197.165 47.7161 197.164 47.9221V67.5105C197.164 67.9255 196.999 68.3235 196.706 68.6169C196.412 68.9104 196.014 69.0752 195.599 69.0752H173.577C173.315 69.0752 173.064 69.1788 172.878 69.3634C172.692 69.548 172.587 69.7986 172.586 70.0604V73.4218Z" fill="white"/>
<path d="M157.721 100.717H157.141V118.735H157.721V100.717Z" fill="white"/>
<path d="M192.006 117.827H191.427V112.304L204.756 106.027L204.994 24.956L190.998 11.8237H137.373C137.245 11.8252 137.122 11.877 137.031 11.9679C136.94 12.0589 136.888 12.1818 136.886 12.3105V13.7304H136.307V12.3105C136.307 12.1705 136.334 12.0318 136.388 11.9024C136.442 11.773 136.52 11.6555 136.619 11.5565C136.718 11.4574 136.836 11.3789 136.965 11.3253C137.095 11.2717 137.233 11.2441 137.373 11.2441H191.23L205.567 24.701V24.8285L205.324 106.398L191.995 112.669L192.006 117.827Z" fill="white"/>
<path d="M171.23 118.736H170.65V110.332C170.648 110.022 170.525 109.725 170.308 109.504L164.571 103.76C164.409 103.599 164.28 103.406 164.193 103.194C164.105 102.982 164.06 102.755 164.061 102.526V99.9355H164.64V102.526C164.64 102.68 164.669 102.833 164.728 102.975C164.787 103.117 164.873 103.246 164.982 103.355L170.726 109.098C170.888 109.26 171.016 109.452 171.104 109.664C171.191 109.876 171.236 110.103 171.236 110.332L171.23 118.736Z" fill="white"/>
<path d="M174.643 117.826H174.064V109.463C174.063 109.226 174.111 108.99 174.205 108.772C174.298 108.554 174.436 108.357 174.609 108.194C175.768 107.122 178.665 104.63 179.906 103.61C180.027 103.507 180.125 103.379 180.192 103.235C180.259 103.091 180.294 102.934 180.294 102.775V99.9355H180.873V102.775C180.875 103.018 180.824 103.258 180.724 103.479C180.624 103.7 180.477 103.897 180.294 104.056C179.083 105.07 176.144 107.533 175.026 108.611C174.91 108.72 174.817 108.853 174.754 108.999C174.692 109.146 174.66 109.304 174.661 109.463L174.643 117.826Z" fill="white"/>
<path d="M168.836 74.2626H168.257V66.1491C168.257 65.7341 168.422 65.3361 168.715 65.0427C169.009 64.7492 169.407 64.5844 169.822 64.5844H184.188C184.353 64.5844 184.51 64.519 184.627 64.4027C184.743 64.2864 184.808 64.1287 184.808 63.9642V61.9648H185.388V63.9642C185.388 64.2824 185.262 64.5875 185.037 64.8125C184.812 65.0375 184.506 65.1639 184.188 65.1639H169.822C169.56 65.1639 169.31 65.2677 169.125 65.4525C168.94 65.6372 168.836 65.8878 168.836 66.1491V74.2626Z" fill="white"/>
<path d="M185.098 31.6963V31.1168C185.05 31.1159 185.003 31.1285 184.962 31.1531C184.921 31.1777 184.888 31.2133 184.866 31.2558C184.866 31.1805 185.023 30.5952 184.866 26.2834C184.857 25.9729 184.728 25.6781 184.505 25.4616C184.282 25.2452 183.983 25.1242 183.672 25.1243H164.258C163.788 25.1228 163.338 24.9355 163.006 24.6032C162.673 24.271 162.486 23.8208 162.485 23.351V19.4159C162.485 19.0987 162.359 18.7945 162.135 18.5697C161.912 18.3449 161.608 18.2178 161.291 18.2163H140.23V17.6367H161.268C161.738 17.6383 162.189 17.8264 162.522 18.1599C162.854 18.4934 163.041 18.945 163.041 19.4159V23.3452C163.041 23.6618 163.167 23.9655 163.391 24.1893C163.615 24.4132 163.918 24.539 164.235 24.539H183.696C184.149 24.5476 184.582 24.7296 184.905 25.0476C185.229 25.3656 185.418 25.7954 185.434 26.2486C185.614 31.2732 185.434 31.4645 185.313 31.5862L185.231 31.6789L185.098 31.6963Z" fill="white"/>
<path d="M144.548 74.2608H143.968V71.0676C143.968 70.8647 143.888 70.6701 143.744 70.5266C143.601 70.3832 143.406 70.3026 143.203 70.3026H125.388C125.032 70.3026 124.69 70.1609 124.438 69.9088C124.186 69.6566 124.044 69.3146 124.044 68.958V50.8707C124.044 50.5141 124.186 50.1721 124.438 49.92C124.69 49.6678 125.032 49.5262 125.388 49.5262H130.894C131.581 49.5246 132.239 49.2512 132.724 48.7657C133.21 48.2802 133.483 47.6222 133.485 46.9356V24.6582H134.064V46.9356C134.063 47.7759 133.728 48.5813 133.134 49.1755C132.54 49.7697 131.734 50.1042 130.894 50.1057H125.388C125.186 50.1057 124.991 50.1863 124.847 50.3298C124.704 50.4732 124.623 50.6678 124.623 50.8707V68.958C124.625 69.1605 124.706 69.3542 124.849 69.4973C124.992 69.6404 125.186 69.7215 125.388 69.723H143.203C143.56 69.723 143.902 69.8647 144.154 70.1168C144.406 70.369 144.548 70.711 144.548 71.0676V74.2608Z" fill="white"/>
<path d="M153.148 74.2623H152.569V70.5243C152.571 70.2325 152.514 69.9432 152.403 69.6735C152.291 69.4038 152.127 69.1591 151.92 68.9538L139.222 56.2561C138.588 55.6221 138.228 54.7648 138.219 53.8684C138.19 49.8406 138.098 36.2736 138.19 30.7333C138.205 29.9999 138.507 29.3015 139.03 28.7872C139.553 28.2728 140.256 27.9833 140.99 27.9805H178.08C178.823 27.9805 179.535 28.2752 180.061 28.8C180.587 29.3248 180.883 30.0367 180.885 30.7796V32.2111H180.305V30.7796C180.304 30.1904 180.069 29.6259 179.651 29.2098C179.234 28.7937 178.669 28.56 178.08 28.56H140.99C140.407 28.5614 139.849 28.791 139.434 29.1994C139.019 29.6079 138.781 30.1627 138.77 30.7449C138.677 36.2737 138.77 49.8696 138.799 53.8626C138.804 54.6094 139.104 55.324 139.633 55.8504L152.331 68.5423C152.591 68.8028 152.797 69.1119 152.937 69.452C153.077 69.7921 153.149 70.1565 153.148 70.5243V74.2623Z" fill="white"/>
<path d="M159.732 74.2617H159.152V70.1123C159.152 69.5235 158.919 68.9588 158.503 68.5417L143.615 53.6534C143.352 53.3948 143.144 53.0861 143.003 52.7457C142.861 52.4053 142.79 52.04 142.792 51.6714V35.8616C142.792 35.1177 143.087 34.4042 143.613 33.8782C144.14 33.3522 144.853 33.0566 145.597 33.0566H160.595V33.6362H145.597C145.007 33.6362 144.441 33.8706 144.023 34.288C143.606 34.7053 143.371 35.2714 143.371 35.8616V51.6714C143.37 51.9631 143.427 52.2522 143.538 52.5218C143.65 52.7914 143.814 53.0362 144.021 53.2419L158.909 68.136C159.171 68.394 159.379 68.7017 159.52 69.0411C159.661 69.3804 159.733 69.7446 159.732 70.1123V74.2617Z" fill="white"/>
<path d="M207.694 138.91C206.293 138.911 204.923 138.497 203.758 137.719C202.592 136.941 201.684 135.835 201.147 134.541C200.61 133.247 200.469 131.822 200.742 130.448C201.015 129.074 201.69 127.811 202.681 126.82C203.672 125.83 204.934 125.155 206.308 124.882C207.683 124.609 209.107 124.75 210.401 125.286C211.696 125.823 212.802 126.732 213.579 127.897C214.357 129.063 214.772 130.433 214.77 131.834C214.767 133.71 214.021 135.508 212.695 136.834C211.368 138.16 209.57 138.907 207.694 138.91ZM207.694 125.331C206.408 125.33 205.15 125.711 204.08 126.424C203.01 127.138 202.176 128.153 201.683 129.341C201.19 130.53 201.06 131.837 201.31 133.099C201.561 134.361 202.179 135.52 203.089 136.43C203.998 137.34 205.156 137.96 206.418 138.211C207.679 138.462 208.987 138.334 210.176 137.842C211.364 137.35 212.38 136.516 213.095 135.447C213.809 134.378 214.191 133.12 214.191 131.834C214.186 130.113 213.5 128.464 212.283 127.247C211.065 126.031 209.415 125.346 207.694 125.343V125.331Z" fill="white"/>
<g opacity="0.3">
<path opacity="0.3" d="M142.189 15.0098H127.156V26.9135H128.64V28.1131H129.521V26.9135H130.987V28.1131H131.868V26.9135H133.34V28.1131H134.221V26.9135H135.687V28.1131H136.568V26.9135H138.04V28.1131H138.921V26.9135H140.387V28.1131H141.268V26.9135H142.189V15.0098Z" fill="black"/>
</g>
<path d="M141.169 12.9297H126.136V24.8276H141.169V12.9297Z" fill="#263238"/>
<path d="M128.501 23.7598H127.62V26.0258H128.501V23.7598Z" fill="#E0E0E0"/>
<path d="M130.853 23.7598H129.973V26.0258H130.853V23.7598Z" fill="#E0E0E0"/>
<path d="M133.201 23.7598H132.32V26.0258H133.201V23.7598Z" fill="#E0E0E0"/>
<path d="M135.553 23.7598H134.673V26.0258H135.553V23.7598Z" fill="#E0E0E0"/>
<path d="M137.901 23.7598H137.02V26.0258H137.901V23.7598Z" fill="#E0E0E0"/>
<path d="M140.254 23.7598H139.373V26.0258H140.254V23.7598Z" fill="#E0E0E0"/>
<path d="M139.06 16.337C139.62 16.337 140.074 15.8829 140.074 15.3228C140.074 14.7627 139.62 14.3086 139.06 14.3086C138.5 14.3086 138.045 14.7627 138.045 15.3228C138.045 15.8829 138.5 16.337 139.06 16.337Z" fill="#455A64"/>
<g opacity="0.3">
<path opacity="0.3" d="M198.723 75.9015L126.379 75.6465V102.943H129.103V103.841H129.984V102.943H131.45V103.841H132.331V102.943H133.803V103.841H134.684V102.943H136.15V103.841H137.031V102.943H138.503V103.841H139.384V102.943H140.85V103.841H141.731V102.943H143.232V103.841H144.113V102.943H145.585V103.841H146.466V102.943H147.932V103.841H148.813V102.943H150.285V103.841H151.166V102.943H152.632V103.841H153.513V102.943H154.985V103.841H155.866V102.943H157.64V103.841H158.521V102.943H159.993V103.841H160.873V102.943H162.34V103.841H163.221V102.943H164.693V103.841H165.574V102.943H167.04V103.841H167.921V102.943H169.393V103.841H170.274V102.943H171.775V103.841H172.655V102.943H174.122V103.841H175.003V102.943H176.469V103.841H177.356V102.943H178.822V103.841H179.703V102.943H181.175V103.841H182.056V102.943H183.522V103.841H184.403V102.943H185.394V103.841H186.275V102.943H187.741V103.841H188.622V102.943H190.094V103.841H190.975V102.943H192.441V103.841H193.322V102.943H194.794V103.841H195.675V102.943H197.141V103.841H198.022V102.943H198.909L198.723 75.9015Z" fill="black"/>
</g>
<path d="M196.863 73.4277H124.328V100.724H196.863V73.4277Z" fill="#263238"/>
<path d="M127.938 99.3496H127.057V101.616H127.938V99.3496Z" fill="#E0E0E0"/>
<path d="M130.285 99.3496H129.405V101.616H130.285V99.3496Z" fill="#E0E0E0"/>
<path d="M132.638 99.3496H131.758V101.616H132.638V99.3496Z" fill="#E0E0E0"/>
<path d="M134.986 99.3496H134.105V101.616H134.986V99.3496Z" fill="#E0E0E0"/>
<path d="M137.338 99.3496H136.458V101.616H137.338V99.3496Z" fill="#E0E0E0"/>
<path d="M139.686 99.3496H138.805V101.616H139.686V99.3496Z" fill="#E0E0E0"/>
<path d="M142.067 99.3496H141.187V101.616H142.067V99.3496Z" fill="#E0E0E0"/>
<path d="M144.415 99.3496H143.534V101.616H144.415V99.3496Z" fill="#E0E0E0"/>
<path d="M146.768 99.3496H145.887V101.616H146.768V99.3496Z" fill="#E0E0E0"/>
<path d="M149.115 99.3496H148.234V101.616H149.115V99.3496Z" fill="#E0E0E0"/>
<path d="M151.468 99.3496H150.587V101.616H151.468V99.3496Z" fill="#E0E0E0"/>
<path d="M153.815 99.3496H152.934V101.616H153.815V99.3496Z" fill="#E0E0E0"/>
<path d="M156.475 99.3496H155.594V101.616H156.475V99.3496Z" fill="#E0E0E0"/>
<path d="M158.822 99.3496H157.941V101.616H158.822V99.3496Z" fill="#E0E0E0"/>
<path d="M161.175 99.3496H160.294V101.616H161.175V99.3496Z" fill="#E0E0E0"/>
<path d="M163.522 99.3496H162.641V101.616H163.522V99.3496Z" fill="#E0E0E0"/>
<path d="M165.875 99.3496H164.994V101.616H165.875V99.3496Z" fill="#E0E0E0"/>
<path d="M168.222 99.3496H167.341V101.616H168.222V99.3496Z" fill="#E0E0E0"/>
<path d="M170.604 99.3496H169.723V101.616H170.604V99.3496Z" fill="#E0E0E0"/>
<path d="M172.957 99.3496H172.076V101.616H172.957V99.3496Z" fill="#E0E0E0"/>
<path d="M175.304 99.3496H174.423V101.616H175.304V99.3496Z" fill="#E0E0E0"/>
<path d="M177.657 99.3496H176.776V101.616H177.657V99.3496Z" fill="#E0E0E0"/>
<path d="M180.004 99.3496H179.123V101.616H180.004V99.3496Z" fill="#E0E0E0"/>
<path d="M182.357 99.3496H181.476V101.616H182.357V99.3496Z" fill="#E0E0E0"/>
<path d="M184.229 99.3496H183.348V101.616H184.229V99.3496Z" fill="#E0E0E0"/>
<path d="M186.576 99.3496H185.695V101.616H186.576V99.3496Z" fill="#E0E0E0"/>
<path d="M188.923 99.3496H188.042V101.616H188.923V99.3496Z" fill="#E0E0E0"/>
<path d="M191.276 99.3496H190.395V101.616H191.276V99.3496Z" fill="#E0E0E0"/>
<path d="M193.623 99.3496H192.742V101.616H193.623V99.3496Z" fill="#E0E0E0"/>
<path d="M195.976 99.3496H195.095V101.616H195.976V99.3496Z" fill="#E0E0E0"/>
<path d="M194.191 96.2266C194.104 96.2266 194.04 91.6366 194.04 85.9687C194.04 80.3009 194.104 75.7109 194.191 75.7109C194.278 75.7109 194.342 80.3067 194.342 85.9687C194.342 91.6308 194.272 96.2266 194.191 96.2266Z" fill="#455A64"/>
<path d="M192.968 82.9252C192.819 81.8619 192.769 80.7871 192.818 79.7145C192.769 78.642 192.819 77.5672 192.968 76.5039C193.117 77.5672 193.168 78.642 193.119 79.7145C193.168 80.7871 193.117 81.8619 192.968 82.9252Z" fill="#455A64"/>
<path d="M163.765 96.6448C163.765 96.7318 163.377 96.7955 162.89 96.7955C162.403 96.7955 162.021 96.7318 162.021 96.6448C162.021 96.5579 162.409 96.4941 162.89 96.4941C163.371 96.4941 163.765 96.5637 163.765 96.6448Z" fill="#455A64"/>
<path d="M166.999 96.6448C166.999 96.7318 166.611 96.7955 166.13 96.7955C165.649 96.7955 165.255 96.7318 165.255 96.6448C165.255 96.5579 165.643 96.4941 166.13 96.4941C166.617 96.4941 166.999 96.5637 166.999 96.6448Z" fill="#455A64"/>
<path d="M170.233 96.6448C170.233 96.7318 169.845 96.7955 169.364 96.7955C168.883 96.7955 168.489 96.7318 168.489 96.6448C168.489 96.5579 168.877 96.4941 169.364 96.4941C169.851 96.4941 170.233 96.5637 170.233 96.6448Z" fill="#455A64"/>
<path d="M173.467 96.6448C173.467 96.7318 173.079 96.7955 172.598 96.7955C172.117 96.7955 171.722 96.7318 171.722 96.6448C171.722 96.5579 172.117 96.4941 172.598 96.4941C173.079 96.4941 173.467 96.5637 173.467 96.6448Z" fill="#455A64"/>
<path d="M176.701 96.6448C176.701 96.7318 176.312 96.7955 175.831 96.7955C175.35 96.7955 174.956 96.7318 174.956 96.6448C174.956 96.5579 175.35 96.4941 175.831 96.4941C176.312 96.4941 176.701 96.5637 176.701 96.6448Z" fill="#455A64"/>
<path d="M179.934 96.6448C179.934 96.7318 179.546 96.7955 179.065 96.7955C178.584 96.7955 178.19 96.7318 178.19 96.6448C178.19 96.5579 178.584 96.4941 179.065 96.4941C179.546 96.4941 179.934 96.5637 179.934 96.6448Z" fill="#455A64"/>
<path d="M183.174 96.6448C183.174 96.7318 182.78 96.7955 182.299 96.7955C181.818 96.7955 181.43 96.7318 181.43 96.6448C181.43 96.5579 181.818 96.4941 182.299 96.4941C182.78 96.4941 183.174 96.5637 183.174 96.6448Z" fill="#455A64"/>
<path d="M186.408 96.6448C186.408 96.7318 186.014 96.7955 185.533 96.7955C185.052 96.7955 184.663 96.7318 184.663 96.6448C184.663 96.5579 185.052 96.4941 185.533 96.4941C186.014 96.4941 186.408 96.5637 186.408 96.6448Z" fill="#455A64"/>
<g opacity="0.3">
<path opacity="0.3" d="M116.284 26.6289H105.302V67.9036H116.284V26.6289Z" fill="black"/>
</g>
<path d="M113.264 26.0254H102.282V67.3H113.264V26.0254Z" fill="#263238"/>
<path d="M100.77 26.8261V27.707H103.036V26.8261H100.77Z" fill="#E0E0E0"/>
<path d="M100.77 29.1679V30.0488H103.036V29.1679H100.77Z" fill="#E0E0E0"/>
<path d="M100.77 31.5097V32.3906H103.036V31.5097H100.77Z" fill="#E0E0E0"/>
<path d="M100.764 33.8515V34.7324H103.03V33.8515H100.764Z" fill="#E0E0E0"/>
<path d="M100.764 36.1914V37.0723H103.03V36.1914H100.764Z" fill="#E0E0E0"/>
<path d="M100.77 38.539V39.4199H103.036V38.539H100.77Z" fill="#E0E0E0"/>
<path d="M100.77 40.8808V41.7617H103.036V40.8808H100.77Z" fill="#E0E0E0"/>
<path d="M100.77 43.2226V44.1035H103.036V43.2226H100.77Z" fill="#E0E0E0"/>
<path d="M100.764 45.5625V46.4434H103.03V45.5625H100.764Z" fill="#E0E0E0"/>
<path d="M100.764 47.9101V48.791H103.03V47.9101H100.764Z" fill="#E0E0E0"/>
<path d="M100.77 50.2519V51.1328H103.036V50.2519H100.77Z" fill="#E0E0E0"/>
<path d="M100.77 52.5937V53.4746H103.036V52.5937H100.77Z" fill="#E0E0E0"/>
<path d="M100.77 54.9355V55.8164H103.036V54.9355H100.77Z" fill="#E0E0E0"/>
<path d="M100.764 57.2754V58.1562H103.03V57.2754H100.764Z" fill="#E0E0E0"/>
<path d="M100.764 59.623V60.5039H103.03V59.623H100.764Z" fill="#E0E0E0"/>
<path d="M100.77 61.9648V62.8457H103.036V61.9648H100.77Z" fill="#E0E0E0"/>
<path d="M100.77 64.3066V65.1875H103.036V64.3066H100.77Z" fill="#E0E0E0"/>
<path d="M111.833 28.27C111.833 28.472 111.773 28.6694 111.661 28.8373C111.548 29.0051 111.389 29.1359 111.202 29.2129C111.015 29.2899 110.81 29.3098 110.612 29.2699C110.414 29.2301 110.232 29.1324 110.09 28.9892C109.947 28.8459 109.851 28.6637 109.812 28.4654C109.773 28.2672 109.794 28.0619 109.872 27.8756C109.95 27.6894 110.082 27.5305 110.251 27.4191C110.419 27.3077 110.617 27.2489 110.819 27.25C110.952 27.25 111.085 27.2764 111.208 27.3278C111.332 27.3791 111.444 27.4543 111.538 27.5491C111.632 27.6439 111.707 27.7564 111.757 27.8801C111.808 28.0038 111.834 28.1363 111.833 28.27Z" fill="#455A64"/>
<path d="M188.9 31.3945H158.358V61.9361H188.9V31.3945Z" fill="#263238"/>
<path d="M161.175 30.2637H160.294V32.5297H161.175V30.2637Z" fill="#E0E0E0"/>
<path d="M163.522 30.2637H162.641V32.5297H163.522V30.2637Z" fill="#E0E0E0"/>
<path d="M165.875 30.2637H164.994V32.5297H165.875V30.2637Z" fill="#E0E0E0"/>
<path d="M168.222 30.2637H167.341V32.5297H168.222V30.2637Z" fill="#E0E0E0"/>
<path d="M170.575 30.2637H169.694V32.5297H170.575V30.2637Z" fill="#E0E0E0"/>
<path d="M172.922 30.2637H172.041V32.5297H172.922V30.2637Z" fill="#E0E0E0"/>
<path d="M175.304 30.2637H174.423V32.5297H175.304V30.2637Z" fill="#E0E0E0"/>
<path d="M177.657 30.2637H176.776V32.5297H177.657V30.2637Z" fill="#E0E0E0"/>
<path d="M180.004 30.2637H179.123V32.5297H180.004V30.2637Z" fill="#E0E0E0"/>
<path d="M182.357 30.2637H181.476V32.5297H182.357V30.2637Z" fill="#E0E0E0"/>
<path d="M184.704 30.2637H183.823V32.5297H184.704V30.2637Z" fill="#E0E0E0"/>
<path d="M187.057 30.2637H186.176V32.5297H187.057V30.2637Z" fill="#E0E0E0"/>
<path d="M161.175 60.8809H160.294V63.1469H161.175V60.8809Z" fill="#E0E0E0"/>
<path d="M163.522 60.8809H162.641V63.1469H163.522V60.8809Z" fill="#E0E0E0"/>
<path d="M165.875 60.8809H164.994V63.1469H165.875V60.8809Z" fill="#E0E0E0"/>
<path d="M168.222 60.8809H167.341V63.1469H168.222V60.8809Z" fill="#E0E0E0"/>
<path d="M170.575 60.8809H169.694V63.1469H170.575V60.8809Z" fill="#E0E0E0"/>
<path d="M172.922 60.8809H172.041V63.1469H172.922V60.8809Z" fill="#E0E0E0"/>
<path d="M175.304 60.8809H174.423V63.1469H175.304V60.8809Z" fill="#E0E0E0"/>
<path d="M177.657 60.8809H176.776V63.1469H177.657V60.8809Z" fill="#E0E0E0"/>
<path d="M180.004 60.8809H179.123V63.1469H180.004V60.8809Z" fill="#E0E0E0"/>
<path d="M182.357 60.8809H181.476V63.1469H182.357V60.8809Z" fill="#E0E0E0"/>
<path d="M184.704 60.8809H183.823V63.1469H184.704V60.8809Z" fill="#E0E0E0"/>
<path d="M187.057 60.8809H186.176V63.1469H187.057V60.8809Z" fill="#E0E0E0"/>
<path d="M157.147 59.9179V60.7988H159.413V59.9179H157.147Z" fill="#E0E0E0"/>
<path d="M157.147 57.5703V58.4512H159.413V57.5703H157.147Z" fill="#E0E0E0"/>
<path d="M157.147 55.2187V56.0996H159.413V55.2187H157.147Z" fill="#E0E0E0"/>
<path d="M157.147 52.8711V53.752H159.413V52.8711H157.147Z" fill="#E0E0E0"/>
<path d="M157.147 50.5175V51.3984H159.413V50.5175H157.147Z" fill="#E0E0E0"/>
<path d="M157.147 48.1718V49.0527H159.413V48.1718H157.147Z" fill="#E0E0E0"/>
<path d="M157.147 45.789V46.6699H159.413V45.789H157.147Z" fill="#E0E0E0"/>
<path d="M157.141 43.4355V44.3164H159.407V43.4355H157.141Z" fill="#E0E0E0"/>
<path d="M157.147 41.0898V41.9707H159.413V41.0898H157.147Z" fill="#E0E0E0"/>
<path d="M157.141 38.7363V39.6172H159.407V38.7363H157.141Z" fill="#E0E0E0"/>
<path d="M157.147 36.3886V37.2695H159.413V36.3886H157.147Z" fill="#E0E0E0"/>
<path d="M157.141 34.0351V34.916H159.407V34.0351H157.141Z" fill="#E0E0E0"/>
<path d="M187.764 59.9179V60.7988H190.03V59.9179H187.764Z" fill="#E0E0E0"/>
<path d="M187.77 57.5664V58.4473H190.036V57.5664H187.77Z" fill="#E0E0E0"/>
<path d="M187.764 55.2187V56.0996H190.03V55.2187H187.764Z" fill="#E0E0E0"/>
<path d="M187.77 52.8652V53.7461H190.036V52.8652H187.77Z" fill="#E0E0E0"/>
<path d="M187.764 50.5175V51.3984H190.03V50.5175H187.764Z" fill="#E0E0E0"/>
<path d="M187.77 48.166V49.0469H190.036V48.166H187.77Z" fill="#E0E0E0"/>
<path d="M187.77 45.7851V46.666H190.036V45.7851H187.77Z" fill="#E0E0E0"/>
<path d="M187.764 43.4355V44.3164H190.03V43.4355H187.764Z" fill="#E0E0E0"/>
<path d="M187.77 41.0839V41.9648H190.036V41.0839H187.77Z" fill="#E0E0E0"/>
<path d="M187.764 38.7363V39.6172H190.03V38.7363H187.764Z" fill="#E0E0E0"/>
<path d="M187.764 36.3828V37.2637H190.03V36.3828H187.764Z" fill="#E0E0E0"/>
<path d="M187.764 34.0351V34.916H190.03V34.0351H187.764Z" fill="#E0E0E0"/>
<path d="M164.339 39.6103C165.635 39.6103 166.686 38.5594 166.686 37.2631C166.686 35.9669 165.635 34.916 164.339 34.916C163.043 34.916 161.992 35.9669 161.992 37.2631C161.992 38.5594 163.043 39.6103 164.339 39.6103Z" fill="#455A64"/>
<path d="M185.376 47.7246C185.525 49.5035 185.576 51.2893 185.527 53.0737C185.576 54.8582 185.526 56.644 185.376 58.4229C185.224 56.6442 185.173 54.8582 185.226 53.0737C185.173 51.2893 185.224 49.5033 185.376 47.7246Z" fill="#455A64"/>
<path d="M185.486 45.2734C185.573 45.2734 185.637 45.5922 185.637 45.9805C185.637 46.3688 185.573 46.6875 185.486 46.6875C185.399 46.6875 185.336 46.3746 185.336 45.9805C185.336 45.5864 185.434 45.2734 185.486 45.2734Z" fill="#455A64"/>
<path d="M207.775 135.501C207.052 135.501 206.345 135.287 205.744 134.885C205.142 134.483 204.674 133.912 204.397 133.244C204.12 132.576 204.048 131.84 204.189 131.131C204.33 130.422 204.678 129.77 205.19 129.259C205.701 128.747 206.353 128.399 207.062 128.258C207.771 128.117 208.507 128.189 209.175 128.466C209.843 128.743 210.414 129.211 210.816 129.813C211.218 130.414 211.432 131.121 211.432 131.844C211.431 132.814 211.045 133.743 210.36 134.428C209.674 135.114 208.745 135.5 207.775 135.501ZM207.775 128.767C207.167 128.767 206.572 128.948 206.066 129.286C205.56 129.624 205.165 130.104 204.932 130.667C204.699 131.229 204.638 131.848 204.757 132.445C204.876 133.042 205.169 133.59 205.599 134.02C206.03 134.451 206.578 134.744 207.175 134.863C207.772 134.981 208.391 134.92 208.953 134.687C209.515 134.455 209.996 134.06 210.334 133.554C210.672 133.048 210.853 132.453 210.853 131.844C210.853 131.028 210.529 130.245 209.951 129.668C209.374 129.091 208.592 128.767 207.775 128.767Z" fill="#263238"/>
<path d="M267.079 64.2129L276.422 59.5128C282.989 61.9076 290.215 61.7599 296.679 59.0989C303.143 56.4378 308.379 51.4558 311.357 45.1314C314.335 38.8071 314.841 31.5977 312.774 24.9196C310.708 18.2414 306.219 12.5774 300.19 9.04007C294.16 5.50278 287.026 4.34801 280.189 5.80261C273.351 7.25721 267.305 11.216 263.237 16.9013C259.17 22.5866 257.375 29.5874 258.206 36.5283C259.037 43.4692 262.434 49.8485 267.729 54.4129L267.079 64.2129Z" fill="white"/>
<path d="M267.08 64.2139C267.109 63.7445 267.288 60.7019 267.659 54.4023C267.66 54.3939 267.662 54.3858 267.666 54.3783C267.67 54.3708 267.675 54.3642 267.682 54.3588C267.688 54.3535 267.696 54.3494 267.704 54.3469C267.712 54.3444 267.72 54.3436 267.729 54.3444H267.769L267.7 54.4545C266.089 53.0767 264.638 51.5214 263.376 49.8182C261.824 47.7288 260.575 45.4304 259.667 42.9912C259.154 41.6186 258.749 40.2079 258.456 38.7722C258.34 38.0188 258.224 37.2596 258.103 36.483C258.038 36.0998 258.001 35.7125 257.992 35.3239C257.992 34.9241 257.952 34.5242 257.929 34.1185C257.754 28.4603 259.287 22.8807 262.329 18.1068C265.372 13.3329 269.782 9.58636 274.984 7.35546C278.976 5.68942 283.294 4.95033 287.613 5.19379C288.723 5.24483 289.828 5.37068 290.922 5.57049C291.476 5.65297 292.024 5.77302 292.562 5.9298C293.107 6.06889 293.651 6.19639 294.196 6.34707C296.372 7.03257 298.459 7.9721 300.415 9.14623C301.388 9.71996 302.323 10.3569 303.214 11.0529C303.665 11.3885 304.097 11.7504 304.506 12.1366C304.918 12.5133 305.352 12.8669 305.746 13.2609C310.364 17.8793 313.255 23.9434 313.935 30.4384C314.477 36.0255 313.336 41.6469 310.658 46.5802C307.98 51.5135 303.888 55.5333 298.908 58.1229C298.183 58.4649 297.488 58.8474 296.763 59.1371L294.596 59.9311C293.877 60.1629 293.147 60.3136 292.446 60.5106C291.755 60.7011 291.052 60.8483 290.342 60.9511C285.645 61.6926 280.837 61.2177 276.375 59.5718H276.422L267.074 64.2081L276.346 59.4269C276.354 59.4228 276.363 59.4207 276.372 59.4207C276.381 59.4207 276.39 59.4228 276.399 59.4269C280.848 61.0376 285.636 61.4864 290.307 60.7309C291.013 60.6274 291.712 60.4803 292.4 60.2904C293.095 60.0992 293.819 59.9427 294.532 59.7109L296.706 58.9343C297.418 58.6445 298.114 58.262 298.832 57.9259C305.161 54.6083 309.979 48.9922 312.295 42.232C313.641 38.3436 314.099 34.2031 313.636 30.1145C313.173 26.0259 311.8 22.0929 309.618 18.6043C308.468 16.7453 307.107 15.0261 305.561 13.4812C305.167 13.0929 304.738 12.7394 304.326 12.3685C303.924 11.9847 303.498 11.6266 303.051 11.2963C302.171 10.608 301.245 9.97877 300.281 9.41282C298.346 8.25231 296.283 7.32073 294.132 6.63684C293.593 6.49195 293.054 6.36445 292.515 6.22536C291.983 6.0705 291.441 5.95238 290.893 5.87185C289.811 5.67207 288.717 5.54621 287.618 5.49515C283.344 5.25728 279.071 5.98626 275.118 7.62785C269.957 9.82904 265.579 13.5359 262.558 18.2641C259.537 22.9922 258.013 28.5218 258.184 34.1301C258.184 34.53 258.224 34.9299 258.242 35.3239C258.249 35.7125 258.286 36.1 258.352 36.483C258.468 37.2538 258.578 38.013 258.694 38.7548C258.979 40.1824 259.376 41.5853 259.882 42.9506C260.775 45.3754 262.006 47.662 263.539 49.7428C264.785 51.4424 266.218 52.9975 267.81 54.3791C267.816 54.3851 267.821 54.3923 267.825 54.4002C267.828 54.4082 267.83 54.4168 267.83 54.4255C267.83 54.4342 267.828 54.4428 267.825 54.4507C267.821 54.4587 267.816 54.4659 267.81 54.4719C267.798 54.4804 267.784 54.4849 267.769 54.4849C267.755 54.4849 267.74 54.4804 267.729 54.4719L267.821 54.4197C267.335 60.7019 267.114 63.7445 267.08 64.2139Z" fill="#F5F5F5"/>
<path d="M297.465 32.4589C297.821 32.2854 298.199 32.1606 298.589 32.088L298.913 31.0391L300.722 31.1724L300.884 32.2619C301.259 32.3905 301.616 32.5678 301.944 32.7893L302.912 32.2793L304.071 33.6528L303.422 34.5337C303.592 34.8914 303.717 35.2692 303.793 35.658L304.842 35.9825L304.703 37.7907L303.619 37.9529C303.49 38.3287 303.311 38.6854 303.086 39.0135L303.602 39.9813L302.228 41.1404L301.342 40.5145C300.985 40.6863 300.607 40.811 300.217 40.8854L299.899 41.9344L298.085 41.8011L297.922 40.7115C297.549 40.582 297.194 40.4027 296.868 40.1784L295.9 40.6942L294.741 39.3207L295.396 38.4398C295.22 38.0722 295.095 37.6822 295.025 37.2807L293.976 36.9619L294.109 35.1538L295.193 34.9857C295.326 34.6133 295.505 34.259 295.726 33.931L295.216 32.9631L296.59 31.8041L297.47 32.4589H297.465ZM298.206 34.9567C297.915 35.2083 297.704 35.5407 297.602 35.9118C297.499 36.283 297.509 36.6762 297.63 37.0419C297.75 37.4075 297.977 37.7292 298.281 37.9661C298.584 38.203 298.951 38.3446 299.335 38.373C299.719 38.4013 300.103 38.3152 300.438 38.1254C300.773 37.9356 301.045 37.6508 301.218 37.3068C301.391 36.9629 301.458 36.5753 301.411 36.1931C301.364 35.8109 301.205 35.4512 300.953 35.1596C300.615 34.7696 300.137 34.5294 299.622 34.4914C299.107 34.4534 298.598 34.6207 298.206 34.9567Z" fill="#E0E0E0"/>
<path d="M275.292 23.0003C276.04 22.4682 276.854 22.0357 277.714 21.7138L278.033 19.1928L282.217 18.7871L283.017 21.198C283.922 21.3448 284.803 21.6138 285.636 21.9977L287.647 20.4388L290.893 23.1105L289.734 25.3764C290.27 26.1232 290.704 26.9378 291.026 27.7989L293.547 28.1177L293.953 32.3019L291.542 33.1017C291.4 34.0155 291.137 34.9062 290.759 35.7502L292.313 37.7612L289.647 41.0066L287.375 39.8475C286.629 40.3848 285.814 40.8195 284.952 41.1399L284.634 43.6609L280.449 44.0665L279.65 41.6557C278.745 41.5054 277.864 41.2364 277.03 40.8559L275.025 42.4149L271.785 39.7432L272.944 37.4714C272.41 36.7265 271.978 35.9138 271.658 35.0547L269.137 34.736L268.731 30.5459L271.142 29.752C271.29 28.8456 271.556 27.9628 271.936 27.1267L270.383 25.1215L273.055 21.8702L275.321 23.0293L275.292 23.0003ZM277.975 28.4074C277.409 29.0963 277.059 29.9377 276.971 30.8251C276.883 31.7125 277.06 32.6061 277.48 33.3929C277.9 34.1797 278.543 34.8244 279.329 35.2453C280.115 35.6663 281.009 35.8447 281.896 35.758C282.784 35.6713 283.626 35.3233 284.316 34.7581C285.005 34.1929 285.512 33.4358 285.772 32.5827C286.031 31.7295 286.032 30.8185 285.773 29.9649C285.515 29.1114 285.01 28.3536 284.321 27.7873C283.863 27.412 283.335 27.1307 282.768 26.9593C282.201 26.788 281.606 26.73 281.017 26.7886C280.428 26.8473 279.856 27.0215 279.334 27.3012C278.812 27.581 278.35 27.9608 277.975 28.419V28.4074Z" fill="#F5F5F5"/>
<path d="M155.636 219.283C217.457 219.283 267.572 212.984 267.572 205.215C267.572 197.445 217.457 191.146 155.636 191.146C93.8161 191.146 43.7009 197.445 43.7009 205.215C43.7009 212.984 93.8161 219.283 155.636 219.283Z" fill="#EBEBEB"/>
<path d="M45.2296 186.709L72.8313 186.628L100.433 186.597L155.636 186.539L210.84 186.597L238.442 186.628L266.043 186.709L238.442 186.794L210.84 186.822L155.636 186.88L100.433 186.822L72.8313 186.791L45.2296 186.709Z" fill="#263238"/>
<path d="M221.592 103.041H89.4257V191.45H221.592V103.041Z" fill="#DBDBDB"/>
<path d="M220.632 104.121H90.3857V190.372H220.632V104.121Z" fill="#263238"/>
<path d="M238.806 198.078H72.2116V204.145H238.806V198.078Z" fill="#C7C7C7"/>
<path d="M72.2116 198.078L89.4256 191.449H221.592L238.806 198.078H72.2116Z" fill="#DBDBDB"/>
<path d="M90.9646 195.729L102.074 191.449H208.947L220.056 195.729H90.9646Z" fill="#263238"/>
<path d="M213.271 110.676H97.7467V183.822H213.271V110.676Z" fill="white"/>
<path d="M213.274 110.676H97.6514V113.491H213.274V110.676Z" fill="#455A64"/>
<path d="M99.8882 112.085C99.8882 112.224 99.8468 112.359 99.7693 112.474C99.6918 112.589 99.5818 112.679 99.4533 112.731C99.3248 112.783 99.1836 112.796 99.0477 112.768C98.9119 112.74 98.7876 112.671 98.6907 112.572C98.5938 112.473 98.5287 112.347 98.5037 112.21C98.4787 112.074 98.495 111.933 98.5505 111.806C98.6059 111.679 98.698 111.571 98.815 111.496C98.932 111.422 99.0686 111.384 99.2073 111.387C99.3894 111.391 99.5626 111.467 99.6899 111.597C99.8171 111.728 99.8883 111.903 99.8882 112.085Z" fill="#C7C7C7"/>
<path d="M102.738 112.085C102.738 112.224 102.696 112.359 102.619 112.474C102.542 112.589 102.431 112.679 102.303 112.731C102.174 112.783 102.033 112.796 101.897 112.768C101.762 112.74 101.637 112.671 101.54 112.572C101.443 112.473 101.378 112.347 101.353 112.21C101.328 112.074 101.345 111.933 101.4 111.806C101.456 111.679 101.548 111.571 101.665 111.496C101.782 111.422 101.918 111.384 102.057 111.387C102.239 111.391 102.412 111.467 102.54 111.597C102.667 111.728 102.738 111.903 102.738 112.085Z" fill="white"/>
<path d="M105.588 112.085C105.588 112.223 105.547 112.358 105.47 112.472C105.393 112.587 105.284 112.677 105.157 112.73C105.029 112.782 104.889 112.796 104.754 112.769C104.618 112.742 104.494 112.676 104.396 112.578C104.299 112.481 104.232 112.356 104.205 112.221C104.178 112.085 104.192 111.945 104.245 111.818C104.298 111.69 104.387 111.581 104.502 111.504C104.617 111.428 104.752 111.387 104.89 111.387C105.075 111.387 105.252 111.46 105.383 111.591C105.514 111.722 105.588 111.9 105.588 112.085Z" fill="#FFC727"/>
<path d="M103.296 150.867H148.221V119.405H103.296V150.867Z" fill="#EBEBEB"/>
<path d="M108.546 128.348C108.546 129.084 108.765 129.804 109.173 130.416C109.582 131.028 110.164 131.505 110.844 131.786C111.524 132.068 112.272 132.142 112.994 131.998C113.715 131.854 114.379 131.5 114.899 130.98C115.419 130.459 115.774 129.796 115.917 129.074C116.061 128.352 115.987 127.604 115.706 126.924C115.424 126.244 114.947 125.663 114.335 125.254C113.723 124.845 113.004 124.627 112.268 124.627C111.281 124.627 110.334 125.019 109.636 125.717C108.938 126.415 108.546 127.361 108.546 128.348Z" fill="#DBDBDB"/>
<path d="M123.237 144.088H148.224L135.729 127.156L123.237 144.088Z" fill="#C7C7C7"/>
<path d="M113.452 144.104H134.078L123.765 133.076L113.452 144.104Z" fill="#DBDBDB"/>
<path d="M148.221 144.088H103.296V150.867H148.221V144.088Z" fill="#DBDBDB"/>
<path d="M154.612 177.795H179.714V155.082H154.612V177.795Z" fill="#EBEBEB"/>
<path d="M157.856 160.046C157.743 160.612 157.815 161.199 158.062 161.721C158.308 162.243 158.716 162.672 159.225 162.944C159.734 163.216 160.317 163.318 160.888 163.233C161.459 163.149 161.988 162.883 162.396 162.474C162.804 162.066 163.07 161.538 163.154 160.967C163.239 160.396 163.138 159.813 162.865 159.304C162.593 158.795 162.164 158.387 161.642 158.14C161.121 157.894 160.533 157.822 159.967 157.935C159.446 158.039 158.968 158.295 158.592 158.671C158.216 159.046 157.96 159.525 157.856 160.046Z" fill="#DBDBDB"/>
<path d="M161.68 172.899H179.718L170.699 160.676L161.68 172.899Z" fill="#C7C7C7"/>
<path d="M154.615 172.907H169.507L162.061 164.947L154.615 172.907Z" fill="#DBDBDB"/>
<path d="M179.718 172.896H154.615V177.789H179.718V172.896Z" fill="#DBDBDB"/>
<path d="M194.882 119.408H154.615V121.441H194.882V119.408Z" fill="#A6A6A6"/>
<path d="M203.639 123.613H154.615V125.646H203.639V123.613Z" fill="#DBDBDB"/>
<path d="M203.639 127.816H154.615V129.849H203.639V127.816Z" fill="#DBDBDB"/>
<path d="M203.639 132.025H154.615V134.058H203.639V132.025Z" fill="#DBDBDB"/>
<path d="M203.639 136.23H154.615V138.263H203.639V136.23Z" fill="#DBDBDB"/>
<path d="M187.16 140.436H154.615V142.468H187.16V140.436Z" fill="#DBDBDB"/>
<path d="M199.764 155.078H181.954V157.08H199.764V155.078Z" fill="#A6A6A6"/>
<path d="M203.635 159.221H181.954V161.223H203.635V159.221Z" fill="#DBDBDB"/>
<path d="M203.635 163.365H181.954V165.367H203.635V163.365Z" fill="#DBDBDB"/>
<path d="M203.635 167.506H181.954V169.508H203.635V167.506Z" fill="#DBDBDB"/>
<path d="M203.635 171.648H181.954V173.65H203.635V171.648Z" fill="#DBDBDB"/>
<path d="M196.669 175.791H181.954V177.793H196.669V175.791Z" fill="#DBDBDB"/>
<path d="M203.639 144.895H154.615V150.866H203.639V144.895Z" fill="#FFC727"/>
<path d="M148.221 155.078H103.296V161.05H148.221V155.078Z" fill="#A6A6A6"/>
<path d="M148.221 163.225H103.296V165.244H148.221V163.225Z" fill="#DBDBDB"/>
<path d="M148.221 167.406H103.296V169.425H148.221V167.406Z" fill="#DBDBDB"/>
<path d="M148.221 171.592H103.296V173.611H148.221V171.592Z" fill="#DBDBDB"/>
<path d="M134.078 175.773H103.296V177.792H134.078V175.773Z" fill="#DBDBDB"/>
<path d="M213.271 113.486H210.183V183.817H213.271V113.486Z" fill="#DBDBDB"/>
<path d="M211.725 150.296C211.514 150.296 211.311 150.212 211.162 150.062C211.012 149.913 210.928 149.71 210.928 149.499V114.982C210.928 114.771 211.012 114.568 211.162 114.419C211.311 114.269 211.514 114.186 211.725 114.186C211.936 114.186 212.139 114.269 212.288 114.419C212.438 114.568 212.522 114.771 212.522 114.982V149.499C212.522 149.71 212.438 149.913 212.288 150.062C212.139 150.212 211.936 150.296 211.725 150.296Z" fill="#A6A6A6"/>
<path d="M142.038 150.215V200.12C142.028 201.195 141.593 202.222 140.827 202.977C140.061 203.731 139.027 204.151 137.952 204.145H59.5087C58.4338 204.151 57.4002 203.731 56.6344 202.977C55.8686 202.222 55.433 201.195 55.4231 200.12V150.215C55.433 149.14 55.8687 148.113 56.6346 147.359C57.4005 146.606 58.4341 146.186 59.5087 146.194H137.932C138.466 146.187 138.996 146.286 139.491 146.485C139.987 146.684 140.438 146.979 140.819 147.352C141.201 147.726 141.505 148.171 141.714 148.662C141.923 149.153 142.033 149.681 142.038 150.215Z" fill="#455A64"/>
<path d="M136.09 148.627H61.5311V201.631H136.09V148.627Z" fill="white"/>
<path d="M65.9674 175.484H99.0438V152.322H65.9674V175.484Z" fill="#EBEBEB"/>
<path d="M69.8385 158.909C69.8419 159.447 70.0045 159.972 70.3058 160.417C70.6071 160.863 71.0337 161.209 71.5316 161.413C72.0296 161.617 72.5767 161.668 73.104 161.561C73.6312 161.454 74.1149 161.193 74.4941 160.812C74.8734 160.43 75.1311 159.945 75.2348 159.417C75.3385 158.889 75.2836 158.342 75.077 157.845C74.8703 157.349 74.5212 156.924 74.0737 156.626C73.6261 156.327 73.1002 156.168 72.5622 156.168C72.2031 156.168 71.8475 156.239 71.516 156.377C71.1844 156.515 70.8834 156.717 70.6302 156.972C70.3771 157.226 70.1768 157.529 70.0409 157.861C69.905 158.194 69.8362 158.55 69.8385 158.909Z" fill="#DBDBDB"/>
<path d="M80.6484 170.496H99.0438L89.8444 158.031L80.6484 170.496Z" fill="#C7C7C7"/>
<path d="M73.4441 170.505H88.629L81.0365 162.389L73.4441 170.505Z" fill="#DBDBDB"/>
<path d="M99.0438 170.496H65.9674V175.487H99.0438V170.496Z" fill="#DBDBDB"/>
<path d="M109.537 197.492H131.654V182.004H109.537V197.492Z" fill="#EBEBEB"/>
<path d="M112.121 186.41C112.12 186.773 112.228 187.128 112.429 187.43C112.63 187.733 112.916 187.968 113.252 188.108C113.587 188.247 113.956 188.284 114.312 188.214C114.668 188.143 114.996 187.969 115.253 187.712C115.51 187.456 115.685 187.129 115.756 186.773C115.827 186.416 115.791 186.047 115.652 185.712C115.513 185.376 115.278 185.089 114.976 184.888C114.674 184.686 114.319 184.578 113.956 184.578C113.715 184.578 113.477 184.625 113.254 184.717C113.032 184.808 112.829 184.943 112.659 185.113C112.488 185.284 112.353 185.486 112.261 185.708C112.169 185.931 112.121 186.169 112.121 186.41Z" fill="#DBDBDB"/>
<path d="M119.356 194.155H131.654L125.505 185.82L119.356 194.155Z" fill="#C7C7C7"/>
<path d="M114.539 194.165H124.691L119.615 188.734L114.539 194.165Z" fill="#DBDBDB"/>
<path d="M131.654 194.158H109.537V197.495H131.654V194.158Z" fill="#DBDBDB"/>
<path d="M131.657 152.324H101.897V157.983H131.657V152.324Z" fill="#FFC727"/>
<path d="M131.657 160.131H101.897V160.924H131.657V160.131Z" fill="#DBDBDB"/>
<path d="M131.657 161.994H101.897V162.787H131.657V161.994Z" fill="#DBDBDB"/>
<path d="M131.657 163.857H101.897V164.651H131.657V163.857Z" fill="#DBDBDB"/>
<path d="M131.657 165.719H101.897V166.512H131.657V165.719Z" fill="#DBDBDB"/>
<path d="M131.657 167.582H101.897V168.375H131.657V167.582Z" fill="#DBDBDB"/>
<path d="M131.657 169.443H101.897V170.237H131.657V169.443Z" fill="#DBDBDB"/>
<path d="M119.005 171.307H101.897V172.1H119.005V171.307Z" fill="#DBDBDB"/>
<path d="M106.391 193.182H76.6309V193.975H106.391V193.182Z" fill="#DBDBDB"/>
<path d="M106.391 182.008H76.6309V182.801H106.391V182.008Z" fill="#DBDBDB"/>
<path d="M106.391 183.869H76.6309V184.662H106.391V183.869Z" fill="#DBDBDB"/>
<path d="M106.391 185.73H76.6309V186.524H106.391V185.73Z" fill="#DBDBDB"/>
<path d="M96.9261 187.594H76.6309V188.387H96.9261V187.594Z" fill="#DBDBDB"/>
<path d="M106.391 191.318H76.6309V192.112H106.391V191.318Z" fill="#DBDBDB"/>
<path d="M96.9261 195.043H76.6309V195.836H96.9261V195.043Z" fill="#DBDBDB"/>
<path d="M131.657 178.072H65.9674V179.945H131.657V178.072Z" fill="#455A64"/>
<path d="M74.4723 182.008H65.9674V197.496H74.4723V182.008Z" fill="#FFC727"/>
<path d="M59.0117 168.857H58.9606C58.7256 168.857 58.535 169.048 58.535 169.283V181.046C58.535 181.281 58.7256 181.472 58.9606 181.472H59.0117C59.2467 181.472 59.4373 181.281 59.4373 181.046V169.283C59.4373 169.048 59.2467 168.857 59.0117 168.857Z" fill="#37474F"/>
<path d="M140.996 175.164C140.997 175.488 140.902 175.804 140.722 176.073C140.543 176.343 140.288 176.553 139.989 176.677C139.69 176.801 139.361 176.833 139.044 176.77C138.727 176.708 138.435 176.552 138.206 176.323C137.978 176.094 137.822 175.803 137.759 175.485C137.696 175.168 137.729 174.839 137.853 174.54C137.977 174.242 138.187 173.987 138.456 173.807C138.725 173.628 139.042 173.533 139.365 173.533C139.798 173.534 140.212 173.706 140.518 174.012C140.823 174.318 140.995 174.732 140.996 175.164Z" fill="#37474F"/>
<path d="M250.664 135.508H220.325C219.505 135.517 218.721 135.851 218.147 136.437C217.572 137.023 217.254 137.813 217.261 138.633V201.075C217.255 201.895 217.573 202.685 218.148 203.271C218.722 203.856 219.505 204.191 220.325 204.201H250.657C251.478 204.191 252.261 203.856 252.835 203.271C253.409 202.685 253.728 201.895 253.722 201.075V138.64C253.731 137.82 253.414 137.029 252.841 136.442C252.268 135.854 251.485 135.519 250.664 135.508ZM251.818 199.145C251.818 200.789 250.586 202.117 249.067 202.117H221.932C220.41 202.117 219.181 200.789 219.181 199.145V141C219.181 137.653 220.41 137.489 221.932 137.489H227.38C227.696 137.489 227.955 137.83 227.955 138.293V138.483C227.955 139.529 228.527 139.532 229.228 139.532H241.775C242.479 139.532 243.045 139.532 243.045 138.483V138.3C243.045 137.854 243.3 137.496 243.623 137.496H249.071C250.589 137.496 251.822 137.942 251.822 141.006L251.818 199.145Z" fill="#455A64"/>
<path d="M237.212 138.227H233.784C233.728 138.227 233.674 138.205 233.635 138.165C233.595 138.125 233.573 138.072 233.573 138.016C233.573 137.96 233.595 137.906 233.635 137.867C233.674 137.827 233.728 137.805 233.784 137.805H237.212C237.269 137.805 237.323 137.827 237.363 137.866C237.403 137.906 237.426 137.959 237.427 138.016C237.426 138.072 237.403 138.126 237.363 138.165C237.323 138.205 237.269 138.227 237.212 138.227Z" fill="white"/>
<path d="M251.818 140.999V199.144C251.818 200.788 250.586 202.116 249.067 202.116H221.932C220.41 202.116 219.181 200.788 219.181 199.144V140.999C219.181 137.652 220.41 137.488 221.932 137.488H227.38C227.696 137.488 227.955 137.829 227.955 138.292V138.482C227.955 139.528 228.527 139.531 229.228 139.531H241.775C242.479 139.531 243.045 139.531 243.045 138.482V138.299C243.045 137.853 243.3 137.495 243.623 137.495H249.071C250.586 137.488 251.818 137.934 251.818 140.999Z" fill="white"/>
<path d="M251.818 140.999V145.336H219.178V140.999C219.178 137.652 220.41 137.488 221.932 137.488H227.38C227.693 137.488 227.952 137.829 227.952 138.292V138.482C227.952 139.528 228.524 139.531 229.222 139.531H241.775C242.479 139.531 243.048 139.531 243.048 138.482V138.299C243.048 137.853 243.303 137.495 243.623 137.495H249.071C250.586 137.488 251.818 137.934 251.818 140.999Z" fill="#FFC727"/>
<path d="M222.273 143.219L221.309 142.316L222.273 141.414L222.422 141.571L221.629 142.316L222.422 143.062L222.273 143.219Z" fill="white"/>
<path d="M248.873 143.301H248.192V143.067C248.192 143.06 248.19 143.054 248.187 143.048C248.183 143.043 248.178 143.038 248.172 143.036L248.097 142.992C248.091 142.989 248.085 142.988 248.078 142.988C248.072 142.988 248.066 142.989 248.06 142.992L247.852 143.114L247.512 142.525L247.719 142.406C247.723 142.401 247.726 142.394 247.726 142.387C247.726 142.381 247.723 142.374 247.719 142.369V142.287C247.723 142.281 247.726 142.275 247.726 142.268C247.726 142.261 247.723 142.255 247.719 142.249L247.512 142.13L247.852 141.541L248.06 141.66C248.065 141.664 248.072 141.665 248.078 141.665C248.085 141.665 248.091 141.664 248.097 141.66L248.172 141.616C248.178 141.614 248.183 141.609 248.187 141.604C248.19 141.598 248.192 141.592 248.192 141.585V141.344H248.873V141.585C248.874 141.592 248.875 141.598 248.879 141.604C248.883 141.609 248.888 141.614 248.894 141.616L248.969 141.66C248.974 141.664 248.981 141.665 248.987 141.665C248.994 141.665 249 141.664 249.006 141.66L249.214 141.541L249.554 142.13L249.347 142.249C249.343 142.255 249.34 142.261 249.34 142.268C249.34 142.275 249.343 142.281 249.347 142.287V142.369C249.343 142.374 249.34 142.381 249.34 142.387C249.34 142.394 249.343 142.401 249.347 142.406L249.554 142.525L249.214 143.114L249.006 142.995C249 142.992 248.994 142.99 248.987 142.99C248.981 142.99 248.974 142.992 248.969 142.995L248.894 143.039C248.888 143.042 248.883 143.046 248.879 143.052C248.875 143.057 248.874 143.063 248.873 143.07V143.301ZM248.363 143.131H248.703V143.067C248.704 143.029 248.714 142.992 248.734 142.959C248.754 142.927 248.782 142.9 248.816 142.883C248.836 142.873 248.855 142.862 248.873 142.849C248.907 142.829 248.944 142.819 248.982 142.819C249.021 142.819 249.058 142.829 249.091 142.849L249.153 142.886L249.323 142.59L249.262 142.552C249.229 142.534 249.202 142.507 249.184 142.473C249.166 142.44 249.157 142.403 249.159 142.365V142.297C249.157 142.259 249.166 142.221 249.184 142.187C249.202 142.154 249.229 142.126 249.262 142.106L249.323 142.072L249.153 141.776L249.091 141.814C249.059 141.833 249.022 141.843 248.984 141.843C248.946 141.843 248.909 141.833 248.877 141.814L248.816 141.78C248.782 141.762 248.754 141.735 248.734 141.703C248.714 141.671 248.704 141.634 248.703 141.596V141.524H248.363V141.596C248.362 141.634 248.352 141.671 248.332 141.703C248.312 141.735 248.284 141.762 248.25 141.78C248.23 141.789 248.211 141.8 248.192 141.814C248.159 141.833 248.122 141.843 248.084 141.843C248.045 141.843 248.008 141.833 247.975 141.814L247.913 141.776L247.743 142.072L247.804 142.106C247.837 142.126 247.864 142.154 247.882 142.187C247.9 142.221 247.909 142.259 247.906 142.297V142.365C247.909 142.403 247.9 142.441 247.882 142.475C247.864 142.508 247.837 142.536 247.804 142.556L247.743 142.59L247.913 142.886L247.975 142.849C248.008 142.829 248.045 142.819 248.084 142.819C248.122 142.819 248.159 142.829 248.192 142.849C248.211 142.862 248.23 142.873 248.25 142.883C248.284 142.9 248.312 142.927 248.332 142.959C248.352 142.992 248.362 143.029 248.363 143.067V143.131ZM248.533 142.821C248.433 142.821 248.336 142.792 248.253 142.736C248.17 142.681 248.106 142.602 248.067 142.51C248.029 142.418 248.019 142.317 248.039 142.219C248.058 142.121 248.106 142.032 248.177 141.961C248.247 141.891 248.337 141.843 248.435 141.823C248.532 141.804 248.634 141.814 248.726 141.852C248.818 141.89 248.897 141.955 248.952 142.038C249.007 142.12 249.037 142.218 249.037 142.317C249.036 142.451 248.983 142.579 248.888 142.673C248.794 142.767 248.666 142.82 248.533 142.821ZM248.533 141.984C248.466 141.984 248.4 142.004 248.344 142.041C248.288 142.079 248.244 142.132 248.218 142.194C248.193 142.256 248.186 142.325 248.199 142.391C248.212 142.457 248.245 142.517 248.292 142.565C248.34 142.613 248.4 142.645 248.467 142.658C248.533 142.671 248.601 142.665 248.663 142.639C248.725 142.613 248.779 142.569 248.816 142.513C248.853 142.457 248.873 142.392 248.873 142.324C248.873 142.234 248.838 142.147 248.774 142.084C248.71 142.02 248.623 141.984 248.533 141.984Z" fill="white"/>
<path d="M226.43 138.792L226.379 138.846L226.348 138.877C226.281 138.809 226.202 138.755 226.114 138.718C226.027 138.681 225.932 138.662 225.837 138.662C225.742 138.662 225.648 138.681 225.56 138.718C225.473 138.755 225.393 138.809 225.327 138.877L225.299 138.846L225.248 138.795C225.268 138.774 225.29 138.755 225.313 138.737C225.36 138.698 225.411 138.665 225.466 138.638C225.531 138.607 225.6 138.584 225.671 138.57H225.773H225.929C225.993 138.578 226.056 138.593 226.117 138.615C226.16 138.632 226.202 138.652 226.243 138.676C226.286 138.699 226.327 138.726 226.365 138.758L226.42 138.809L226.43 138.792Z" fill="white"/>
<path d="M225.5 139.04L225.419 138.959C225.474 138.903 225.54 138.859 225.612 138.829C225.685 138.799 225.762 138.783 225.841 138.783C225.919 138.783 225.997 138.799 226.069 138.829C226.142 138.859 226.208 138.903 226.263 138.959L226.181 139.044C226.091 138.954 225.968 138.903 225.841 138.903C225.713 138.903 225.591 138.954 225.5 139.044V139.04Z" fill="white"/>
<path d="M226.113 139.122L226.031 139.207C226.009 139.185 225.983 139.167 225.954 139.154C225.924 139.142 225.893 139.136 225.861 139.136C225.829 139.136 225.798 139.142 225.769 139.154C225.74 139.167 225.713 139.185 225.691 139.207L225.609 139.122C225.677 139.056 225.767 139.02 225.861 139.02C225.955 139.02 226.046 139.056 226.113 139.122Z" fill="white"/>
<path d="M225.916 139.282C225.916 139.297 225.911 139.311 225.903 139.324C225.895 139.336 225.883 139.346 225.869 139.351C225.856 139.357 225.841 139.358 225.826 139.355C225.812 139.353 225.798 139.345 225.788 139.335C225.777 139.325 225.77 139.311 225.767 139.297C225.764 139.282 225.766 139.267 225.772 139.253C225.777 139.24 225.787 139.228 225.799 139.22C225.811 139.212 225.826 139.207 225.841 139.207C225.851 139.207 225.861 139.208 225.87 139.212C225.879 139.215 225.888 139.221 225.895 139.228C225.902 139.235 225.907 139.243 225.911 139.253C225.915 139.262 225.916 139.272 225.916 139.282Z" fill="white"/>
<path d="M221.309 138.951C221.309 138.894 221.332 138.839 221.372 138.799C221.412 138.759 221.467 138.736 221.524 138.736C221.581 138.736 221.636 138.759 221.677 138.799C221.717 138.839 221.741 138.894 221.742 138.951C221.742 139.009 221.719 139.064 221.678 139.105C221.637 139.146 221.581 139.169 221.524 139.169C221.466 139.168 221.412 139.144 221.372 139.104C221.332 139.063 221.309 139.008 221.309 138.951Z" fill="white"/>
<path d="M221.99 138.951C221.99 138.894 222.013 138.839 222.053 138.799C222.093 138.759 222.148 138.736 222.205 138.736C222.262 138.736 222.317 138.759 222.357 138.799C222.398 138.839 222.422 138.894 222.422 138.951C222.422 139.009 222.399 139.064 222.359 139.105C222.318 139.146 222.262 139.169 222.205 139.169C222.147 139.168 222.093 139.144 222.053 139.104C222.013 139.063 221.99 139.008 221.99 138.951Z" fill="white"/>
<path d="M222.671 138.952C222.678 138.9 222.703 138.851 222.743 138.816C222.783 138.781 222.834 138.762 222.887 138.762C222.94 138.762 222.992 138.781 223.031 138.816C223.071 138.851 223.097 138.9 223.103 138.952C223.107 138.983 223.105 139.014 223.095 139.044C223.086 139.073 223.071 139.101 223.051 139.124C223.03 139.147 223.005 139.166 222.977 139.178C222.949 139.191 222.918 139.198 222.887 139.198C222.856 139.198 222.826 139.191 222.798 139.178C222.769 139.166 222.744 139.147 222.724 139.124C222.703 139.101 222.688 139.073 222.679 139.044C222.67 139.014 222.667 138.983 222.671 138.952Z" fill="white"/>
<path d="M223.352 138.952C223.352 138.909 223.365 138.867 223.389 138.831C223.413 138.795 223.447 138.767 223.486 138.751C223.526 138.734 223.57 138.73 223.612 138.739C223.655 138.747 223.693 138.768 223.724 138.798C223.754 138.829 223.775 138.867 223.784 138.91C223.792 138.952 223.788 138.996 223.771 139.036C223.755 139.075 223.727 139.11 223.691 139.133C223.655 139.157 223.613 139.17 223.57 139.17C223.512 139.17 223.457 139.147 223.416 139.106C223.375 139.065 223.352 139.01 223.352 138.952Z" fill="white"/>
<path d="M224.033 138.951C224.034 138.894 224.057 138.839 224.098 138.799C224.139 138.759 224.194 138.736 224.251 138.736C224.308 138.736 224.362 138.759 224.402 138.799C224.443 138.839 224.465 138.894 224.465 138.951C224.465 139.008 224.443 139.063 224.403 139.104C224.363 139.144 224.308 139.168 224.251 139.169C224.193 139.169 224.138 139.146 224.097 139.105C224.056 139.064 224.033 139.009 224.033 138.951Z" fill="white"/>
<path d="M249.367 139.424H247.61V138.613H249.367V139.424ZM247.695 139.338H249.282V138.698H247.695V139.338Z" fill="white"/>
<path d="M248.887 138.748H247.753V139.286H248.887V138.748Z" fill="white"/>
<path d="M249.527 138.799H249.37V139.235H249.527V138.799Z" fill="white"/>
<path d="M224.138 198.562H223.89V199.702H223.427V199.12H222.606V199.702H222.143V198.562H221.895L223.018 197.404L224.138 198.562Z" fill="#EBEBEB"/>
<path d="M249.108 197.404H246.402V197.792H249.108V197.404Z" fill="#EBEBEB"/>
<path d="M249.108 198.357H246.402V198.746H249.108V198.357Z" fill="#EBEBEB"/>
<path d="M249.108 199.314H246.402V199.703H249.108V199.314Z" fill="#EBEBEB"/>
<path d="M224.087 151.046C223.8 151.226 223.468 151.321 223.129 151.321C222.79 151.321 222.458 151.226 222.171 151.046C221.834 150.838 221.574 150.525 221.431 150.156C221.287 149.786 221.269 149.38 221.377 148.999C221.485 148.618 221.715 148.283 222.031 148.044C222.347 147.805 222.733 147.676 223.129 147.676C223.525 147.676 223.911 147.805 224.227 148.044C224.543 148.283 224.773 148.618 224.881 148.999C224.989 149.38 224.971 149.786 224.827 150.156C224.684 150.525 224.424 150.838 224.087 151.046Z" fill="#DBDBDB"/>
<path d="M223.682 149.287C223.682 149.397 223.65 149.505 223.588 149.596C223.527 149.687 223.44 149.759 223.339 149.8C223.237 149.842 223.125 149.853 223.018 149.831C222.91 149.81 222.811 149.757 222.734 149.679C222.656 149.601 222.604 149.501 222.583 149.394C222.561 149.286 222.573 149.174 222.615 149.073C222.658 148.971 222.73 148.885 222.821 148.824C222.913 148.764 223.021 148.732 223.131 148.732C223.277 148.733 223.417 148.792 223.521 148.896C223.624 149 223.682 149.141 223.682 149.287Z" fill="white"/>
<path d="M224.087 150.817V151.045C223.8 151.224 223.468 151.319 223.129 151.319C222.79 151.319 222.458 151.224 222.171 151.045V150.817C222.185 150.573 222.292 150.343 222.471 150.175C222.649 150.008 222.884 149.914 223.129 149.914C223.374 149.914 223.609 150.008 223.787 150.175C223.965 150.343 224.073 150.573 224.087 150.817Z" fill="white"/>
<path d="M238.809 147.779H227.233V148.733H238.809V147.779Z" fill="#EBEBEB"/>
<path d="M237.338 149.371H227.233V150.004H237.338V149.371Z" fill="#EBEBEB"/>
<path d="M243.94 150.59H227.233V151.223H243.94V150.59Z" fill="#EBEBEB"/>
<path d="M219.181 175.68H251.818V152.827H219.181V175.68Z" fill="#EBEBEB"/>
<path d="M222.994 159.322C222.994 159.857 223.153 160.38 223.45 160.824C223.747 161.269 224.169 161.615 224.663 161.82C225.157 162.025 225.701 162.078 226.225 161.974C226.75 161.87 227.231 161.612 227.609 161.234C227.987 160.856 228.245 160.374 228.349 159.85C228.453 159.325 228.4 158.782 228.195 158.288C227.991 157.794 227.644 157.372 227.2 157.075C226.755 156.778 226.232 156.619 225.698 156.619C224.981 156.619 224.293 156.904 223.786 157.411C223.279 157.918 222.994 158.605 222.994 159.322Z" fill="#DBDBDB"/>
<path d="M233.672 170.756H251.818L242.745 158.455L233.672 170.756Z" fill="#C7C7C7"/>
<path d="M226.556 170.766H241.54L234.046 162.758L226.556 170.766Z" fill="#DBDBDB"/>
<path d="M251.818 170.756H219.181V175.679H251.818V170.756Z" fill="#DBDBDB"/>
<path d="M224.087 187.726C223.8 187.905 223.468 188 223.129 188C222.79 188 222.458 187.905 222.171 187.726C221.834 187.517 221.574 187.205 221.431 186.835C221.287 186.466 221.269 186.06 221.377 185.679C221.485 185.298 221.715 184.962 222.031 184.723C222.347 184.485 222.733 184.355 223.129 184.355C223.525 184.355 223.911 184.485 224.227 184.723C224.543 184.962 224.773 185.298 224.881 185.679C224.989 186.06 224.971 186.466 224.827 186.835C224.684 187.205 224.424 187.517 224.087 187.726Z" fill="#DBDBDB"/>
<path d="M223.131 186.526C223.437 186.526 223.686 186.277 223.686 185.971C223.686 185.664 223.437 185.416 223.131 185.416C222.824 185.416 222.576 185.664 222.576 185.971C222.576 186.277 222.824 186.526 223.131 186.526Z" fill="white"/>
<path d="M224.087 187.499V187.727C223.8 187.906 223.468 188.001 223.129 188.001C222.79 188.001 222.458 187.906 222.171 187.727V187.499C222.185 187.254 222.292 187.025 222.471 186.857C222.649 186.689 222.884 186.596 223.129 186.596C223.374 186.596 223.609 186.689 223.787 186.857C223.965 187.025 224.073 187.254 224.087 187.499Z" fill="white"/>
<path d="M242.119 184.463H227.233V185.416H242.119V184.463Z" fill="#EBEBEB"/>
<path d="M246.238 186.051H227.233V186.684H246.238V186.051Z" fill="#EBEBEB"/>
<path d="M233.706 187.271H227.233V187.905H233.706V187.271Z" fill="#EBEBEB"/>
<path d="M251.812 189.51H219.181V195.09H251.812V189.51Z" fill="#EBEBEB"/>
<path d="M228.241 195.093H223.154C223.341 194.568 223.686 194.114 224.142 193.792C224.597 193.471 225.141 193.299 225.698 193.299C226.255 193.299 226.799 193.471 227.254 193.792C227.709 194.114 228.054 194.568 228.241 195.093Z" fill="#DBDBDB"/>
<path d="M221.374 178.354C221.323 178.147 221.335 177.929 221.409 177.729C221.482 177.528 221.613 177.354 221.785 177.228C221.958 177.102 222.163 177.03 222.377 177.021C222.59 177.011 222.801 177.066 222.983 177.177C223.166 177.288 223.311 177.45 223.401 177.644C223.491 177.837 223.522 178.053 223.489 178.264C223.456 178.475 223.362 178.672 223.217 178.829C223.073 178.986 222.885 179.097 222.678 179.147C222.54 179.181 222.397 179.188 222.257 179.166C222.117 179.145 221.982 179.096 221.861 179.022C221.74 178.948 221.634 178.851 221.551 178.737C221.467 178.622 221.407 178.492 221.374 178.354Z" fill="#EBEBEB"/>
<path fill-rule="evenodd" clip-rule="evenodd" d="M222.276 178.527C222.245 178.51 222.222 178.483 222.184 178.486C222.147 178.49 222.184 178.486 222.184 178.469V178.037C222.182 178.033 222.18 178.029 222.18 178.025C222.18 178.021 222.182 178.016 222.184 178.013C222.293 177.958 222.341 177.849 222.409 177.754C222.445 177.706 222.47 177.651 222.484 177.592C222.497 177.534 222.499 177.473 222.487 177.414C222.487 177.383 222.487 177.369 222.528 177.363C222.542 177.357 222.558 177.356 222.573 177.36C222.588 177.364 222.601 177.374 222.61 177.386C222.642 177.446 222.663 177.51 222.671 177.577C222.678 177.63 222.678 177.684 222.671 177.737C222.671 177.778 222.654 177.815 222.647 177.856C222.64 177.897 222.668 177.856 222.678 177.856H223.042C223.093 177.856 223.12 177.856 223.127 177.904C223.131 177.925 223.128 177.947 223.118 177.966C223.108 177.985 223.092 178 223.073 178.009C223.073 178.009 223.049 178.009 223.049 178.026C223.049 178.044 223.049 178.026 223.073 178.044C223.097 178.061 223.107 178.135 223.073 178.173C223.039 178.21 223.039 178.173 223.039 178.193C223.039 178.214 223.059 178.193 223.069 178.221C223.077 178.231 223.083 178.242 223.085 178.255C223.087 178.267 223.087 178.28 223.084 178.292C223.08 178.304 223.074 178.316 223.066 178.325C223.058 178.334 223.047 178.342 223.035 178.347H223.012C223.012 178.347 223.012 178.347 223.012 178.364C223.024 178.369 223.034 178.378 223.041 178.39C223.049 178.401 223.053 178.415 223.053 178.428C223.053 178.442 223.049 178.455 223.041 178.467C223.034 178.478 223.024 178.487 223.012 178.493C222.99 178.5 222.968 178.5 222.947 178.493H222.375C222.373 178.503 222.368 178.513 222.361 178.52C222.354 178.528 222.345 178.534 222.335 178.538C222.325 178.541 222.314 178.542 222.304 178.54C222.294 178.538 222.284 178.534 222.276 178.527Z" fill="white"/>
<path fill-rule="evenodd" clip-rule="evenodd" d="M221.731 178.274C221.731 178.182 221.731 178.09 221.731 177.998C221.731 177.981 221.731 177.971 221.759 177.971C221.868 177.971 221.98 177.971 222.099 177.971C222.119 177.971 222.123 177.971 222.123 177.998V178.55C222.123 178.573 222.123 178.58 222.092 178.58H221.769C221.742 178.58 221.738 178.58 221.738 178.546C221.735 178.471 221.731 178.366 221.731 178.274Z" fill="white"/>
<path d="M223.641 178.353C223.591 178.146 223.603 177.929 223.677 177.728C223.75 177.528 223.881 177.354 224.053 177.228C224.225 177.102 224.431 177.03 224.644 177.021C224.857 177.011 225.068 177.065 225.25 177.176C225.432 177.287 225.578 177.449 225.668 177.642C225.758 177.835 225.789 178.051 225.757 178.262C225.725 178.473 225.631 178.669 225.487 178.827C225.343 178.984 225.156 179.096 224.949 179.147C224.811 179.181 224.667 179.188 224.527 179.167C224.386 179.145 224.251 179.097 224.13 179.023C224.008 178.949 223.902 178.852 223.818 178.737C223.735 178.622 223.674 178.492 223.641 178.353Z" fill="#FFC727"/>
<path d="M225.242 178.235C225.242 178.381 225.183 178.522 225.08 178.625C224.977 178.729 224.836 178.787 224.69 178.787C224.544 178.787 224.403 178.729 224.3 178.625C224.197 178.522 224.138 178.381 224.138 178.235C224.103 178.184 224.08 178.125 224.069 178.064C224.058 178.002 224.061 177.939 224.077 177.879C224.092 177.818 224.121 177.762 224.161 177.714C224.2 177.665 224.249 177.626 224.305 177.599C224.612 177.507 224.69 178.041 224.69 178.041C224.69 178.041 224.768 177.507 225.078 177.599C225.293 177.663 225.378 177.959 225.242 178.235Z" fill="white"/>
<path d="M242.745 177.959H227.414V178.582H242.745V177.959Z" fill="#EBEBEB"/>
<path d="M219.181 181.683L223.26 181.621L227.339 181.587L235.496 181.557L243.654 181.587L247.733 181.621L251.812 181.683L247.733 181.747L243.654 181.781L235.496 181.812L227.339 181.781L223.26 181.747L219.181 181.683Z" fill="#EBEBEB"/>
</svg>
