<svg width="20" height="20" viewBox="0 0 20 20" fill="none" xmlns="http://www.w3.org/2000/svg">
<path d="M10 0C4.486 0 0 4.30609 0 9.59896C0 14.8918 4.486 19.1979 10 19.1979C15.514 19.1979 20 14.8918 20 9.59896C20 4.30609 15.514 0 10 0ZM10 17.2781C5.589 17.2781 2 13.8331 2 9.59896C2 5.36486 5.589 1.91979 10 1.91979C14.411 1.91979 18 5.36486 18 9.59896C18 13.8331 14.411 17.2781 10 17.2781Z" fill="black"/>
<path d="M9 9.63907C9 9.08678 9.44772 8.63907 10 8.63907C10.5523 8.63907 11 9.08678 11 9.63907V13.3984C11 13.9507 10.5523 14.3984 10 14.3984C9.44772 14.3984 9 13.9507 9 13.3984V9.63907ZM9 5.75938C9 5.22924 9.42976 4.79948 9.9599 4.79948H10.0401C10.5702 4.79948 11 5.22924 11 5.75938C11 6.28951 10.5702 6.71927 10.0401 6.71927H9.9599C9.42976 6.71927 9 6.28951 9 5.75938Z" fill="black"/>
</svg>
