<svg width="22" height="21" viewBox="0 0 22 21" fill="none" xmlns="http://www.w3.org/2000/svg">
<path d="M13.4161 12.2654C13.3464 12.2657 13.2776 12.25 13.2156 12.2195L10.9935 11.1058L8.77138 12.2195C8.69923 12.2559 8.61787 12.2721 8.53657 12.2663C8.45527 12.2606 8.37727 12.2331 8.31146 12.1871C8.24565 12.141 8.19465 12.0782 8.16427 12.0058C8.13389 11.9333 8.12535 11.8542 8.1396 11.7774L8.57531 9.42881L6.78019 7.76022C6.72418 7.70671 6.68445 7.63961 6.66526 7.56612C6.64607 7.49263 6.64815 7.41552 6.67126 7.34307C6.69652 7.26894 6.74297 7.20306 6.80535 7.15292C6.86773 7.10278 6.94355 7.07039 7.02419 7.05941L9.50773 6.71318L10.6014 4.57321C10.637 4.50268 10.6928 4.4432 10.7621 4.40158C10.8315 4.35996 10.9117 4.33789 10.9935 4.33789C11.0754 4.33789 11.1556 4.35996 11.2249 4.40158C11.2943 4.4432 11.35 4.50268 11.3856 4.57321L12.4923 6.70901L14.9759 7.05524C15.0565 7.06621 15.1323 7.09861 15.1947 7.14875C15.2571 7.19889 15.3036 7.26476 15.3288 7.3389C15.3519 7.41135 15.354 7.48846 15.3348 7.56195C15.3156 7.63544 15.2759 7.70254 15.2199 7.75605L13.4248 9.42464L13.8605 11.7732C13.876 11.8514 13.8679 11.9322 13.837 12.0061C13.8061 12.0801 13.7538 12.144 13.6862 12.1903C13.6073 12.2433 13.5123 12.2697 13.4161 12.2654ZM10.9935 10.2214C11.0633 10.2197 11.1324 10.2355 11.1939 10.2673L12.8366 11.1016L12.5228 9.34539C12.5107 9.27833 12.5158 9.20944 12.5379 9.14473C12.5599 9.08001 12.5981 9.02144 12.6492 8.97412L13.9563 7.75188L12.1264 7.49325C12.0592 7.48031 11.9963 7.45242 11.9425 7.41183C11.8888 7.37125 11.8458 7.31911 11.817 7.25964L10.9935 5.69534L10.17 7.25964C10.1385 7.31959 10.0923 7.37137 10.0354 7.41058C9.97854 7.4498 9.91261 7.47529 9.84323 7.4849L8.01325 7.74354L9.32038 8.96578C9.37148 9.0131 9.40971 9.07167 9.43173 9.13638C9.45376 9.2011 9.45891 9.26999 9.44673 9.33704L9.13302 11.0724L10.7757 10.2381C10.8453 10.2133 10.9207 10.2075 10.9935 10.2214Z" fill="black" stroke="black" stroke-width="0.5"/>
<path d="M18.5 2.25207C18.8315 2.25207 19.1495 2.38398 19.3839 2.61879C19.6183 2.8536 19.75 3.17207 19.75 3.50414V13.5207C19.75 13.8527 19.6183 14.1712 19.3839 14.406C19.1495 14.6408 18.8315 14.7727 18.5 14.7727H15.375C14.9869 14.7727 14.6041 14.8633 14.257 15.0371C13.9098 15.211 13.6079 15.4634 13.375 15.7744L11 18.9459L8.625 15.7744C8.39213 15.4634 8.09017 15.211 7.74303 15.0371C7.3959 14.8633 7.01311 14.7727 6.625 14.7727H3.5C3.16848 14.7727 2.85054 14.6408 2.61612 14.406C2.3817 14.1712 2.25 13.8527 2.25 13.5207V3.50414C2.25 3.17207 2.3817 2.8536 2.61612 2.61879C2.85054 2.38398 3.16848 2.25207 3.5 2.25207H18.5ZM3.5 1C2.83696 1 2.20107 1.26383 1.73223 1.73344C1.26339 2.20306 1 2.84 1 3.50414V13.5207C1 14.1848 1.26339 14.8218 1.73223 15.2914C2.20107 15.761 2.83696 16.0248 3.5 16.0248H6.625C6.81906 16.0248 7.01045 16.0701 7.18402 16.157C7.35759 16.2439 7.50857 16.3701 7.625 16.5256L10 19.6971C10.1164 19.8526 10.2674 19.9788 10.441 20.0658C10.6146 20.1527 10.8059 20.198 11 20.198C11.1941 20.198 11.3854 20.1527 11.559 20.0658C11.7326 19.9788 11.8836 19.8526 12 19.6971L14.375 16.5256C14.4914 16.3701 14.6424 16.2439 14.816 16.157C14.9896 16.0701 15.1809 16.0248 15.375 16.0248H18.5C19.163 16.0248 19.7989 15.761 20.2678 15.2914C20.7366 14.8218 21 14.1848 21 13.5207V3.50414C21 2.84 20.7366 2.20306 20.2678 1.73344C19.7989 1.26383 19.163 1 18.5 1H3.5Z" fill="black" stroke="black" stroke-width="0.5"/>
</svg>
